<?xml version="1.0" encoding="UTF-8" standalone="no"?>
<svg
   xmlns:dc="http://purl.org/dc/elements/1.1/"
   xmlns:cc="http://creativecommons.org/ns#"
   xmlns:rdf="http://www.w3.org/1999/02/22-rdf-syntax-ns#"
   xmlns:svg="http://www.w3.org/2000/svg"
   xmlns="http://www.w3.org/2000/svg"
   xmlns:sodipodi="http://sodipodi.sourceforge.net/DTD/sodipodi-0.dtd"
   xmlns:inkscape="http://www.inkscape.org/namespaces/inkscape"
   id="svg8"
   data-component="common"
   href="https://www.sandbox.bristolrowing.co.uk"
   version="1.1"
   viewBox="0 0 90.644675 94.001876"
   sodipodi:docname="blade.svg"
   inkscape:version="0.92.2 (5c3e80d, 2017-08-06)">
  <metadata
     id="metadata10">
    <rdf:RDF>
      <cc:Work
         rdf:about="">
        <dc:format>image/svg+xml</dc:format>
        <dc:type
           rdf:resource="http://purl.org/dc/dcmitype/StillImage" />
        <dc:title></dc:title>
      </cc:Work>
    </rdf:RDF>
  </metadata>
  <defs
     id="defs8" />
  <sodipodi:namedview
     pagecolor="#ffffff"
     bordercolor="#666666"
     borderopacity="1"
     objecttolerance="10"
     gridtolerance="10"
     guidetolerance="10"
     inkscape:pageopacity="0"
     inkscape:pageshadow="2"
     inkscape:window-width="1920"
     inkscape:window-height="1017"
     id="namedview6"
     showgrid="false"
     inkscape:zoom="2.5105882"
     inkscape:cx="45.322338"
     inkscape:cy="47.000938"
     inkscape:window-x="-8"
     inkscape:window-y="-8"
     inkscape:window-maximized="1"
     inkscape:current-layer="g6" />
  <g
     id="g6"
     class="blade"
     transform="matrix(1.5751 0 0 1.5751 -33.433 -27.883)">
    <path
       id="path2"
       class="upper-blade"
       d="m21.226 70.988s6.5335-10.524 9.9983-15.657c4.0167-5.9499 8.016-11.932 12.501-17.537 5.6179-7.0203 16.719-20.092 17.997-20.092 1.2789 0 17.051 14.067 17.051 14.92 0 0.85257-9.1625 4.2112-13.519 6.735-7.2225 4.1844-14.044 9.0372-20.836 13.89-7.9193 5.6593-23.194 17.74-23.194 17.74z"
       fill="#27ae60"
       style="fill:#274160;fill-opacity:1" />
    <path
       id="path4"
       class="lower-blade"
       d="m23.357 75.251s5.9293-4.3322 9.0823-6.2028c14.912-8.8468 46.335-24.49 46.335-23.637 0 0.85257-29.84 31.971-29.84 31.971s-7.5336-2.5696-11.46-2.9517c-4.6916-0.45665-14.118 0.82028-14.118 0.82028z"
       fill="#2ecc71"
       style="fill:#4776b0;fill-opacity:1" />
  </g>
</svg>
