<svg height="512pt" viewBox="-10 0 511 512" width="512pt" xmlns="http://www.w3.org/2000/svg"><path d="m358.765625 512h-298.28125c-33.128906 0-59.984375-26.855469-59.984375-59.988281v-392.023438c0-33.132812 26.855469-59.988281 59.984375-59.988281h298.28125c33.132813 0 59.988281 26.855469 59.988281 59.988281v392.027344c0 33.128906-26.855468 59.984375-59.988281 59.984375zm0 0" fill="#ff899f"/><path d="m203.242188 452.011719v-392.023438c0-33.132812 26.859374-59.988281 59.988281-59.988281h-202.746094c-33.128906 0-59.984375 26.855469-59.984375 59.988281v392.027344c0 33.128906 26.855469 59.984375 59.984375 59.984375h202.746094c-33.128907 0-59.988281-26.855469-59.988281-59.988281zm0 0" fill="#ff5f7f"/><path d="m90.046875 0h-29.5625c-33.128906 0-59.984375 26.855469-59.984375 59.988281v392.027344c0 33.128906 26.855469 59.984375 59.984375 59.984375h29.5625zm0 0" fill="#6a829a"/><path d="m317.460938 234.367188h-130.757813c-21.769531 0-39.417969-17.648438-39.417969-39.421876v-85.214843c0-21.769531 17.648438-39.417969 39.417969-39.417969h130.757813c21.769531 0 39.417968 17.648438 39.417968 39.417969v85.214843c0 21.773438-17.648437 39.421876-39.417968 39.421876zm0 0" fill="#b5e9f1"/><path d="m186.703125 70.308594c-21.769531 0-39.417969 17.648437-39.417969 39.421875v85.214843c0 21.773438 17.648438 39.417969 39.417969 39.417969h16.539063v-164.054687zm0 0" fill="#81d9e7"/><path d="m353.515625 382.476562-19.71875 3.628907c-11.339844 2.085937-21.257813-7.832031-19.171875-19.171875l3.628906-19.714844c1.167969-6.332031 4.226563-12.160156 8.78125-16.710938l112.847656-112.851562c11.925782-11.925781 31.261719-11.925781 43.191407 0 11.925781 11.929688 11.925781 31.265625 0 43.191406l-112.847657 112.851563c-4.554687 4.550781-10.378906 7.613281-16.710937 8.777343zm0 0" fill="#f9ee80"/><path d="m462.605469 284.082031-45.957031-45.957031c-6.035157-6.035156-6.035157-15.816406 0-21.851562 6.035156-6.035157 15.820312-6.035157 21.855468 0l45.957032 45.957031c6.035156 6.035156 6.035156 15.816406 0 21.851562-6.035157 6.035157-15.820313 6.035157-21.855469 0zm0 0" fill="#6a829a"/><path d="m330.707031 326.832031-3.675781 3.675781c-4.550781 4.550782-7.613281 10.378907-8.777344 16.707032l-3.628906 19.71875c-2.085938 11.339844 7.832031 21.257812 19.171875 19.171875l19.71875-3.628907c6.328125-1.164062 12.15625-4.226562 16.707031-8.777343l3.675782-3.675781zm0 0" fill="#6a829a"/><path d="m405.390625 344.523438c-7.25-7.253907-7.25-19.011719 0-26.261719l43.492187-43.492188c7.253907-7.253906 19.011719-7.253906 26.265626 0 7.25 7.25 7.25 19.007813 0 26.261719l-43.492188 43.492188c-7.253906 7.25-19.011719 7.25-26.265625 0zm0 0" fill="#a7b6c5"/><g fill="#454545"><path d="m300.917969 165.050781c-4.265625 0-7.726563-3.460937-7.726563-7.726562v-12.828125c0-4.265625 3.460938-7.726563 7.726563-7.726563 4.269531 0 7.726562 3.460938 7.726562 7.726563v12.828125c0 4.265625-3.457031 7.726562-7.726562 7.726562zm0 0"/><path d="m203.242188 165.050781c-4.265626 0-7.726563-3.460937-7.726563-7.726562v-12.828125c0-4.265625 3.460937-7.726563 7.726563-7.726563 4.269531 0 7.726562 3.460938 7.726562 7.726563v12.828125c0 4.265625-3.457031 7.726562-7.726562 7.726562zm0 0"/><path d="m257.359375 149.605469c-1.730469 2.539062-4.253906 2.847656-5.277344 2.847656-1.023437 0-3.589843-.277344-5.277343-2.847656-2.34375-3.566407-7.132813-4.558594-10.699219-2.214844-3.566407 2.339844-4.558594 7.132813-2.21875 10.699219 4.039062 6.144531 10.839843 9.816406 18.195312 9.816406s14.152344-3.671875 18.191407-9.816406c2.34375-3.566406 1.351562-8.359375-2.214844-10.699219-1.308594-.859375-7.089844-3.085937-10.699219 2.214844zm0 0"/></g></svg>