<svg height="512pt" viewBox="0 -54 512 512" width="512pt" xmlns="http://www.w3.org/2000/svg"><path d="m224.722656 74.457031-106.476562 172.785157c-9.636719 15.632812-10.488282 35.140624-2.257813 51.558593l36.933594 73.636719c9.734375 19.410156 29.59375 31.664062 51.308594 31.664062h103.539062c21.714844 0 41.574219-12.253906 51.308594-31.664062l36.933594-73.636719c8.230469-16.417969 7.378906-35.925781-2.257813-51.558593l-106.476562-172.785157c-14.351563-23.285156-48.203125-23.285156-62.554688 0zm0 0" fill="#f9ee80"/><path d="m236.5 252.695312h39v151.40625h-39zm0 0" fill="#516980"/><path d="m236.5 343.003906c6.285156 1.375 12.808594 2.105469 19.5 2.105469s13.214844-.730469 19.5-2.105469v-90.308594h-39zm0 0" fill="#3e4f61"/><path d="m306.089844 253.8125c0 27.664062-22.425782 50.085938-50.089844 50.085938s-50.089844-22.421876-50.089844-50.085938 22.425782-50.089844 50.089844-50.089844 50.089844 22.425782 50.089844 50.089844zm0 0" fill="#6a829a"/><path d="m36.167969 18.066406h439.664062v36.203125h-439.664062zm0 0" fill="#b5e9f1"/><path d="m399.652344 163.34375c-.074219-.289062-7.617188-29.324219-29.496094-57.59375-28.273438-36.527344-66.679688-55.046875-114.15625-55.046875-47.917969 0-86.582031 18.851563-114.914062 56.035156-21.550782 28.277344-28.65625 56.277344-28.726563 56.554688l-35.140625-8.714844c.355469-1.4375 9.03125-35.613281 35.070312-69.78125 24.433594-32.070313 69.207032-70.300781 143.710938-70.300781s119.273438 38.230468 143.710938 70.300781c26.035156 34.171875 34.710937 68.347656 35.070312 69.78125zm0 0" fill="#fcf5af"/><path d="m429.285156 195.105469h-24.148437c-13.308594 0-24.09375-10.785157-24.09375-24.09375v-24.148438c0-13.308593 10.785156-24.09375 24.09375-24.09375h24.148437c13.308594 0 24.09375 10.785157 24.09375 24.09375v24.148438c0 13.308593-10.785156 24.09375-24.09375 24.09375zm0 0" fill="#73da8c"/><path d="m475.832031 72.335938c-19.976562 0-36.167969-16.191407-36.167969-36.167969 0-19.972657 16.191407-36.167969 36.167969-36.167969 19.972657 0 36.167969 16.195312 36.167969 36.167969 0 19.976562-16.195312 36.167969-36.167969 36.167969zm0 0" fill="#3ccbde"/><path d="m268.074219 72.335938h-24.148438c-13.308593 0-24.09375-10.785157-24.09375-24.089844v-24.152344c0-13.308594 10.785157-24.09375 24.09375-24.09375h24.148438c13.308593 0 24.09375 10.785156 24.09375 24.09375v24.152344c0 13.304687-10.785157 24.089844-24.09375 24.089844zm0 0" fill="#73da8c"/><path d="m36.167969 72.335938c-19.972657 0-36.167969-16.191407-36.167969-36.167969 0-19.972657 16.195312-36.167969 36.167969-36.167969 19.976562 0 36.167969 16.195312 36.167969 36.167969.003906 19.976562-16.191407 36.167969-36.167969 36.167969zm0 0" fill="#3ccbde"/><path d="m106.867188 195.105469h-24.152344c-13.308594 0-24.09375-10.785157-24.09375-24.09375v-24.148438c0-13.308593 10.785156-24.09375 24.09375-24.09375h24.148437c13.308594 0 24.09375 10.785157 24.09375 24.09375v24.148438c0 13.308593-10.785156 24.09375-24.089843 24.09375zm0 0" fill="#73da8c"/><path d="m188.433594 236.613281c20.175781-52.273437 15.148437-127.851562 15.148437-127.851562l-85.335937 138.480469c-9.636719 15.632812-10.488282 35.140624-2.257813 51.558593l36.933594 73.636719c9.734375 19.410156 29.589844 31.664062 51.308594 31.664062h19.679687c-18.746094-20.695312-30.488281-44.035156-37.871094-65.628906-11.328124-33.140625-10.21875-69.1875 2.394532-101.859375zm0 0" fill="#eedb00"/></svg>