<svg height="511pt" viewBox="-60 0 511 511.99963" width="511pt" xmlns="http://www.w3.org/2000/svg"><path d="m366.550781 402.5625h-340.519531c-14.101562 0-25.53125-11.433594-25.53125-25.53125 0-14.101562 11.429688-25.53125 25.53125-25.53125h340.519531c14.101563 0 25.53125 11.429688 25.53125 25.53125s-11.429687 25.53125-25.53125 25.53125zm0 0" fill="#6a829a"/><path d="m201.863281 193.484375-133.890625 303.324219c-9.148437 20.730468-38.78125 20.097656-47.042968-1-5.589844-14.277344-5.234376-30.195313.984374-44.210938l136.296876-307.089844zm0 0" fill="#a7b6c5"/><path d="m158.210938 144.507812-59.582032 134.246094c16.207032-1.472656 37.796875-1.730468 64.964844 1.429688l38.269531-86.699219zm0 0" fill="#889cb0"/><path d="m190.714844 193.484375 133.894531 303.324219c9.148437 20.730468 38.78125 20.097656 47.042969-1 5.589844-14.277344 5.234375-30.195313-.984375-44.210938l-136.296875-307.089844zm0 0" fill="#a7b6c5"/><path d="m234.371094 144.507812-43.65625 48.976563 40.15625 90.96875c23.160156-4.386719 40.347656-16.492187 52.601562-29.316406zm0 0" fill="#889cb0"/><path d="m224.136719 106.613281h-55.691407v-78.769531c0-15.378906 12.46875-27.84375 27.84375-27.84375 15.378907 0 27.847657 12.464844 27.847657 27.84375zm0 0" fill="#889cb0"/><path d="m224.136719 47.214844c-21.578125-3.839844-41.039063-2.789063-55.691407-.5625v59.960937h55.691407zm0 0" fill="#6a829a"/><path d="m277.585938 157.738281c0 44.898438-36.398438 81.292969-81.296876 81.292969-44.894531 0-81.292968-36.394531-81.292968-81.292969 0-44.894531 36.398437-81.292969 81.292968-81.292969 44.898438 0 81.296876 36.398438 81.296876 81.292969zm0 0" fill="#73da8c"/><g fill="#f9ee80"><path d="m196.289062 187.523438c-16.421874 0-29.78125-13.359376-29.78125-29.78125 0-16.425782 13.359376-29.785157 29.78125-29.785157 16.425782 0 29.785157 13.359375 29.785157 29.785157 0 16.421874-13.359375 29.78125-29.785157 29.78125zm0 0"/><path d="m196.289062 432.800781c-13.421874 0-24.300781-10.878906-24.300781-24.300781v-62.9375c0-13.425781 10.878907-24.304688 24.300781-24.304688 13.425782 0 24.304688 10.878907 24.304688 24.304688v62.9375c0 13.421875-10.878906 24.300781-24.304688 24.300781zm0 0"/></g></svg>