<svg height="511pt" viewBox="-30 1 511 511.99948" width="511pt" xmlns="http://www.w3.org/2000/svg"><path d="m165.820312 271.441406-146.535156 80.757813c-25.046875 13.804687-25.046875 49.796875 0 63.601562l146.535156 80.757813c37.355469 20.585937 82.652344 20.585937 120.003907 0l146.539062-80.757813c25.046875-13.804687 25.046875-49.796875 0-63.601562l-146.539062-80.757813c-37.351563-20.589844-82.648438-20.589844-120.003907 0zm0 0" fill="#73da8c"/><path d="m285.824219 271.441406c-37.351563-20.589844-82.648438-20.589844-120 0l-146.539063 80.757813c-25.046875 13.804687-25.046875 49.796875 0 63.601562l131.359375 72.398438c5.789063-28.332031 28.363281-51.382813 58.09375-57.683594 67.859375-14.378906 107.59375-79.015625 107.59375-79.015625l2.117188-62.082031zm0 0" fill="#29ce69"/><path d="m165.820312 143.441406-146.535156 80.757813c-25.046875 13.804687-25.046875 49.796875 0 63.601562l146.535156 80.757813c37.355469 20.585937 82.652344 20.585937 120.003907 0l146.539062-80.757813c25.046875-13.804687 25.046875-49.796875 0-63.601562l-146.539062-80.757813c-37.351563-20.589844-82.648438-20.589844-120.003907 0zm0 0" fill="#f9ee80"/><path d="m285.824219 143.441406c-37.351563-20.589844-82.648438-20.589844-120 0l-146.539063 80.757813c-25.046875 13.804687-25.046875 49.796875 0 63.601562l96.195313 53.015625c13.292969-28.777344 43.78125-48.550781 78.371093-45.636718 116.425782 9.804687 159.683594-91.933594 159.683594-91.933594v-22.492188zm0 0" fill="#eedb00"/><path d="m165.820312 15.441406-146.535156 80.757813c-25.046875 13.804687-25.046875 49.796875 0 63.601562l146.535156 80.757813c37.355469 20.585937 82.652344 20.585937 120.003907 0l146.539062-80.757813c25.046875-13.804687 25.046875-49.796875 0-63.601562l-146.539062-80.757813c-37.351563-20.589844-82.648438-20.589844-120.003907 0zm0 0" fill="#81d9e7"/><path d="m159.867188 141.273438c0-13.582032-13.824219-24.589844-30.875-24.589844-17.054688 0-30.878907 11.007812-30.878907 24.589844 0 13.578124 13.824219 24.589843 30.878907 24.589843 17.050781 0 30.875-11.011719 30.875-24.589843zm0 0" fill="#ff89ca"/><path d="m353.535156 141.273438c0-13.582032-13.824218-24.589844-30.878906-24.589844s-30.878906 11.007812-30.878906 24.589844c0 13.578124 13.824218 24.589843 30.878906 24.589843s30.878906-11.011719 30.878906-24.589843zm0 0" fill="#ff89ca"/><g fill="#454545"><path d="m225.824219 137.277344c-10 0-20-3.234375-28.34375-9.707032-3.371094-2.613281-3.984375-7.46875-1.371094-10.839843 2.613281-3.375 7.46875-3.984375 10.839844-1.371094 11.113281 8.621094 26.636719 8.621094 37.746093 0 3.371094-2.613281 8.226563-2.003906 10.839844 1.371094 2.617188 3.371093 2.003906 8.222656-1.367187 10.839843-8.34375 6.472657-18.34375 9.707032-28.34375 9.707032zm0 0"/><path d="m148.011719 122.457031c-1.730469-2.542969-4.253907-2.847656-5.277344-2.847656s-3.589844.277344-5.277344 2.847656c-2.34375 3.566407-7.136719 4.558594-10.699219 2.214844-3.566406-2.339844-4.558593-7.132813-2.21875-10.699219 4.039063-6.144531 10.839844-9.816406 18.195313-9.816406s14.152344 3.671875 18.191406 9.816406c2.34375 3.566406 1.351563 8.359375-2.214843 10.699219-1.308594.859375-7.089844 3.085937-10.699219-2.214844zm0 0"/><path d="m314.191406 122.457031c-1.730468-2.542969-4.253906-2.847656-5.277344-2.847656-1.023437 0-3.589843.277344-5.277343 2.847656-2.34375 3.566407-7.132813 4.558594-10.699219 2.214844-3.566406-2.339844-4.558594-7.132813-2.214844-10.699219 4.035156-6.144531 10.839844-9.816406 18.191406-9.816406 7.355469 0 14.15625 3.671875 18.195313 9.816406 2.339844 3.566406 1.347656 8.359375-2.21875 10.699219-1.308594.859375-7.089844 3.085937-10.699219-2.214844zm0 0"/></g></svg>