<svg height="512pt" viewBox="0 -11 512.00047 512" width="512pt" xmlns="http://www.w3.org/2000/svg"><g fill="#6a829a"><path d="m312.269531 82.871094-15.042969-56.460938c-3.820312-14.339844-16.230468-24.765625-31.019531-25.988281-6.71875-.558594-33.980469-.5625-40.707031-.011719-14.804688 1.210938-27.234375 11.636719-31.0625 25.992188l-15.046875 56.46875zm0 0"/><path d="m179.390625 408.78125 15.046875 56.46875c3.828125 14.355469 16.257812 24.78125 31.0625 25.992188 6.726562.550781 33.9375.550781 40.660156 0 14.804688-1.207032 27.238282-11.636719 31.0625-25.992188l15.046875-56.46875zm0 0"/><path d="m408.035156 177.582031 29.21875-50.453125c7.449219-12.855468 6.023438-29.015625-3.585937-40.34375-8.792969-10.371094-18.425781-20.003906-28.796875-28.796875-11.328125-9.609375-27.492188-11.03125-40.347656-3.585937l-50.449219 29.21875zm0 0"/><path d="m83.625 314.070312-29.289062 50.574219c-7.445313 12.855469-6.03125 29.015625 3.582031 40.34375 4.367187 5.144531 23.609375 24.382813 28.753906 28.75 11.324219 9.613281 27.488281 11.03125 40.339844 3.585938l50.574219-29.292969zm0 0"/><path d="m82.875 179.386719-56.46875 15.046875c-14.355469 3.824218-24.78125 16.257812-25.992188 31.0625-.550781 6.722656-.550781 33.933594 0 40.660156 1.210938 14.804688 11.636719 27.238281 25.992188 31.0625l56.46875 15.046875zm0 0"/><path d="m177.585938 83.621094-50.574219-29.292969c-12.855469-7.445313-29.015625-6.027344-40.34375 3.585937-5.144531 4.367188-24.382813 23.605469-28.75 28.753907-9.613281 11.324219-11.03125 27.488281-3.585938 40.339843l29.292969 50.574219zm0 0"/></g><path d="m245.832031 57.175781c-104.191406 0-188.652343 84.460938-188.652343 188.648438 0 104.191406 84.460937 188.652343 188.652343 188.652343 104.1875 0 188.648438-84.460937 188.648438-188.652343 0-104.1875-84.460938-188.648438-188.648438-188.648438zm0 280.648438c-50.8125 0-92-41.1875-92-92 0-50.808594 41.1875-91.996094 92-91.996094 50.808594 0 91.996094 41.1875 91.996094 91.996094 0 50.8125-41.1875 92-91.996094 92zm0 0" fill="#a7b6c5"/><path d="m483.632812 277.894531-49.152343 117.988281-342.078125-142.617187c-14.28125-5.949219-26.6875-15.652344-35.902344-28.078125l-34.292969-46.238281c-11.714843-15.792969-2.308593-38.367188 17.152344-41.171875l56.976563-8.214844c15.3125-2.207031 30.9375-.234375 45.214843 5.714844zm0 0" fill="#ffc7a4"/><path d="m141.550781 135.277344c-4.5625-1.898438-9.261719-3.390625-14.042969-4.472656l6.722657 25.390624c1.671875 6.300782-1.09375 12.9375-6.742188 16.191407l-18.363281 10.570312c-4.785156 2.753907-7.128906 8.378907-5.714844 13.71875l5.425782 20.472657c1.667968 6.300781-1.09375 12.9375-6.746094 16.191406l-22.757813 13.101562c4.136719 2.632813 8.503907 4.921875 13.066407 6.824219l342.082031 142.617187 49.152343-117.988281zm0 0" fill="#f9ee80"/><path d="m210.695312 302.542969 223.785157 93.339843 49.152343-117.988281-200.5-83.632812c4.597657 34.355469 2.335938 97.257812-72.4375 108.28125zm0 0" fill="#eedb00"/><path d="m127.488281 172.382812-18.359375 10.570313c-4.789062 2.757813-7.132812 8.382813-5.714844 13.722656l5.421876 20.472657c.359374 1.355468.5 2.726562.464843 4.074218l339.09375 141.261719 21.402344-51.378906-339.089844-141.261719c-.929687.976562-2.003906 1.839844-3.21875 2.539062zm0 0" fill="#889cb0"/><path d="m448.394531 362.484375 21.402344-51.378906-186.511719-77.699219c-2.621094 17.832031-9.742187 36.105469-25.613281 49.625zm0 0" fill="#6a829a"/><path d="m65.445312 134.015625-26.085937 3.761719c-19.460937 2.804687-28.867187 25.378906-17.152344 41.171875l15.699219 21.167969c7.503906-7.652344 14.457031-18.191407 19.628906-30.609376 5.175782-12.417968 7.757813-24.777343 7.910156-35.492187zm0 0" fill="#516980"/><path d="m508.964844 331.304688-18.886719 45.332031c-8.355469 20.0625-31.398437 29.550781-51.460937 21.191406l-81.65625-34.015625 49.152343-117.988281 81.660157 34.019531c20.058593 8.359375 29.550781 31.398438 21.191406 51.460938zm0 0" fill="#ffb3c2"/><path d="m475.335938 369.71875c-14.035157-8.695312-17.613282-27.515625-7.707032-40.722656 12.757813-17.003906 10.734375-38.449219 10.734375-38.449219l-.574219-14.859375-71.675781-29.863281-49.152343 117.984375 81.65625 34.019531c19.921874 8.300781 42.773437-1.003906 51.277343-20.78125-5.519531-2.226563-10.355469-4.722656-14.558593-7.328125zm0 0" fill="#ff899f"/><path d="m408.785156 312.265625 56.472656-15.046875c14.351563-3.828125 24.78125-16.257812 25.992188-31.0625.550781-6.726562.542969-33.988281-.011719-40.707031-1.226562-14.785157-11.652343-27.195313-25.988281-31.015625l-56.464844-15.046875zm0 0" fill="#6a829a"/><path d="m314.074219 408.03125 50.574219 29.289062c12.855468 7.445313 29.015624 6.03125 40.34375-3.582031 5.144531-4.367187 24.382812-23.605469 28.75-28.75 9.613281-11.328125 11.03125-27.488281 3.585937-40.34375l-29.289063-50.574219zm0 0" fill="#6a829a"/><path d="m337.828125 245.824219c0 50.8125-41.1875 92-91.996094 92-.570312 0-1.128906-.03125-1.695312-.042969l36.363281 93.503906c87.625-16.277344 153.980469-93.113281 153.980469-185.460937 0-26.253907-5.367188-51.25-15.058594-73.964844l-104.449219 13.3125c14.21875 16.195313 22.855469 37.410156 22.855469 60.652344zm0 0" fill="#a7b6c5"/></svg>