<svg height="512pt" viewBox="-83 0 512 512" width="512pt" xmlns="http://www.w3.org/2000/svg"><path d="m241.445312 26.648438h104.046876v328.789062h-104.046876zm0 0" fill="#f9ee80"/><path d="m345.492188 188.484375c-50.761719 1.355469-83.898438 7.734375-104.046876 13.574219v153.378906h104.046876zm0 0" fill="#eedb00"/><path d="m213.675781 512h-77.355469c-75.289062 0-136.320312-61.03125-136.320312-136.320312 0-75.285157 61.03125-136.316407 136.320312-136.316407h77.355469c32.5625 0 58.960938 26.398438 58.960938 58.960938v154.714843c0 32.5625-26.398438 58.960938-58.960938 58.960938zm0 0" fill="#6b7d8e"/><path d="m286.53125 512h-77.355469c-75.289062 0-136.320312-61.03125-136.320312-136.320312 0-75.285157 61.03125-136.316407 136.320312-136.316407h77.355469c32.5625 0 58.960938 26.398438 58.960938 58.960938v154.714843c0 32.5625-26.398438 58.960938-58.960938 58.960938zm0 0" fill="#8697a6"/><path d="m201.441406 53.03125h144.050782v-26.382812c0-14.71875-11.929688-26.648438-26.648438-26.648438h-117.402344c-14.644531 0-26.515625 11.871094-26.515625 26.515625s11.871094 26.515625 26.515625 26.515625zm0 0" fill="#8697a6"/><path d="m241.445312 26.515625c0-14.644531 11.871094-26.515625 26.515626-26.515625h-66.519532c-14.644531 0-26.515625 11.871094-26.515625 26.515625s11.871094 26.515625 26.515625 26.515625h66.519532c-14.644532 0-26.515626-11.871094-26.515626-26.515625zm0 0" fill="#6b7d8e"/><path d="m277.90625 375.679688c0 37.960937-30.773438 68.730468-68.730469 68.730468s-68.730469-30.769531-68.730469-68.730468c0-37.957032 30.773438-68.726563 68.730469-68.726563s68.730469 30.769531 68.730469 68.726563zm0 0" fill="#f4e74d"/><path d="m209.175781 306.953125s28.441407 29.703125 28.441407 68.730469c0 39.023437-28.441407 68.726562-28.441407 68.726562 37.957031 0 68.730469-30.769531 68.730469-68.726562 0-37.960938-30.773438-68.730469-68.730469-68.730469zm0 0" fill="#dfca00"/><g fill="#6b7d8e"><path d="m306.882812 80.085938c-4.269531 0-7.726562 3.460937-7.726562 7.726562 0 4.269531 3.457031 7.726562 7.726562 7.726562h38.609376v-15.453124zm0 0"/><path d="m318.488281 121.636719c-4.269531 0-7.726562 3.460937-7.726562 7.726562 0 4.269531 3.457031 7.726563 7.726562 7.726563h27.003907v-15.453125zm0 0"/><path d="m306.882812 163.1875c-4.269531 0-7.726562 3.457031-7.726562 7.726562 0 4.265626 3.457031 7.726563 7.726562 7.726563h38.609376v-15.453125zm0 0"/><path d="m318.488281 204.734375c-4.269531 0-7.726562 3.460937-7.726562 7.726563 0 4.269531 3.457031 7.726562 7.726562 7.726562h27.003907v-15.453125zm0 0"/></g></svg>