<svg height="511pt" viewBox="0 -8 511.99936 511" width="511pt" xmlns="http://www.w3.org/2000/svg"><path d="m498.34375 140.074219-42.304688-42.308594c-18.207031-18.203125-47.722656-18.203125-65.929687 0l-276.019531 276.023437c-18.207032 18.207032-18.207032 47.722657 0 65.929688l42.304687 42.304688c18.207031 18.207031 47.722657 18.207031 65.929688 0l276.019531-276.019532c18.207031-18.207031 18.207031-47.726562 0-65.929687zm-346.359375 283.003906c-9.683594-9.683594-9.683594-25.386719 0-35.074219 9.6875-9.6875 25.390625-9.6875 35.078125 0 9.683594 9.683594 9.683594 25.390625 0 35.074219-9.6875 9.6875-25.390625 9.6875-35.078125 0zm0 0" fill="#f9ee80"/><path d="m145.304688 410.875c-1.75-7.984375.472656-16.664062 6.679687-22.871094 6.152344-6.148437 14.726563-8.386718 22.644531-6.730468l249.496094-249.492188c18.207031-18.207031 47.722656-18.207031 65.929688 0l-34.015626-34.015625c-18.207031-18.203125-47.722656-18.203125-65.929687 0l-276.019531 276.023437c-18.207032 18.207032-18.207032 47.722657 0 65.929688l34.011718 34.015625c-17.214843-17.21875-18.140624-44.542969-2.796874-62.859375zm0 0" fill="#eedb00"/><g fill="#6b7d8e"><path d="m449.355469 168.804688c-7.015625-7.015626-18.390625-7.015626-25.40625 0-7.015625 7.015624-7.015625 18.390624 0 25.40625l43.09375 43.09375 25.40625-25.40625zm0 0"/><path d="m416.800781 232.535156c-7.015625-7.015625-18.386719-7.015625-25.402343 0-7.015626 7.015625-7.015626 18.390625 0 25.40625l27.503906 27.503906 25.402344-25.40625zm0 0"/><path d="m353.070312 265.089844c-7.015624-7.015625-18.390624-7.015625-25.40625 0-7.015624 7.015625-7.015624 18.386718 0 25.402344l43.09375 43.097656 25.40625-25.40625zm0 0"/><path d="m320.519531 328.820312c-7.015625-7.015624-18.390625-7.015624-25.40625 0-7.015625 7.015626-7.015625 18.390626 0 25.40625l27.503907 27.503907 25.40625-25.40625zm0 0"/><path d="m256.785156 361.371094c-7.015625-7.015625-18.386718-7.015625-25.402344 0-7.015624 7.015625-7.015624 18.390625 0 25.40625l43.09375 43.09375 25.40625-25.40625zm0 0"/></g><path d="m312.8125 63.324219 7.601562-36.074219c3.304688-15.667969-10.589843-29.5625-26.257812-26.261719l-36.078125 7.605469c-13.96875 2.941406-26.777344 9.882812-36.871094 19.976562l-189.800781 189.804688 71.625 71.625 189.804688-189.800781c10.09375-10.09375 17.035156-22.90625 19.976562-36.875zm0 0" fill="#ffbe73"/><path d="m37.828125 312.578125-29-29c-11.769531-11.769531-11.769531-30.855469 0-42.628906l66.46875-66.46875 71.628906 71.628906-66.472656 66.46875c-11.769531 11.773437-30.855469 11.773437-42.625 0zm0 0" fill="#ffabcd"/><path d="m8.828125 240.953125c-11.769531 11.769531-11.769531 30.855469 0 42.625l6.53125 6.53125c10.386719-13.945313 30.992187-17.519531 45.816406-6.417969 21.816407 16.335938 32.363281 15.800782 32.363281 15.800782l53.386719-53.382813-71.628906-71.625zm0 0" fill="#ff83b4"/><path d="m277.277344 68.421875-1.722656-14.335937c-.519532-4.316407-3.925782-7.722657-8.242188-8.238282l-14.332031-1.722656c-5.34375-.640625-9.558594-4.855469-10.203125-10.199219l-2.304688-19.210937c-7.09375 3.527344-13.609375 8.195312-19.265625 13.855468l-189.800781 189.804688 71.625 71.625 189.804688-189.800781c5.660156-5.660157 10.328124-12.175781 13.855468-19.269531l-19.214844-2.308594c-5.34375-.640625-9.558593-4.855469-10.199218-10.199219zm0 0" fill="#f9ee80"/><path d="m49.972656 236.9375 34.496094 34.496094 196.144531-196.144532c-1.800781-1.804687-3.015625-4.191406-3.335937-6.867187l-1.722656-14.332031c-.515626-4.320313-3.921876-7.722656-8.238282-8.242188l-14.332031-1.71875c-2.671875-.324218-5.0625-1.535156-6.867187-3.339844zm0 0" fill="#76e7e7"/><path d="m99.015625 290.929688-68.539063-68.539063c-9.230468-9.230469-9.230468-24.191406 0-33.417969 9.226563-9.230468 24.191407-9.230468 33.417969 0l68.539063 68.539063c9.230468 9.226562 9.230468 24.191406 0 33.417969-9.226563 9.226562-24.1875 9.226562-33.417969 0zm0 0" fill="#8697a6"/><path d="m60.929688 219.421875c9.226562-9.226563 24.191406-9.226563 33.417968 0l-30.453125-30.449219c-9.226562-9.230468-24.1875-9.230468-33.417969 0-9.226562 9.226563-9.226562 24.1875 0 33.417969l30.453126 30.449219c-9.230469-9.226563-9.230469-24.1875 0-33.417969zm0 0" fill="#6b7d8e"/><path d="m316.464844 46 3.953125-18.75c3.300781-15.667969-10.589844-29.5625-26.257813-26.261719l-18.753906 3.953125c3.613281 7.699219 9.511719 16.046875 17.261719 23.796875s16.09375 13.648438 23.796875 17.261719zm0 0" fill="#8697a6"/></svg>