<svg height="512pt" viewBox="-4 0 512 512" width="512pt" xmlns="http://www.w3.org/2000/svg"><path d="m55.371094 175.910156-19.078125-31.554687 137.65625-83.226563c4.828125-2.917968 10.730469-3.46875 16.011719-1.484375l129.234374 48.460938 129.980469-79.582031 19.253907 31.445312-137.65625 84.28125c-4.84375 2.964844-10.785157 3.53125-16.101563 1.539062l-129.289063-48.484374zm0 0" fill="#6380d2"/><path d="m73.722656 249.679688h-55.78125c-9.90625 0-17.941406 8.03125-17.941406 17.941406v226.4375c0 9.90625 8.035156 17.941406 17.941406 17.941406h55.78125c9.90625 0 17.941406-8.035156 17.941406-17.941406v-226.4375c0-9.910156-8.035156-17.941406-17.941406-17.941406zm0 0" fill="#76e6d5"/><path d="m30.90625 494.058594v-226.4375c0-9.910156 8.03125-17.941406 17.941406-17.941406h-30.90625c-9.90625 0-17.941406 8.03125-17.941406 17.941406v226.4375c0 9.90625 8.035156 17.941406 17.941406 17.941406h30.90625c-9.910156 0-17.941406-8.035156-17.941406-17.941406zm0 0" fill="#00ccac"/><path d="m90.078125 160.132812c0 24.4375-19.808594 44.246094-44.246094 44.246094s-44.246093-19.808594-44.246093-44.246094 19.808593-44.25 44.246093-44.25 44.246094 19.8125 44.246094 44.25zm0 0" fill="#76e6d5"/><path d="m66.433594 183.773438c-24.433594 0-44.246094-19.808594-44.246094-44.246094 0-6.898438 1.582031-13.425782 4.394531-19.246094-14.792969 7.15625-24.996093 22.3125-24.996093 39.851562 0 24.433594 19.808593 44.246094 44.246093 44.246094 17.539063 0 32.691407-10.207031 39.851563-25-5.820313 2.816406-12.351563 4.394532-19.25 4.394532zm0 0" fill="#00ccac"/><path d="m211.378906 166.453125h-55.78125c-9.90625 0-17.941406 8.03125-17.941406 17.941406v309.664063c0 9.90625 8.035156 17.941406 17.941406 17.941406h55.78125c9.90625 0 17.941406-8.035156 17.941406-17.941406v-309.664063c0-9.910156-8.035156-17.941406-17.941406-17.941406zm0 0" fill="#b1e2fd"/><path d="m168.5625 494.058594v-309.664063c0-9.910156 8.03125-17.941406 17.941406-17.941406h-30.90625c-9.90625 0-17.941406 8.03125-17.941406 17.941406v309.664063c0 9.90625 8.035156 17.941406 17.941406 17.941406h30.90625c-9.910156 0-17.941406-8.035156-17.941406-17.941406zm0 0" fill="#80c4e6"/><path d="m227.734375 76.90625c0 24.4375-19.808594 44.246094-44.246094 44.246094s-44.246093-19.808594-44.246093-44.246094 19.808593-44.25 44.246093-44.25 44.246094 19.8125 44.246094 44.25zm0 0" fill="#b1e2fd"/><path d="m204.09375 100.546875c-24.4375 0-44.25-19.808594-44.25-44.246094 0-6.898437 1.582031-13.425781 4.398438-19.246093-14.796876 7.15625-25 22.3125-25 39.851562 0 24.4375 19.808593 44.246094 44.246093 44.246094 17.539063 0 32.691407-10.203125 39.851563-25-5.820313 2.816406-12.347656 4.394531-19.246094 4.394531zm0 0" fill="#80c4e6"/><path d="m349.035156 218.074219h-55.777344c-9.910156 0-17.945312 8.03125-17.945312 17.941406v258.042969c0 9.90625 8.035156 17.941406 17.945312 17.941406h55.777344c9.910156 0 17.941406-8.035156 17.941406-17.941406v-258.042969c0-9.910156-8.03125-17.941406-17.941406-17.941406zm0 0" fill="#f5e277"/><path d="m306.21875 494.058594v-258.042969c0-9.910156 8.035156-17.941406 17.945312-17.941406h-30.90625c-9.910156 0-17.941406 8.03125-17.941406 17.941406v258.042969c0 9.90625 8.03125 17.941406 17.941406 17.941406h30.90625c-9.910156 0-17.945312-8.035156-17.945312-17.941406zm0 0" fill="#fab659"/><path d="m365.394531 128.527344c0 24.4375-19.8125 44.246094-44.25 44.246094s-44.246093-19.808594-44.246093-44.246094 19.808593-44.25 44.246093-44.25 44.25 19.8125 44.25 44.25zm0 0" fill="#f5e277"/><path d="m341.75 152.171875c-24.4375 0-44.25-19.8125-44.25-44.25 0-6.898437 1.582031-13.425781 4.398438-19.246094-14.796876 7.160157-25 22.3125-25 39.851563 0 24.4375 19.808593 44.246094 44.246093 44.246094 17.539063 0 32.691407-10.203126 39.851563-25-5.820313 2.816406-12.347656 4.398437-19.246094 4.398437zm0 0" fill="#fab659"/><path d="m486.691406 133.792969h-55.777344c-9.910156 0-17.941406 8.035156-17.941406 17.945312v342.320313c0 9.90625 8.03125 17.941406 17.941406 17.941406h55.777344c9.910156 0 17.941406-8.035156 17.941406-17.941406v-342.320313c0-9.910156-8.03125-17.945312-17.941406-17.945312zm0 0" fill="#fd99c8"/><path d="m443.878906 494.058594v-342.320313c0-9.910156 8.03125-17.945312 17.941406-17.945312h-30.90625c-9.910156 0-17.941406 8.035156-17.941406 17.945312v342.320313c0 9.90625 8.03125 17.941406 17.941406 17.941406h30.90625c-9.910156 0-17.941406-8.035156-17.941406-17.941406zm0 0" fill="#e8738b"/><path d="m503.050781 44.246094c0 24.4375-19.8125 44.25-44.25 44.25-24.433593 0-44.246093-19.8125-44.246093-44.25s19.8125-44.246094 44.246093-44.246094c24.4375 0 44.25 19.808594 44.25 44.246094zm0 0" fill="#fd99c8"/><path d="m479.40625 67.890625c-24.4375 0-44.246094-19.8125-44.246094-44.246094 0-6.902343 1.578125-13.429687 4.394532-19.25-14.796876 7.160157-25 22.3125-25 39.851563 0 24.4375 19.8125 44.246094 44.246093 44.246094 17.539063 0 32.695313-10.203126 39.851563-25-5.820313 2.816406-12.347656 4.398437-19.246094 4.398437zm0 0" fill="#e8738b"/></svg>