<svg height="512pt" viewBox="0 0 512 512" width="512pt" xmlns="http://www.w3.org/2000/svg"><path d="m316.824219 0h-242.632813c-40.976562 0-74.191406 33.214844-74.191406 74.191406v363.617188c0 40.976562 33.214844 74.191406 74.191406 74.191406h363.617188c40.976562 0 74.191406-33.214844 74.191406-74.191406v-242.632813c0-29.957031-11.898438-58.6875-33.082031-79.871093l-82.222657-82.222657c-21.183593-21.179687-49.914062-33.082031-79.871093-33.082031zm0 0" fill="#8ed7e8"/><path d="m180.351562 108.992188c-3.921874-61.148438 5.875-93.03125 14.71875-108.992188h-120.878906c-40.976562 0-74.191406 33.214844-74.191406 74.191406v363.617188c0 40.972656 33.214844 74.191406 74.191406 74.191406h128.949219c22.367187-210.878906-16.738281-308.589844-22.789063-403.007812zm0 0" fill="#7ac1dd"/><path d="m154.21875 190.667969h165.425781c19.785157 0 35.824219-16.039063 35.824219-35.828125v-148.007813c-12.269531-4.472656-25.332031-6.832031-38.644531-6.832031h-198.433594v154.839844c0 19.789062 16.042969 35.828125 35.828125 35.828125zm0 0" fill="#eaeaea"/><path d="m371.078125 241.574219h-230.15625c-24.105469 0-43.644531 19.542969-43.644531 43.644531v226.78125h317.445312v-226.78125c0-24.105469-19.539062-43.644531-43.644531-43.644531zm0 0" fill="#ccf8ff"/><path d="m199.015625 241.574219h-58.09375c-24.105469 0-43.644531 19.542969-43.644531 43.644531v226.78125h105.863281c12.738281-120.066406 5.550781-203.457031-4.125-270.425781zm0 0" fill="#abebf4"/><path d="m307.414062 190.667969v-116.617188c0-16.207031-13.136718-29.339843-29.339843-29.339843h-40.550781c-16.207032 0-29.339844 13.132812-29.339844 29.339843v116.617188zm0 0" fill="#acabb1"/><path d="m350.285156 392.242188h-188.570312c-8.535156 0-15.453125-6.921876-15.453125-15.453126 0-8.535156 6.917969-15.453124 15.453125-15.453124h188.570312c8.53125 0 15.453125 6.917968 15.453125 15.453124 0 8.53125-6.917969 15.453126-15.453125 15.453126zm0 0" fill="#c6c5ca"/><path d="m350.285156 318.449219h-188.570312c-8.535156 0-15.453125-6.917969-15.453125-15.453125s6.917969-15.453125 15.453125-15.453125h188.570312c8.53125 0 15.453125 6.917969 15.453125 15.453125s-6.917969 15.453125-15.453125 15.453125zm0 0" fill="#c6c5ca"/><path d="m264.164062 466.03125h-102.449218c-8.53125 0-15.453125-6.917969-15.453125-15.453125s6.921875-15.453125 15.453125-15.453125h102.449218c8.535157 0 15.453126 6.917969 15.453126 15.453125s-6.917969 15.453125-15.453126 15.453125zm0 0" fill="#c6c5ca"/><g fill="#acabb1"><path d="m208.96875 435.125h-47.253906c-8.535156 0-15.453125 6.917969-15.453125 15.453125s6.917969 15.453125 15.453125 15.453125h45.492187c.742188-10.605469 1.328125-20.90625 1.761719-30.90625zm0 0"/><path d="m146.261719 376.789062c0 8.53125 6.917969 15.453126 15.453125 15.453126h48.265625c.035156-10.652344-.089844-20.949219-.363281-30.90625h-47.902344c-8.535156 0-15.453125 6.917968-15.453125 15.453124zm0 0"/><path d="m204.769531 287.542969h-43.054687c-8.535156 0-15.453125 6.917969-15.453125 15.453125s6.917969 15.453125 15.453125 15.453125h45.773437c-.773437-10.691407-1.6875-20.984375-2.71875-30.90625zm0 0"/></g><path d="m180.351562 108.992188c-3.921874-61.148438 5.875-93.03125 14.71875-108.992188h-76.679687v154.839844c0 19.789062 16.042969 35.828125 35.828125 35.828125h36.78125c-4.746094-29.042969-8.972656-55.484375-10.648438-81.675781zm0 0" fill="#d8d7da"/></svg>