<svg height="512pt" viewBox="-22 0 512 512" width="512pt" xmlns="http://www.w3.org/2000/svg"><path d="m467.042969 434.160156c0-42.992187-104.550781-77.839844-233.523438-77.839844-128.96875 0-233.519531 34.847657-233.519531 77.839844 0 42.988282 104.550781 77.839844 233.519531 77.839844 128.972657 0 233.523438-34.851562 233.523438-77.839844zm0 0" fill="#ccf8ff"/><path d="m233.519531 356.320312c-128.96875 0-233.519531 34.847657-233.519531 77.839844 0 30.046875 51.070312 56.121094 125.867188 69.09375 97.574218-22.777344 132.871093-75.230468 132.871093-75.230468v-71.253907c-8.285156-.296875-16.695312-.449219-25.21875-.449219zm0 0" fill="#abebf4"/><path d="m233.519531 0c-94.574219 0-171.246093 76.671875-171.246093 171.25 0 63.46875 77.121093 174.960938 127.855468 241.4375 21.847656 28.628906 64.9375 28.628906 86.785156 0 50.734376-66.476562 127.855469-177.96875 127.855469-241.4375 0-94.578125-76.671875-171.25-171.25-171.25zm0 252.367188c-44.796875 0-81.117187-36.320313-81.117187-81.117188 0-44.800781 36.320312-81.117188 81.117187-81.117188 44.800781 0 81.121094 36.316407 81.121094 81.117188 0 44.796875-36.320313 81.117188-81.121094 81.117188zm0 0" fill="#ff929f"/><path d="m191.542969 240.671875c-23.460938-14.214844-39.140625-39.988281-39.140625-69.421875-17.429688-82.421875 27.839844-162.527344 28.027344-162.859375-68.582032 22.347656-118.15625 86.816406-118.15625 162.859375 0 63.46875 77.121093 174.960938 127.855468 241.441406 21.847656 28.625 64.9375 28.625 86.785156 0 7.945313-10.410156 16.53125-21.917968 25.371094-34.175781-28.398437-51.050781-76.371094-95.671875-110.742187-137.84375zm0 0" fill="#ff737d"/></svg>