<svg height="512.00026pt" viewBox="0 0 512.00026 512.00026" width="512.00026pt" xmlns="http://www.w3.org/2000/svg"><path d="m500.242188 500.242188c-15.679688 15.675781-41.332032 15.675781-57.011719 0l-89.464844-89.464844c-15.675781-15.679688-15.675781-41.332032 0-57.011719 15.679687-15.675781 41.332031-15.675781 57.011719 0l89.464844 89.464844c15.675781 15.679687 15.675781 41.332031 0 57.011719zm0 0" fill="#9ad880"/><path d="m410.777344 353.765625c-15.679688-15.679687-41.332032-15.679687-57.011719 0s-15.679687 41.332031 0 57.011719l60.445313 60.445312c22.871093-21.59375 34.628906-50.140625 40.667968-73.355468zm0 0" fill="#8dc971"/><path d="m418.019531 386.675781-31.34375 31.34375c-21.636719 21.636719-56.71875 21.636719-78.355469 0l-47.03125-47.03125 109.699219-109.699219 47.03125 47.03125c21.636719 21.636719 21.636719 56.71875 0 78.355469zm0 0" fill="#ffeb99"/><path d="m405.058594 399.636719c-18.730469-4.351563-28.378906-25.539063-19.554688-42.90625 10.054688-19.785157 11.945313-40.574219 11.945313-40.574219l-32.316407-49.007812-103.84375 103.839843 47.03125 47.03125c21.636719 21.636719 56.71875 21.636719 78.355469 0zm0 0" fill="#ffde55"/><path d="m424.546875 212.273438c0 117.234374-95.039063 212.273437-212.273437 212.273437-117.234376 0-212.273438-95.039063-212.273438-212.273437 0-117.234376 95.039062-212.273438 212.273438-212.273438 117.234374 0 212.273437 95.039062 212.273437 212.273438zm0 0" fill="#b2e59c"/><path d="m339.664062 382.105469c-236.828124-37.050781-234.554687-278.300781-227.296874-357.1875-18.039063 9.628906-34.984376 22.054687-50.195313 37.265625-82.894531 82.894531-82.894531 217.300781 0 300.199218 75.695313 75.691407 194.335937 82.257813 277.492187 19.722657zm0 0" fill="#9ad880"/><path d="m321.1875 321.1875c-60.054688 60.058594-157.773438 60.058594-217.832031.003906-60.054688-60.058594-60.054688-157.777344.003906-217.832031 60.054687-60.058594 157.773437-60.058594 217.828125 0 60.058594 60.054687 60.058594 157.773437 0 217.828125zm0 0" fill="#ccf8ff"/><path d="m260.113281 358.667969c-117.222656-54.34375-145.289062-175.773438-149.332031-262.265625-2.53125 2.21875-5.011719 4.546875-7.421875 6.957031-60.058594 60.058594-60.058594 157.777344-.003906 217.832031 42.328125 42.328125 103.382812 54.8125 156.757812 37.476563zm0 0" fill="#abebf4"/><path d="m212.273438 258.707031c-15.988282 0-28.949219-12.960937-28.949219-28.949219v-21.046874c0-4.363282 3.539062-7.902344 7.902343-7.902344h42.09375c4.363282 0 7.902344 3.539062 7.902344 7.902344v21.046874c0 15.988282-12.960937 28.949219-28.949218 28.949219zm0 0" fill="#57565c"/><path d="m146.320312 229.757812c0-13.582031-13.824218-24.589843-30.878906-24.589843-17.054687 0-30.878906 11.007812-30.878906 24.589843 0 13.578126 13.824219 24.589844 30.878906 24.589844 17.054688 0 30.878906-11.011718 30.878906-24.589844zm0 0" fill="#ffa6bb"/><path d="m339.984375 229.757812c0-13.582031-13.824219-24.589843-30.878906-24.589843-17.054688 0-30.878907 11.007812-30.878907 24.589843 0 13.578126 13.824219 24.589844 30.878907 24.589844 17.054687 0 30.878906-11.011718 30.878906-24.589844zm0 0" fill="#ffa6bb"/><g fill="#57565c"><path d="m295.363281 216.257812c-4.265625 0-7.726562-3.457031-7.726562-7.726562v-12.824219c0-4.269531 3.460937-7.726562 7.726562-7.726562 4.269531 0 7.726563 3.457031 7.726563 7.726562v12.824219c0 4.269531-3.457032 7.726562-7.726563 7.726562zm0 0"/><path d="m129.183594 216.257812c-4.269532 0-7.726563-3.457031-7.726563-7.726562v-12.824219c0-4.269531 3.457031-7.726562 7.726563-7.726562 4.265625 0 7.726562 3.457031 7.726562 7.726562v12.824219c0 4.269531-3.460937 7.726562-7.726562 7.726562zm0 0"/></g></svg>