<?xml version="1.0" encoding="iso-8859-1"?>
<!-- Generator: Adobe Illustrator 19.0.0, SVG Export Plug-In . SVG Version: 6.00 Build 0)  -->
<svg version="1.1" id="Layer_1" xmlns="http://www.w3.org/2000/svg" xmlns:xlink="http://www.w3.org/1999/xlink" x="0px" y="0px"
	 viewBox="0 0 512 512" style="enable-background:new 0 0 512 512;" xml:space="preserve">
<g>
	<path style="fill:#5C5F66;" d="M150.261,144.696c-9.217,0-16.696-7.473-16.696-16.696V16.696C133.565,7.473,141.044,0,150.261,0
		s16.696,7.473,16.696,16.696V128C166.957,137.223,159.478,144.696,150.261,144.696z"/>
	<path style="fill:#5C5F66;" d="M150.261,411.826c-9.217,0-16.696-7.473-16.696-16.696V294.957c0-9.223,7.479-16.696,16.696-16.696
		s16.696,7.473,16.696,16.696V395.13C166.957,404.353,159.478,411.826,150.261,411.826z"/>
</g>
<g>
	<path style="fill:#53565C;" d="M166.957,395.13V294.957c0-9.223-7.479-16.696-16.696-16.696v133.565
		C159.478,411.826,166.957,404.353,166.957,395.13z"/>
	<path style="fill:#53565C;" d="M166.957,128V16.696C166.957,7.473,159.478,0,150.261,0v144.696
		C159.478,144.696,166.957,137.223,166.957,128z"/>
</g>
<path style="fill:#EC7838;" d="M150.261,311.652c-27.619,0-50.087-22.468-50.087-50.087V161.391
	c0-27.619,22.468-50.087,50.087-50.087s50.087,22.468,50.087,50.087v100.174C200.348,289.184,177.88,311.652,150.261,311.652z"/>
<path style="fill:#DB632C;" d="M200.348,261.565V161.391c0-27.619-22.468-50.087-50.087-50.087v200.348
	C177.88,311.652,200.348,289.184,200.348,261.565z"/>
<g>
	<path style="fill:#5C5F66;" d="M283.826,244.87c-9.217,0-16.696-7.473-16.696-16.696V116.87c0-9.223,7.479-16.696,16.696-16.696
		c9.217,0,16.696,7.473,16.696,16.696v111.304C300.522,237.397,293.043,244.87,283.826,244.87z"/>
	<path style="fill:#5C5F66;" d="M283.826,512c-9.217,0-16.696-7.473-16.696-16.696V395.13c0-9.223,7.479-16.696,16.696-16.696
		c9.217,0,16.696,7.473,16.696,16.696v100.174C300.522,504.527,293.043,512,283.826,512z"/>
</g>
<g>
	<path style="fill:#53565C;" d="M300.522,495.304V395.13c0-9.223-7.479-16.696-16.696-16.696V512
		C293.043,512,300.522,504.527,300.522,495.304z"/>
	<path style="fill:#53565C;" d="M300.522,228.174V116.87c0-9.223-7.479-16.696-16.696-16.696V244.87
		C293.043,244.87,300.522,237.397,300.522,228.174z"/>
</g>
<path style="fill:#7BCC29;" d="M283.826,411.826c-27.619,0-50.087-22.468-50.087-50.087V261.565
	c0-27.619,22.468-50.087,50.087-50.087s50.087,22.468,50.087,50.087v100.174C333.913,389.358,311.445,411.826,283.826,411.826z"/>
<path style="fill:#6EB825;" d="M333.913,361.739V261.565c0-27.619-22.468-50.087-50.087-50.087v200.348
	C311.445,411.826,333.913,389.358,333.913,361.739z"/>
<g>
	<path style="fill:#5C5F66;" d="M417.391,144.696c-9.217,0-16.696-7.473-16.696-16.696V16.696C400.696,7.473,408.174,0,417.391,0
		c9.217,0,16.696,7.473,16.696,16.696V128C434.087,137.223,426.608,144.696,417.391,144.696z"/>
	<path style="fill:#5C5F66;" d="M417.391,411.826c-9.217,0-16.696-7.473-16.696-16.696V294.957c0-9.223,7.479-16.696,16.696-16.696
		c9.217,0,16.696,7.473,16.696,16.696V395.13C434.087,404.353,426.608,411.826,417.391,411.826z"/>
	<path style="fill:#5C5F66;" d="M434.087,395.13V294.957c0-9.223-7.479-16.696-16.696-16.696v133.565
		C426.608,411.826,434.087,404.353,434.087,395.13z"/>
	<path style="fill:#5C5F66;" d="M434.087,128V16.696C434.087,7.473,426.608,0,417.391,0v144.696
		C426.608,144.696,434.087,137.223,434.087,128z"/>
</g>
<path style="fill:#4DA6FF;" d="M417.391,311.652c-27.619,0-50.087-22.468-50.087-50.087V161.391
	c0-27.619,22.468-50.087,50.087-50.087c27.619,0,50.087,22.468,50.087,50.087v100.174
	C467.478,289.184,445.01,311.652,417.391,311.652z"/>
<path style="fill:#4596E6;" d="M467.478,261.565V161.391c0-27.619-22.468-50.087-50.087-50.087v200.348
	C445.01,311.652,467.478,289.184,467.478,261.565z"/>
<path style="fill:#5C5F66;" d="M495.304,512H16.696C7.479,512,0,504.527,0,495.304V16.696C0,7.473,7.479,0,16.696,0
	s16.696,7.473,16.696,16.696v461.913h461.913c9.217,0,16.696,7.473,16.696,16.696S504.521,512,495.304,512z"/>
<path style="fill:#53565C;" d="M495.304,478.609H283.826V512h211.478c9.217,0,16.696-7.473,16.696-16.696
	S504.521,478.609,495.304,478.609z"/>
<g>
</g>
<g>
</g>
<g>
</g>
<g>
</g>
<g>
</g>
<g>
</g>
<g>
</g>
<g>
</g>
<g>
</g>
<g>
</g>
<g>
</g>
<g>
</g>
<g>
</g>
<g>
</g>
<g>
</g>
</svg>
