<svg height="512pt" viewBox="-44 0 512 512" width="512pt" xmlns="http://www.w3.org/2000/svg"><path d="m374.261719 0h-323.53125c-28.019531 0-50.730469 22.710938-50.730469 50.730469v410.539062c0 28.019531 22.710938 50.730469 50.730469 50.730469h323.527343c28.019532 0 50.730469-22.710938 50.730469-50.730469v-410.539062c.003907-28.019531-22.710937-50.730469-50.726562-50.730469zm0 0" fill="#6380d2"/><path d="m61.3125 175.128906c-2.410156 0-4.371094-1.960937-4.371094-4.371094v-120.027343c0-2.410157 1.960938-4.371094 4.371094-4.371094h302.363281c2.414063 0 4.375 1.960937 4.375 4.371094v120.027343c0 2.410157-1.960937 4.371094-4.375 4.371094zm0 0" fill="#76e6d5"/><path d="m87.847656 170.757812v-120.027343c0-2.410157 1.960938-4.371094 4.371094-4.371094h-30.90625c-2.410156 0-4.371094 1.960937-4.371094 4.371094v120.027343c0 2.410157 1.960938 4.371094 4.371094 4.371094h30.90625c-2.410156 0-4.371094-1.960937-4.371094-4.371094zm0 0" fill="#00ccac"/><g fill="#4b5562"><path d="m138.148438 123.746094c-4.265626 0-7.726563-3.460938-7.726563-7.726563v-13.453125c0-4.269531 3.460937-7.726562 7.726563-7.726562 4.269531 0 7.726562 3.457031 7.726562 7.726562v13.453125c0 4.265625-3.457031 7.726563-7.726562 7.726563zm0 0"/><path d="m286.84375 123.746094c-4.269531 0-7.726562-3.460938-7.726562-7.726563v-13.453125c0-4.269531 3.457031-7.726562 7.726562-7.726562 4.265625 0 7.726562 3.457031 7.726562 7.726562v13.453125c0 4.265625-3.460937 7.726563-7.726562 7.726563zm0 0"/><path d="m212.496094 130.929688c-9.378906 0-18.191406-3.921876-24.167969-10.761719-2.808594-3.210938-2.480469-8.09375.730469-10.902344 3.214844-2.808594 8.09375-2.480469 10.902344.734375 3.042968 3.480469 7.613281 5.476562 12.535156 5.476562s9.488281-1.996093 12.53125-5.476562c2.808594-3.214844 7.691406-3.542969 10.902344-.734375 3.214843 2.808594 3.542968 7.691406.734374 10.902344-5.980468 6.839843-14.789062 10.761719-24.167968 10.761719zm0 0"/></g><path d="m166.453125 210.507812h-85.070313c-13.496093 0-24.441406 10.941407-24.441406 24.441407v67.808593c0 13.5 10.945313 24.441407 24.441406 24.441407h85.070313c13.5 0 24.445313-10.941407 24.445313-24.441407v-67.808593c-.003907-13.5-10.945313-24.441407-24.445313-24.441407zm0 0" fill="#b1e2fd"/><path d="m87.847656 302.753906v-67.804687c0-13.5 10.941406-24.441407 24.441406-24.441407h-30.90625c-13.496093 0-24.441406 10.941407-24.441406 24.441407v67.804687c0 13.5 10.945313 24.445313 24.441406 24.445313h30.90625c-13.5 0-24.441406-10.945313-24.441406-24.445313zm0 0" fill="#80c4e6"/><path d="m114.929688 295.570312v-17.8125h-17.8125c-3.992188 0-6.65625-3.496093-6.65625-8.824218 0-4.992188 2.664062-8.988282 6.65625-8.988282h17.8125v-17.644531c0-3.496093 3.996093-6.824219 8.988281-6.824219 5.328125 0 8.824219 3.328126 8.824219 6.824219v17.644531h17.644531c3.496093 0 6.988281 3.996094 6.988281 8.988282 0 5.328125-3.496094 8.824218-6.988281 8.824218h-17.644531v17.8125c0 3.992188-3.496094 6.65625-8.824219 6.65625-4.992188 0-8.988281-2.660156-8.988281-6.65625zm0 0" fill="#fff"/><path d="m343.609375 210.507812h-85.070313c-13.5 0-24.445312 10.941407-24.445312 24.441407v67.808593c0 13.5 10.945312 24.441407 24.445312 24.441407h85.070313c13.496094 0 24.441406-10.941407 24.441406-24.441407v-67.808593c0-13.5-10.945312-24.441407-24.441406-24.441407zm0 0" fill="#fd99c8"/><path d="m265 302.753906v-67.804687c0-13.5 10.945312-24.441407 24.445312-24.441407h-30.90625c-13.5 0-24.445312 10.941407-24.445312 24.441407v67.804687c0 13.5 10.945312 24.445313 24.445312 24.445313h30.90625c-13.503906 0-24.445312-10.945313-24.445312-24.445313zm0 0" fill="#e8738b"/><path d="m279.265625 259.945312h43.28125c3.492187 0 6.988281 3.996094 6.988281 8.988282 0 5.328125-3.496094 8.824218-6.988281 8.824218h-43.28125c-3.996094 0-6.65625-3.496093-6.65625-8.824218 0-4.992188 2.660156-8.988282 6.65625-8.988282zm0 0" fill="#fff"/><path d="m166.453125 361.484375h-85.070313c-13.496093 0-24.441406 10.945313-24.441406 24.441406v67.808594c0 13.5 10.945313 24.441406 24.441406 24.441406h85.070313c13.5 0 24.445313-10.941406 24.445313-24.441406v-67.808594c-.003907-13.496093-10.945313-24.441406-24.445313-24.441406zm0 0" fill="#f5e277"/><path d="m87.847656 453.734375v-67.808594c0-13.5 10.941406-24.441406 24.441406-24.441406h-30.90625c-13.496093 0-24.441406 10.941406-24.441406 24.441406v67.808594c0 13.5 10.945313 24.441406 24.441406 24.441406h30.90625c-13.5 0-24.441406-10.941406-24.441406-24.441406zm0 0" fill="#fab659"/><path d="m97.96875 439.8125 14.828125-20.734375-13.824219-19.230469c-.378906-.503906-1.003906-1.632812-1.003906-2.640625 0-3.769531 6.53125-8.164062 10.804688-8.164062.753906 0 2.640624.125 3.644531 1.757812l11.4375 18.347657 11.5625-18.222657c.878906-1.382812 2.636719-1.882812 3.769531-1.882812 3.894531 0 10.683594 4.398437 10.683594 8.164062 0 .882813-.378906 1.636719-1.007813 2.640625l-13.949219 19.355469 14.957032 20.609375c.5.503906 1.003906 1.632812 1.003906 2.765625 0 3.519531-6.28125 8.042969-10.554688 8.042969-1.257812 0-2.890624-.503906-3.773437-1.761719l-12.691406-19.101563-12.566407 19.101563c-.882812 1.257813-2.765624 1.761719-4.023437 1.761719-3.394531 0-10.304687-4.273438-10.304687-8.042969 0-1.007813.378906-2.011719 1.007812-2.765625zm0 0" fill="#fff"/><path d="m343.609375 361.484375h-85.070313c-13.5 0-24.445312 10.945313-24.445312 24.441406v67.808594c0 13.5 10.945312 24.441406 24.445312 24.441406h85.070313c13.496094 0 24.441406-10.941406 24.441406-24.441406v-67.808594c0-13.496093-10.945312-24.441406-24.441406-24.441406zm0 0" fill="#76e6d5"/><path d="m265 453.734375v-67.808594c0-13.5 10.945312-24.441406 24.445312-24.441406h-30.90625c-13.5 0-24.445312 10.941406-24.445312 24.441406v67.808594c0 13.5 10.945312 24.441406 24.445312 24.441406h30.90625c-13.503906 0-24.445312-10.941406-24.445312-24.441406zm0 0" fill="#00ccac"/><path d="m279.433594 394.027344h42.945312c3.496094 0 6.992188 3.996094 6.992188 8.992187 0 5.328125-3.496094 8.820313-6.992188 8.820313h-42.945312c-3.996094 0-6.660156-3.496094-6.660156-8.820313 0-4.996093 2.664062-8.992187 6.660156-8.992187zm0 33.792968h42.945312c3.496094 0 6.992188 3.996094 6.992188 8.988282 0 5.328125-3.496094 8.824218-6.992188 8.824218h-42.945312c-3.996094 0-6.660156-3.496093-6.660156-8.824218 0-4.992188 2.664062-8.988282 6.660156-8.988282zm0 0" fill="#fff"/></svg>