<svg height="512pt" viewBox="-55 0 512 512" width="512pt" xmlns="http://www.w3.org/2000/svg"><path d="m0 223.230469 175.664062-211.417969c6.21875-7.484375 15.445313-11.8125 25.175782-11.8125 9.730468 0 18.957031 4.328125 25.175781 11.8125l175.664063 211.417969-200.839844 32.769531zm0 0" fill="#fab659"/><path d="m0 223.230469 200.839844 32.769531 200.839844-32.769531-25.679688-30.902344h-350.320312zm0 0" fill="#ff9c20"/><path d="m352 329.042969v-264.121094c0-13.046875-10.578125-23.621094-23.625-23.621094h-255.070312c-13.046876 0-23.625 10.574219-23.625 23.621094v264.121094zm0 0" fill="#00ccac"/><g fill="#76e6d5"><path d="m326.691406 81.234375c0 8.078125-6.550781 14.628906-14.628906 14.628906s-14.625-6.550781-14.625-14.628906 6.546875-14.625 14.625-14.625 14.628906 6.546875 14.628906 14.625zm0 0"/><path d="m104.242188 81.234375c0 8.078125-6.546876 14.628906-14.625 14.628906-8.078126 0-14.628907-6.550781-14.628907-14.628906s6.550781-14.625 14.628907-14.625c8.078124 0 14.625 6.546875 14.625 14.625zm0 0"/><path d="m85.519531 130.601562v198.441407h230.640625v-198.441407c-24.304687-9.761718-43.699218-29.15625-53.460937-53.460937h-123.71875c-9.761719 24.300781-29.15625 43.695313-53.460938 53.460937zm0 0"/></g><path d="m49.679688 192.328125h302.320312v136.714844h-302.320312zm0 0" fill="#00ad8d"/><path d="m85.519531 192.328125h230.640625v136.714844h-230.640625zm0 0" fill="#00ccac"/><path d="m200.839844 151.207031c-23.011719 0-41.664063 18.652344-41.664063 41.664063v63.128906h83.328125v-63.128906c0-23.011719-18.652344-41.664063-41.664062-41.664063zm0 0" fill="#00ccac"/><path d="m159.175781 192.871094v63.128906h83.328125v-63.128906c0-.183594-.011718-.363282-.011718-.542969h-83.300782c-.003906.179687-.015625.359375-.015625.542969zm0 0" fill="#00ad8d"/><path d="m0 223.230469v251.921875c0 20.351562 16.496094 36.847656 36.847656 36.847656h327.984375c20.347657 0 36.847657-16.496094 36.847657-36.847656v-251.921875zm0 0" fill="#f5e277"/><path d="m112.433594 379.070312c-4.265625 0-7.726563-3.457031-7.726563-7.726562v-16c0-4.265625 3.460938-7.722656 7.726563-7.722656 4.269531 0 7.726562 3.457031 7.726562 7.722656v16c0 4.269531-3.457031 7.726562-7.726562 7.726562zm0 0" fill="#4b5562"/><path d="m289.246094 379.070312c-4.269532 0-7.726563-3.457031-7.726563-7.726562v-16c0-4.265625 3.457031-7.722656 7.726563-7.722656 4.265625 0 7.726562 3.457031 7.726562 7.722656v16c0 4.269531-3.460937 7.726562-7.726562 7.726562zm0 0" fill="#4b5562"/><path d="m200.839844 387.613281c-10.734375 0-20.804688-4.484375-27.636719-12.296875-2.808594-3.210937-2.480469-8.09375.730469-10.902344 3.214844-2.808593 8.09375-2.480468 10.902344.730469 3.898437 4.457031 9.730468 7.011719 16.003906 7.011719 6.273437 0 12.105468-2.554688 16-7.011719 2.8125-3.214843 7.691406-3.539062 10.90625-.730469 3.210937 2.808594 3.539062 7.6875.730468 10.902344-6.828124 7.8125-16.902343 12.296875-27.636718 12.296875zm0 0" fill="#4b5562"/></svg>