<svg height="512pt" viewBox="-21 0 511 512" width="512pt" xmlns="http://www.w3.org/2000/svg"><path d="m55.132812 437.808594v52.132812c0 12.183594 9.875 22.058594 22.058594 22.058594h51.449219c12.183594 0 22.058594-9.875 22.058594-22.058594v-52.132812zm0 0" fill="#ebebeb"/><path d="m86.035156 489.941406v-52.132812h-30.902344v52.132812c0 12.183594 9.875 22.058594 22.058594 22.058594h30.90625c-12.183594 0-22.0625-9.875-22.0625-22.058594zm0 0" fill="#d5d4da"/><path d="m414.136719 437.808594v52.132812c0 12.183594-9.878907 22.058594-22.0625 22.058594h-51.449219c-12.183594 0-22.058594-9.875-22.058594-22.058594v-52.132812zm0 0" fill="#ebebeb"/><path d="m349.472656 489.941406v-52.132812h-30.90625v52.132812c0 12.183594 9.875 22.058594 22.058594 22.058594h30.90625c-12.183594 0-22.058594-9.875-22.058594-22.058594zm0 0" fill="#d5d4da"/><path d="m414.136719 0h-359.003907c-30.171874 0-54.632812 24.460938-54.632812 54.632812v359.003907c0 30.171875 24.460938 54.628906 54.632812 54.628906h359.003907c30.171875 0 54.628906-24.457031 54.628906-54.628906v-359.003907c0-30.171874-24.457031-54.632812-54.628906-54.632812zm0 0" fill="#7f9ae2"/><path d="m55.132812 417.503906c-2.132812 0-3.867187-1.734375-3.867187-3.867187v-359.003907c0-2.132812 1.734375-3.867187 3.867187-3.867187h359.003907c2.128906 0 3.867187 1.734375 3.867187 3.867187v359.003907c0 2.128906-1.734375 3.867187-3.867187 3.867187zm0 0" fill="#6380d2"/><path d="m356.46875 254.4375c0 67.289062-54.546875 121.835938-121.835938 121.835938-67.289062 0-121.835937-54.546876-121.835937-121.835938 0-67.285156 54.546875-121.832031 121.835937-121.832031 67.289063 0 121.835938 54.546875 121.835938 121.832031zm0 0" fill="#7f9ae2"/><path d="m321.609375 254.4375c0 48.039062-38.941406 86.980469-86.976563 86.980469-48.035156 0-86.976562-38.941407-86.976562-86.980469 0-48.035156 38.941406-86.976562 86.976562-86.976562 48.035157 0 86.976563 38.941406 86.976563 86.976562zm0 0" fill="#ebebeb"/><path d="m168.261719 254.4375c0-44.546875 33.496093-81.246094 76.671875-86.347656-3.378906-.398438-6.8125-.628906-10.300782-.628906-48.035156 0-86.976562 38.941406-86.976562 86.976562 0 48.039062 38.941406 86.980469 86.976562 86.980469 3.488282 0 6.921876-.230469 10.300782-.628907-43.175782-5.097656-76.671875-41.800781-76.671875-86.351562zm0 0" fill="#d5d4da"/><path d="m262.046875 254.4375c0 15.140625-12.273437 27.414062-27.414063 27.414062-15.140624 0-27.414062-12.273437-27.414062-27.414062 0-15.136719 12.273438-27.410156 27.414062-27.410156 15.140626 0 27.414063 12.273437 27.414063 27.410156zm0 0" fill="#7f9ae2"/><g fill="#6380d2"><path d="m234.632812 167.460938c-2.605468 0-5.179687.136718-7.726562.363281v23.679687c0 4.269532 3.460938 7.726563 7.726562 7.726563 4.265626 0 7.726563-3.457031 7.726563-7.726563v-23.679687c-2.546875-.226563-5.121094-.363281-7.726563-.363281zm0 0"/><path d="m290.421875 187.726562-16.75 16.75c-3.019531 3.015626-3.019531 7.90625 0 10.925782 1.507813 1.507812 3.484375 2.261718 5.460937 2.261718 1.976563 0 3.957032-.753906 5.464844-2.261718l16.75-16.75c-3.3125-3.957032-6.96875-7.613282-10.925781-10.925782zm0 0"/><path d="m321.25 246.714844h-23.683594c-4.265625 0-7.726562 3.457031-7.726562 7.722656 0 4.269531 3.460937 7.726562 7.726562 7.726562h23.683594c.222656-2.546874.359375-5.117187.359375-7.726562 0-2.605469-.136719-5.175781-.359375-7.722656zm0 0"/><path d="m301.347656 310.226562-16.75-16.75c-3.019531-3.015624-7.910156-3.015624-10.925781 0-3.019531 3.019532-3.019531 7.910157 0 10.925782l16.75 16.75c3.957031-3.3125 7.613281-6.96875 10.925781-10.925782zm0 0"/><path d="m234.632812 309.648438c-4.265624 0-7.726562 3.457031-7.726562 7.722656v23.683594c2.546875.226562 5.121094.363281 7.726562.363281 2.605469 0 5.179688-.136719 7.726563-.363281v-23.683594c0-4.265625-3.460937-7.722656-7.726563-7.722656zm0 0"/><path d="m184.667969 293.476562-16.75 16.75c3.3125 3.957032 6.96875 7.613282 10.925781 10.929688l16.75-16.753906c3.019531-3.015625 3.019531-7.90625 0-10.925782-3.015625-3.015624-7.90625-3.015624-10.925781 0zm0 0"/><path d="m171.699219 246.714844h-23.683594c-.222656 2.546875-.359375 5.117187-.359375 7.722656 0 2.609375.136719 5.179688.359375 7.726562h23.683594c4.265625 0 7.726562-3.457031 7.726562-7.726562 0-4.265625-3.460937-7.722656-7.726562-7.722656zm0 0"/><path d="m167.917969 198.652344 16.75 16.75c1.511719 1.507812 3.488281 2.261718 5.464843 2.261718 1.976563 0 3.953126-.753906 5.460938-2.261718 3.019531-3.015625 3.019531-7.910156 0-10.925782l-16.75-16.75c-3.957031 3.3125-7.613281 6.96875-10.925781 10.925782zm0 0"/></g><path d="m60.515625 285.589844h-18.5c-6.632813 0-12.011719 5.378906-12.011719 12.011718v55.847657c0 6.632812 5.378906 12.007812 12.011719 12.007812h18.5c6.632813 0 12.007813-5.375 12.007813-12.007812v-55.847657c0-6.636718-5.375-12.011718-12.007813-12.011718zm0 0" fill="#ebebeb"/><path d="m60.515625 182.679688h-18.5c-6.632813 0-12.011719-5.378907-12.011719-12.011719v-55.847657c0-6.636718 5.378906-12.011718 12.011719-12.011718h18.5c6.632813 0 12.007813 5.378906 12.007813 12.011718v55.847657c0 6.632812-5.375 12.011719-12.007813 12.011719zm0 0" fill="#ebebeb"/><path d="m150.699219 103.90625c-4.265625 0-7.726563-3.460938-7.726563-7.726562v-15.191407c0-4.265625 3.460938-7.726562 7.726563-7.726562 4.269531 0 7.726562 3.460937 7.726562 7.726562v15.191407c0 4.265624-3.457031 7.726562-7.726562 7.726562zm0 0" fill="#4b5562"/><path d="m318.566406 103.90625c-4.265625 0-7.726562-3.460938-7.726562-7.726562v-15.191407c0-4.265625 3.460937-7.726562 7.726562-7.726562s7.726563 3.460937 7.726563 7.726562v15.191407c0 4.265624-3.460938 7.726562-7.726563 7.726562zm0 0" fill="#4b5562"/><path d="m234.632812 112.011719c-10.300781 0-19.972656-4.300781-26.53125-11.804688-2.808593-3.214843-2.480468-8.09375.730469-10.902343 3.210938-2.808594 8.09375-2.480469 10.902344.730468 3.625 4.148438 9.054687 6.527344 14.898437 6.527344s11.273438-2.378906 14.898438-6.523438c2.808594-3.214843 7.691406-3.542968 10.902344-.734374 3.214844 2.808593 3.542968 7.691406.734375 10.902343-6.558594 7.503907-16.230469 11.804688-26.535157 11.804688zm0 0" fill="#4b5562"/></svg>