<svg height="512pt" viewBox="0 -5 512 512" width="512pt" xmlns="http://www.w3.org/2000/svg"><path d="m165.695312 304.429688 45.832032-237.207032 46.699218-56.273437 58.96875 18.59375 1.0625 71.328125-93.597656 222.152344zm0 0" fill="#4b5562"/><path d="m201.378906 119.757812-35.683594 184.671876 58.964844 18.59375 85.640625-203.265626zm0 0" fill="#393f50"/><path d="m93.628906 281.707031 78.605469-249.308593c7.691406-24.390626 33.710937-37.933594 58.097656-30.242188l27.894531 8.792969-92.53125 293.480469zm0 0" fill="#7f9ae2"/><path d="m224.660156 323.023438 92.535156-293.480469 119.195313 37.582031c24.390625 7.691406 37.933594 33.707031 30.242187 58.097656l-78.605468 249.308594zm0 0" fill="#7f9ae2"/><path d="m288.75 119.757812-64.089844 203.265626 163.367188 51.507812 78.605468-249.308594c.574219-1.816406 1.015626-3.640625 1.355469-5.464844zm0 0" fill="#6380d2"/><path d="m144.691406 119.757812-51.0625 161.949219 72.066406 22.722657 58.226563-184.671876zm0 0" fill="#6380d2"/><path d="m461.636719 150.660156h-427.601563c-18.796875 0-34.035156 15.238282-34.035156 34.035156v284.152344c0 18.796875 15.238281 34.03125 34.035156 34.03125h427.601563c18.796875 0 34.035156-15.234375 34.035156-34.03125v-284.152344c0-18.796874-15.238281-34.035156-34.035156-34.035156zm0 0" fill="#e7a25d"/><path d="m41.207031 468.847656v-284.152344c0-18.796874 15.238281-34.035156 34.035157-34.035156h-41.207032c-18.796875 0-34.035156 15.238282-34.035156 34.035156v284.152344c0 18.796875 15.238281 34.03125 34.035156 34.03125h41.207032c-18.796876 0-34.035157-15.238281-34.035157-34.03125zm0 0" fill="#d88f45"/><g fill="#4b5562"><path d="m99.726562 338.035156c-4.269531 0-7.726562-3.460937-7.726562-7.726562v-15.175782c0-4.265624 3.457031-7.726562 7.726562-7.726562 4.269532 0 7.726563 3.460938 7.726563 7.726562v15.175782c0 4.265625-3.457031 7.726562-7.726563 7.726562zm0 0"/><path d="m267.433594 338.035156c-4.265625 0-7.726563-3.460937-7.726563-7.726562v-15.175782c0-4.265624 3.460938-7.726562 7.726563-7.726562 4.269531 0 7.726562 3.460938 7.726562 7.726562v15.175782c0 4.265625-3.457031 7.726562-7.726562 7.726562zm0 0"/><path d="m183.582031 346.136719c-10.296875 0-19.960937-4.300781-26.511719-11.800781-2.8125-3.210938-2.480468-8.09375.730469-10.902344 3.210938-2.808594 8.09375-2.480469 10.902344.734375 3.621094 4.140625 9.042969 6.515625 14.878906 6.515625 5.835938 0 11.257813-2.375 14.878907-6.515625 2.808593-3.214844 7.6875-3.542969 10.902343-.734375 3.210938 2.808594 3.539063 7.691406.730469 10.902344-6.554688 7.5-16.214844 11.800781-26.511719 11.800781zm0 0"/></g><path d="m495.671875 419.074219v-184.609375c-2.152344-.261719-4.335937-.414063-6.558594-.414063h-78.476562c-51.125 0-92.71875 41.59375-92.71875 92.71875s41.59375 92.71875 92.71875 92.71875h78.476562c2.222657 0 4.40625-.152343 6.558594-.414062zm0 0" fill="#d88f45"/><path d="m489.113281 264.957031h-78.476562c-34.140625 0-61.8125 27.675781-61.8125 61.8125s27.671875 61.8125 61.8125 61.8125h78.476562c12.640625 0 22.886719-10.246093 22.886719-22.886719v-77.851562c0-12.640625-10.246094-22.886719-22.886719-22.886719zm0 0" fill="#fdcf85"/><path d="m432.050781 326.769531c0 11.238281-9.109375 20.351563-20.347656 20.351563s-20.351563-9.113282-20.351563-20.351563 9.113282-20.347656 20.351563-20.347656 20.347656 9.109375 20.347656 20.347656zm0 0" fill="#e7a25d"/></svg>