<svg height="512pt" viewBox="0 0 512.00104 512" width="512pt" xmlns="http://www.w3.org/2000/svg"><g fill="#596673"><path d="m406.597656 414.324219c-1.976562 0-3.953125-.753907-5.464844-2.261719l-301.195312-301.195312c-3.015625-3.019532-3.015625-7.910157 0-10.925782 3.019531-3.019531 7.910156-3.015625 10.929688 0l301.195312 301.191406c3.015625 3.019532 3.015625 7.910157 0 10.929688-1.507812 1.507812-3.488281 2.261719-5.464844 2.261719zm0 0"/><path d="m105.402344 414.324219c-1.976563 0-3.953125-.753907-5.464844-2.261719-3.015625-3.019531-3.015625-7.910156 0-10.929688l301.195312-301.191406c3.019532-3.019531 7.910157-3.019531 10.929688 0 3.015625 3.015625 3.015625 7.910156 0 10.925782l-301.195312 301.195312c-1.507813 1.507812-3.488282 2.261719-5.464844 2.261719zm0 0"/><path d="m256 476.703125c-4.269531 0-7.726562-3.457031-7.726562-7.726563v-425.953124c0-4.265626 3.457031-7.726563 7.726562-7.726563s7.726562 3.460937 7.726562 7.726563v425.953124c0 4.269532-3.457031 7.726563-7.726562 7.726563zm0 0"/><path d="m468.976562 263.726562h-425.953124c-4.269532 0-7.726563-3.460937-7.726563-7.726562s3.457031-7.726562 7.726563-7.726562h425.953124c4.269532 0 7.726563 3.460937 7.726563 7.726562s-3.457031 7.726562-7.726563 7.726562zm0 0"/></g><path d="m356.679688 256c0 55.605469-45.078126 100.679688-100.679688 100.679688s-100.679688-45.074219-100.679688-100.679688c0-55.601562 45.078126-100.679688 100.679688-100.679688s100.679688 45.078126 100.679688 100.679688zm0 0" fill="#fb7073"/><path d="m276.605469 336.074219c-55.605469 0-100.679688-45.074219-100.679688-100.675781 0-22.546876 7.410157-43.363282 19.929688-60.144532-24.601563 18.355469-40.535157 47.6875-40.535157 80.746094 0 55.601562 45.078126 100.679688 100.679688 100.679688 33.054688 0 62.390625-15.933594 80.746094-40.535157-16.78125 12.519531-37.597656 19.929688-60.140625 19.929688zm0 0" fill="#e16567"/><path d="m148.425781 105.402344c0 23.761718-19.261719 43.023437-43.023437 43.023437-23.761719 0-43.023438-19.261719-43.023438-43.023437 0-23.761719 19.261719-43.023438 43.023438-43.023438 23.761718 0 43.023437 19.261719 43.023437 43.023438zm0 0" fill="#5bb68d"/><path d="m126.007812 127.824219c-23.761718 0-43.023437-19.265625-43.023437-43.023438 0-6.554687 1.472656-12.765625 4.09375-18.324219-14.59375 6.882813-24.699219 21.722657-24.699219 38.925782 0 23.761718 19.261719 43.023437 43.023438 43.023437 17.207031 0 32.046875-10.105469 38.929687-24.699219-5.5625 2.625-11.769531 4.097657-18.324219 4.097657zm0 0" fill="#51a27d"/><path d="m449.621094 406.597656c0 23.761719-19.261719 43.023438-43.023438 43.023438-23.761718 0-43.023437-19.261719-43.023437-43.023438 0-23.761718 19.261719-43.023437 43.023437-43.023437 23.761719 0 43.023438 19.261719 43.023438 43.023437zm0 0" fill="#5bb68d"/><path d="m427.203125 429.015625c-23.761719 0-43.023437-19.261719-43.023437-43.023437 0-6.554688 1.46875-12.761719 4.09375-18.324219-14.59375 6.882812-24.699219 21.722656-24.699219 38.929687 0 23.761719 19.261719 43.023438 43.023437 43.023438 17.207032 0 32.046875-10.105469 38.929688-24.699219-5.5625 2.625-11.769532 4.09375-18.324219 4.09375zm0 0" fill="#51a27d"/><path d="m449.621094 105.402344c0 23.761718-19.261719 43.023437-43.023438 43.023437-23.761718 0-43.023437-19.261719-43.023437-43.023437 0-23.761719 19.261719-43.023438 43.023437-43.023438 23.761719 0 43.023438 19.261719 43.023438 43.023438zm0 0" fill="#f9db69"/><path d="m427.203125 127.824219c-23.761719 0-43.023437-19.265625-43.023437-43.023438 0-6.554687 1.46875-12.765625 4.09375-18.324219-14.59375 6.882813-24.699219 21.722657-24.699219 38.925782 0 23.761718 19.261719 43.023437 43.023437 43.023437 17.207032 0 32.046875-10.105469 38.929688-24.699219-5.5625 2.625-11.769532 4.097657-18.324219 4.097657zm0 0" fill="#e5ca61"/><path d="m148.425781 406.597656c0 23.761719-19.261719 43.023438-43.023437 43.023438-23.761719 0-43.023438-19.261719-43.023438-43.023438 0-23.761718 19.261719-43.023437 43.023438-43.023437 23.761718 0 43.023437 19.261719 43.023437 43.023437zm0 0" fill="#f9db69"/><path d="m126.007812 429.015625c-23.761718 0-43.023437-19.261719-43.023437-43.023437 0-6.554688 1.472656-12.761719 4.09375-18.324219-14.59375 6.882812-24.699219 21.722656-24.699219 38.929687 0 23.761719 19.261719 43.023438 43.023438 43.023438 17.207031 0 32.046875-10.105469 38.929687-24.699219-5.5625 2.625-11.769531 4.09375-18.324219 4.09375zm0 0" fill="#e5ca61"/><path d="m299.023438 43.023438c0 23.761718-19.261719 43.023437-43.023438 43.023437s-43.023438-19.261719-43.023438-43.023437c0-23.761719 19.261719-43.023438 43.023438-43.023438s43.023438 19.261719 43.023438 43.023438zm0 0" fill="#87cde9"/><path d="m246.179688 52.839844c-13.183594-13.183594-16.015626-32.796875-8.507813-48.746094-4.375 2.058594-8.476563 4.890625-12.09375 8.507812-16.800781 16.800782-16.800781 44.042969 0 60.84375 16.800781 16.800782 44.042969 16.800782 60.84375 0 3.617187-3.617187 6.449219-7.71875 8.507813-12.09375-15.949219 7.507813-35.5625 4.675782-48.75-8.511718zm0 0" fill="#7ab7d1"/><path d="m299.023438 468.976562c0 23.761719-19.261719 43.023438-43.023438 43.023438s-43.023438-19.261719-43.023438-43.023438c0-23.761718 19.261719-43.023437 43.023438-43.023437s43.023438 19.261719 43.023438 43.023437zm0 0" fill="#87cde9"/><path d="m246.179688 478.796875c-13.183594-13.1875-16.015626-32.796875-8.507813-48.75-4.375 2.058594-8.476563 4.894531-12.09375 8.507813-16.800781 16.800781-16.800781 44.042968 0 60.84375 16.800781 16.800781 44.042969 16.800781 60.84375 0 3.617187-3.617188 6.449219-7.71875 8.507813-12.09375-15.953126 7.507812-35.5625 4.675781-48.75-8.507813zm0 0" fill="#7ab7d1"/><path d="m512 256c0 23.761719-19.261719 43.023438-43.023438 43.023438-23.761718 0-43.023437-19.261719-43.023437-43.023438s19.261719-43.023438 43.023437-43.023438c23.761719 0 43.023438 19.261719 43.023438 43.023438zm0 0" fill="#e98f5e"/><path d="m459.160156 265.820312c-13.1875-13.1875-16.019531-32.796874-8.511718-48.75-4.375 2.058594-8.476563 4.894532-12.09375 8.507813-16.800782 16.800781-16.800782 44.042969 0 60.84375 16.800781 16.800781 44.042968 16.800781 60.84375 0 3.617187-3.617187 6.449218-7.71875 8.507812-12.09375-15.949219 7.507813-35.5625 4.675781-48.746094-8.507813zm0 0" fill="#de8250"/><path d="m86.046875 256c0 23.761719-19.261719 43.023438-43.023437 43.023438-23.761719 0-43.023438-19.261719-43.023438-43.023438s19.261719-43.023438 43.023438-43.023438c23.761718 0 43.023437 19.261719 43.023437 43.023438zm0 0" fill="#e98f5e"/><path d="m33.203125 265.820312c-13.183594-13.1875-16.015625-32.796874-8.507813-48.75-4.375 2.058594-8.476562 4.894532-12.09375 8.507813-16.800781 16.800781-16.800781 44.042969 0 60.84375 16.800782 16.800781 44.042969 16.800781 60.84375 0 3.617188-3.617187 6.449219-7.71875 8.507813-12.09375-15.953125 7.507813-35.5625 4.675781-48.75-8.507813zm0 0" fill="#de8250"/><path d="m197.523438 266.195312c-4.269532 0-7.726563-3.460937-7.726563-7.726562v-10.585938c0-4.265624 3.457031-7.722656 7.726563-7.722656 4.265624 0 7.726562 3.457032 7.726562 7.722656v10.585938c0 4.265625-3.460938 7.726562-7.726562 7.726562zm0 0" fill="#464c51"/><path d="m314.476562 266.195312c-4.265624 0-7.726562-3.460937-7.726562-7.726562v-10.585938c0-4.265624 3.460938-7.722656 7.726562-7.722656 4.269532 0 7.726563 3.457032 7.726563 7.722656v10.585938c0 4.265625-3.457031 7.726562-7.726563 7.726562zm0 0" fill="#464c51"/><path d="m256 271.84375c-7.855469 0-15.238281-3.289062-20.25-9.027344-2.808594-3.214844-2.480469-8.09375.730469-10.902344 3.210937-2.808593 8.09375-2.480468 10.902343.730469 2.082032 2.382813 5.222657 3.746094 8.617188 3.746094s6.535156-1.363281 8.617188-3.746094c2.804687-3.210937 7.6875-3.539062 10.898437-.730469 3.214844 2.808594 3.542969 7.6875.734375 10.902344-5.015625 5.738282-12.394531 9.027344-20.25 9.027344zm0 0" fill="#464c51"/></svg>