<svg height="512pt" viewBox="0 -22 512.00009 512" width="512pt" xmlns="http://www.w3.org/2000/svg"><path d="m426.6875 99.113281c-15.46875-3.75-28.929688-13.425781-36.628906-27.359375-15.71875-28.429687-52.96875-71.753906-134.058594-71.753906s-118.339844 43.324219-134.058594 71.753906c-7.699218 13.933594-21.160156 23.609375-36.628906 27.359375-49.21875 11.933594-85.703125 56.457031-85.30859375 109.4375.45703175 61.601563 51.51953175 110.878907 113.12499975 110.878907h285.742188c61.605468 0 112.667968-49.277344 113.125-110.878907.394531-52.980469-36.089844-97.503906-85.308594-109.4375zm0 0" fill="#ccf8ff"/><path d="m165.183594 175.996094c70.410156-44.304688 95.417968-129.875 103.988281-175.601563-4.257813-.257812-8.644531-.394531-13.171875-.394531-81.089844 0-118.339844 43.324219-134.058594 71.757812-7.699218 13.929688-21.160156 23.609376-36.628906 27.359376-49.21875 11.929687-85.703125 56.453124-85.30859375 109.433593.43749975 59.109375 47.46874975 106.859375 105.69921875 110.632813-5.425781-43.21875-.488281-105.460938 59.480469-143.1875zm0 0" fill="#abebf4"/><path d="m338.785156 357.363281c-10.890625-11.039062-28.667968-11.160156-39.710937-.265625l-14.996094 14.796875v-104.347656c0-15.507813-12.570313-28.082031-28.078125-28.082031s-28.082031 12.574218-28.082031 28.082031v104.347656l-14.996094-14.796875c-11.039063-10.890625-28.816406-10.773437-39.710937.265625-10.890626 11.039063-10.773438 28.816407.265624 39.710938l62.800782 61.960937c5.46875 5.394532 12.589844 8.089844 19.71875 8.089844s14.257812-2.699219 19.722656-8.089844l62.800781-61.960937c11.039063-10.894531 11.160157-28.671875.265625-39.710938zm0 0" fill="#c8efb9"/><g fill="#57565c"><path d="m339.089844 154.351562c-4.265625 0-7.726563-3.457031-7.726563-7.726562v-12.824219c0-4.269531 3.460938-7.726562 7.726563-7.726562 4.269531 0 7.726562 3.457031 7.726562 7.726562v12.824219c0 4.269531-3.457031 7.726562-7.726562 7.726562zm0 0"/><path d="m172.910156 154.351562c-4.269531 0-7.726562-3.457031-7.726562-7.726562v-12.824219c0-4.269531 3.457031-7.726562 7.726562-7.726562 4.265625 0 7.726563 3.457031 7.726563 7.726562v12.824219c0 4.269531-3.460938 7.726562-7.726563 7.726562zm0 0"/><path d="m256 162.441406c-10 0-20-3.234375-28.34375-9.707031-3.371094-2.617187-3.984375-7.46875-1.371094-10.839844 2.613282-3.375 7.46875-3.988281 10.839844-1.371093 11.113281 8.617187 26.632812 8.617187 37.746094 0 3.371094-2.613282 8.226562-2.003907 10.839844 1.371093 2.617187 3.371094 2.003906 8.222657-1.367188 10.839844-8.34375 6.472656-18.34375 9.707031-28.34375 9.707031zm0 0"/></g><path d="m284.078125 371.894531v-103.765625c0-15.300781-11.996094-28.234375-27.289063-28.652344-15.867187-.433593-28.867187 12.296876-28.867187 28.070313v104.347656l18.089844 16.472657c5.660156 5.15625 14.316406 5.15625 19.976562 0zm0 0" fill="#b2e59c"/></svg>