<svg height="512pt" viewBox="0 -9 512.00112 512" width="512pt" xmlns="http://www.w3.org/2000/svg"><path d="m426.691406 99.117188c-15.472656-3.75-28.929687-13.429688-36.632812-27.363282-15.714844-28.429687-52.96875-71.753906-134.058594-71.753906-81.085938 0-118.339844 43.324219-134.054688 71.753906-7.703124 13.933594-21.160156 23.609375-36.632812 27.363282-49.21875 11.929687-85.699219 56.453124-85.30859375 109.433593.45703175 61.601563 51.52343775 110.878907 113.12890575 110.878907h285.738282c61.605468 0 112.671875-49.277344 113.125-110.878907.394531-52.980469-36.089844-97.503906-85.304688-109.433593zm0 0" fill="#ccf8ff"/><path d="m165.183594 175.996094c70.410156-44.300782 95.417968-129.875 103.988281-175.601563-4.257813-.257812-8.644531-.394531-13.171875-.394531-81.089844 0-118.339844 43.324219-134.058594 71.757812-7.699218 13.929688-21.160156 23.609376-36.628906 27.359376-49.21875 11.929687-85.703125 56.457031-85.30859375 109.433593.43749975 59.109375 47.46874975 106.863281 105.69921875 110.632813-5.421875-43.21875-.484375-105.457032 59.480469-143.1875zm0 0" fill="#abebf4"/><path d="m338.785156 339.828125c-10.890625 11.039063-28.667968 11.160156-39.707031.265625l-15-14.796875v57.730469c0 15.507812-12.570313 28.082031-28.078125 28.082031s-28.078125-12.574219-28.078125-28.082031v-57.730469l-15 14.796875c-11.039063 10.890625-28.816406 10.773438-39.707031-.265625-10.894532-11.039063-10.773438-28.816406.265625-39.710937l62.796875-61.960938c5.46875-5.394531 12.59375-8.089844 19.722656-8.089844 7.125 0 14.253906 2.699219 19.722656 8.089844l62.796875 61.960938c11.039063 10.890624 11.160157 28.671874.265625 39.710937zm0 0" fill="#ffa5b5"/><path d="m284.082031 325.296875v57.148437c0 15.300782-11.996093 28.230469-27.292969 28.652344-15.867187.433594-28.867187-12.300781-28.867187-28.070312v-57.730469l18.089844-16.476563c5.664062-5.15625 14.316406-5.15625 19.980469 0zm0 0" fill="#ff8896"/><path d="m284.082031 466.210938c0 15.507812-12.574219 28.082031-28.082031 28.082031s-28.078125-12.574219-28.078125-28.082031c0-15.507813 12.570313-28.078126 28.078125-28.078126s28.082031 12.570313 28.082031 28.078126zm0 0" fill="#ff8896"/><path d="m256 192.679688c-15.988281 0-28.945312-12.960938-28.945312-28.949219v-21.046875c0-4.363282 3.535156-7.902344 7.902343-7.902344h42.089844c4.367187 0 7.902344 3.539062 7.902344 7.902344v21.046875c0 15.988281-12.960938 28.949219-28.949219 28.949219zm0 0" fill="#57565c"/><path d="m190.046875 163.730469c0-13.582031-13.824219-24.589844-30.878906-24.589844-17.054688 0-30.878907 11.007813-30.878907 24.589844 0 13.578125 13.824219 24.589843 30.878907 24.589843 17.054687 0 30.878906-11.011718 30.878906-24.589843zm0 0" fill="#ffa6bb"/><path d="m383.710938 163.730469c0-13.582031-13.824219-24.589844-30.878907-24.589844-17.050781 0-30.875 11.007813-30.875 24.589844 0 13.578125 13.824219 24.589843 30.875 24.589843 17.054688 0 30.878907-11.011718 30.878907-24.589843zm0 0" fill="#ffa6bb"/><g fill="#57565c"><path d="m339.09375 150.230469c-4.269531 0-7.726562-3.457031-7.726562-7.726563v-12.824218c0-4.269532 3.457031-7.726563 7.726562-7.726563 4.265625 0 7.726562 3.457031 7.726562 7.726563v12.824218c0 4.269532-3.460937 7.726563-7.726562 7.726563zm0 0"/><path d="m172.910156 150.230469c-4.269531 0-7.726562-3.457031-7.726562-7.726563v-12.824218c0-4.269532 3.457031-7.726563 7.726562-7.726563 4.269532 0 7.726563 3.457031 7.726563 7.726563v12.824218c0 4.269532-3.457031 7.726563-7.726563 7.726563zm0 0"/></g></svg>