<svg height="512pt" viewBox="0 -57 512 511" width="512pt" xmlns="http://www.w3.org/2000/svg"><path d="m467.375 398.238281h-422.75c-24.648438 0-44.625-19.980469-44.625-44.625v-308.488281c0-24.648438 19.976562-44.625 44.625-44.625h422.75c24.648438 0 44.625 19.976562 44.625 44.625v308.488281c0 24.644531-19.976562 44.625-44.625 44.625zm0 0" fill="#ccf8ff"/><path d="m115.023438 353.613281v-308.488281c0-24.648438 19.976562-44.625 44.621093-44.625h-115.019531c-24.648438 0-44.625 19.980469-44.625 44.625v308.488281c0 24.644531 19.976562 44.625 44.625 44.625h115.019531c-24.644531 0-44.621093-19.980469-44.621093-44.625zm0 0" fill="#abebf4"/><path d="m467.375.5h-422.75c-24.648438 0-44.625 19.980469-44.625 44.625v45.457031h512v-45.457031c0-24.644531-19.976562-44.625-44.625-44.625zm0 0" fill="#d8d7da"/><path d="m159.644531.5h-115.019531c-24.648438 0-44.625 19.980469-44.625 44.625v45.457031h115.023438v-45.457031c0-24.644531 19.976562-44.625 44.621093-44.625zm0 0" fill="#c6c5ca"/><path d="m76.4375 45.542969c0 8.542969-6.925781 15.472656-15.472656 15.472656s-15.472656-6.929687-15.472656-15.472656c0-8.546875 6.925781-15.476563 15.472656-15.476563s15.472656 6.929688 15.472656 15.476563zm0 0" fill="#ff929f"/><path d="m138.386719 45.542969c0 8.542969-6.929688 15.472656-15.476563 15.472656-8.542968 0-15.472656-6.929687-15.472656-15.472656 0-8.546875 6.929688-15.476563 15.472656-15.476563 8.546875 0 15.476563 6.929688 15.476563 15.476563zm0 0" fill="#ffeb99"/><path d="m200.332031 45.542969c0 8.542969-6.925781 15.472656-15.472656 15.472656s-15.476563-6.929687-15.476563-15.472656c0-8.546875 6.929688-15.476563 15.476563-15.476563s15.472656 6.929688 15.472656 15.476563zm0 0" fill="#9ad880"/><path d="m123.695312 310.878906c-.289062 0-.582031-.015625-.878906-.050781-2.679687-.304687-5.007812-1.988281-6.140625-4.4375l-54.1875-117.484375 14.03125-6.472656 48.859375 105.929687 65.316406-84.285156c1.394532-1.804687 3.519532-2.898437 5.800782-2.988281s4.484375.832031 6.019531 2.519531l85.824219 94.34375-11.429688 10.398437-79.632812-87.539062-67.476563 87.074219c-1.472656 1.898437-3.734375 2.992187-6.105469 2.992187zm0 0" fill="#c6c5ca"/><path d="m92.644531 185.667969c0 12.78125-10.359375 23.140625-23.140625 23.140625-12.777344 0-23.140625-10.359375-23.140625-23.140625s10.363281-23.140625 23.140625-23.140625c12.78125 0 23.140625 10.359375 23.140625 23.140625zm0 0" fill="#9ad880"/><path d="m146.835938 303.152344c0 12.78125-10.359376 23.140625-23.140626 23.140625s-23.140624-10.359375-23.140624-23.140625 10.359374-23.140625 23.140624-23.140625 23.140626 10.359375 23.140626 23.140625zm0 0" fill="#b2e59c"/><path d="m100.554688 303.152344c0 9.714844 5.984374 18.027344 14.46875 21.460937v-42.921875c-8.484376 3.433594-14.46875 11.75-14.46875 21.460938zm0 0" fill="#9ad880"/><g fill="#b2e59c"><path d="m219.941406 208.808594c0 12.78125-10.359375 23.140625-23.140625 23.140625s-23.140625-10.359375-23.140625-23.140625c0-12.777344 10.359375-23.140625 23.140625-23.140625s23.140625 10.363281 23.140625 23.140625zm0 0"/><path d="m305.765625 303.152344c0 12.78125-10.359375 23.140625-23.140625 23.140625s-23.140625-10.359375-23.140625-23.140625 10.359375-23.140625 23.140625-23.140625 23.140625 10.359375 23.140625 23.140625zm0 0"/><path d="m442.703125 185.667969h-68.230469c-12.664062 0-22.933594-10.265625-22.933594-22.929688 0-12.667969 10.269532-22.933593 22.933594-22.933593h68.230469c12.664063 0 22.933594 10.265624 22.933594 22.933593 0 12.664063-10.269531 22.929688-22.933594 22.929688zm0 0"/></g><path d="m442.703125 267.34375h-68.230469c-12.664062 0-22.933594-10.269531-22.933594-22.933594 0-12.664062 10.269532-22.929687 22.933594-22.929687h68.230469c12.664063 0 22.933594 10.265625 22.933594 22.929687 0 12.664063-10.269531 22.933594-22.933594 22.933594zm0 0" fill="#d8d7da"/><path d="m442.703125 349.015625h-68.230469c-12.664062 0-22.933594-10.265625-22.933594-22.933594 0-12.664062 10.269532-22.929687 22.933594-22.929687h68.230469c12.664063 0 22.933594 10.265625 22.933594 22.929687 0 12.667969-10.269531 22.933594-22.933594 22.933594zm0 0" fill="#d8d7da"/></svg>