<svg height="512pt" viewBox="-29 0 512 512" width="512pt" xmlns="http://www.w3.org/2000/svg"><path d="m338.46875 512h-222.523438c-39.015624 0-70.644531-31.628906-70.644531-70.648438v-293.167968h363.8125v293.167968c0 39.019532-31.628906 70.648438-70.644531 70.648438zm0 0" fill="#d8d7da"/><path d="m115.945312 512h54.605469s.003907-143.121094.003907-192.597656c0-16.394532 6.980468-32.0625 19.320312-42.851563 40.117188-35.082031 51.84375-68.382812 51.84375-68.382812v-59.984375h-196.417969v293.167968c0 39.019532 31.628907 70.648438 70.644531 70.648438zm0 0" fill="#c6c5ca"/><path d="m177.308594 155.949219v-57.90625c0-27.515625 22.386718-49.898438 49.898437-49.898438 27.515625 0 49.898438 22.382813 49.898438 49.898438v57.90625h48.144531v-57.90625c0-53.921875-44.117188-98.042969-98.042969-98.042969-53.921875 0-98.042969 44.121094-98.042969 98.042969v57.90625zm0 0" fill="#d8d7da"/><path d="m412.882812 208.167969h-371.351562c-22.839844 0-41.53125-18.6875-41.53125-41.53125s18.691406-41.535157 41.53125-41.535157h371.351562c22.84375 0 41.53125 18.691407 41.53125 41.535157s-18.6875 41.53125-41.53125 41.53125zm0 0" fill="#eaeaea"/><path d="m83.375 166.636719c0-22.84375 18.6875-41.535157 41.53125-41.535157h-83.375c-22.839844 0-41.53125 18.691407-41.53125 41.535157s18.691406 41.53125 41.53125 41.53125h83.375c-22.84375 0-41.53125-18.6875-41.53125-41.53125zm0 0" fill="#d8d7da"/><path d="m122.386719 269.386719c-14.863281 0-27.023438 12.160156-27.023438 27.023437v212.535156c6.515625 1.980469 13.421875 3.054688 20.582031 3.054688h33.464844v-215.589844c0-14.859375-12.160156-27.023437-27.023437-27.023437zm0 0" fill="#acabb1"/><g fill="#c6c5ca"><path d="m227.207031 269.386719c-14.863281 0-27.023437 12.160156-27.023437 27.023437v215.589844h54.046875v-215.589844c0-14.859375-12.160157-27.023437-27.023438-27.023437zm0 0"/><path d="m332.027344 269.386719c-14.863282 0-27.023438 12.160156-27.023438 27.023437v215.589844h33.464844c7.160156 0 14.070312-1.074219 20.582031-3.054688v-212.535156c0-14.859375-12.160156-27.023437-27.023437-27.023437zm0 0"/></g></svg>