<svg height="512pt" viewBox="-19 0 512 512" width="512pt" xmlns="http://www.w3.org/2000/svg"><path d="m142.421875 166.636719c-39.710937 0-72.019531-37.375-72.019531-83.320313 0-45.9375 32.308594-83.316406 72.019531-83.316406s72.015625 37.378906 72.015625 83.316406c0 45.945313-32.304688 83.320313-72.015625 83.320313zm0-130.113281c-19.574219 0-35.496094 20.992187-35.496094 46.792968 0 25.804688 15.921875 46.796875 35.496094 46.796875 19.566406 0 35.492187-20.992187 35.492187-46.796875 0-25.800781-15.925781-46.792968-35.492187-46.792968zm0 0" fill="#d8d7da"/><path d="m326.007812 166.636719c-39.710937 0-72.019531-37.375-72.019531-83.320313 0-45.9375 32.304688-83.316406 72.019531-83.316406 39.710938 0 72.015626 37.378906 72.015626 83.316406 0 45.945313-32.308594 83.320313-72.015626 83.320313zm0-130.113281c-19.574218 0-35.496093 20.992187-35.496093 46.792968 0 25.804688 15.921875 46.796875 35.496093 46.796875 19.566407 0 35.488282-20.992187 35.488282-46.796875 0-25.800781-15.921875-46.792968-35.488282-46.792968zm0 0" fill="#d8d7da"/><path d="m398.023438 83.316406c0-18.636718-5.320313-35.867187-14.292969-49.761718-7.117188 7.15625-17.152344 14.644531-30.742188 19.398437 5.304688 8.179687 8.507813 18.785156 8.507813 30.363281 0 25.804688-15.921875 46.796875-35.488282 46.796875v36.523438c39.707032 0 72.015626-37.375 72.015626-83.320313zm0 0" fill="#c6c5ca"/><path d="m214.4375 83.316406c0-18.636718-5.320312-35.867187-14.292969-49.761718-7.117187 7.15625-17.15625 14.640624-30.742187 19.394531 5.304687 8.179687 8.511718 18.789062 8.511718 30.367187 0 25.804688-15.925781 46.796875-35.492187 46.796875v36.523438c39.710937 0 72.015625-37.375 72.015625-83.320313zm0 0" fill="#c6c5ca"/><path d="m398.71875 512h-323.175781c-41.722657 0-75.542969-33.820312-75.542969-75.542969v-289.097656c0-41.71875 33.820312-75.539063 75.542969-75.539063h323.175781c41.722656 0 75.542969 33.820313 75.542969 75.539063v289.097656c0 41.722657-33.820313 75.542969-75.542969 75.542969zm0 0" fill="#ccf8ff"/><path d="m0 147.359375v289.097656c0 41.722657 33.820312 75.542969 75.542969 75.542969h55.121093c-32.914062-19.484375-32.28125-68.585938-32.28125-68.585938s.574219-114.679687.445313-174.53125c-.039063-18.667968 8.59375-36.105468 22.945313-48.039062 25.933593-21.566406 20.644531-54.207031 20.644531-54.207031v-36.523438c-17.375-37.464843 7.546875-58.292969 7.546875-58.292969h-74.421875c-41.722657 0-75.542969 33.820313-75.542969 75.539063zm0 0" fill="#abebf4"/><path d="m398.71875 71.820312h-323.175781c-41.722657 0-75.542969 33.820313-75.542969 75.539063v62.621094h474.261719v-62.621094c0-41.71875-33.820313-75.539063-75.542969-75.539063zm0 0" fill="#ff929f"/><path d="m0 147.359375v62.621094h131.863281c14.308594-20.1875 10.558594-43.34375 10.558594-43.34375v-36.523438c-17.378906-37.460937 7.546875-58.292969 7.546875-58.292969h-74.425781c-41.722657 0-75.542969 33.820313-75.542969 75.539063zm0 0" fill="#ff737d"/><path d="m142.421875 166.636719c-39.710937 0-72.019531-37.375-72.019531-83.320313 0-45.9375 32.308594-83.316406 72.019531-83.316406 10.085937 0 18.261719 8.175781 18.261719 18.261719 0 10.085937-8.175782 18.261719-18.261719 18.261719-19.574219 0-35.496094 20.992187-35.496094 46.792968 0 25.804688 15.921875 46.796875 35.496094 46.796875 10.085937 0 18.261719 8.175781 18.261719 18.261719s-8.175782 18.261719-18.261719 18.261719zm0 0" fill="#d8d7da"/><path d="m326.007812 166.636719c-39.710937 0-72.019531-37.375-72.019531-83.320313 0-45.9375 32.304688-83.316406 72.019531-83.316406 10.082032 0 18.261719 8.175781 18.261719 18.261719 0 10.085937-8.179687 18.261719-18.261719 18.261719-19.574218 0-35.496093 20.992187-35.496093 46.792968 0 25.804688 15.921875 46.796875 35.496093 46.796875 10.082032 0 18.261719 8.175781 18.261719 18.261719s-8.179687 18.261719-18.261719 18.261719zm0 0" fill="#d8d7da"/><g fill="#b2e59c"><path d="m122.582031 342.09375h-35.804687c-15.125 0-27.386719-12.261719-27.386719-27.386719v-35.800781c0-15.125 12.261719-27.386719 27.386719-27.386719h35.804687c15.125 0 27.386719 12.257813 27.386719 27.386719v35.800781c0 15.125-12.261719 27.386719-27.386719 27.386719zm0 0"/><path d="m255.03125 342.09375h-35.800781c-15.125 0-27.390625-12.261719-27.390625-27.386719v-35.800781c0-15.125 12.261718-27.386719 27.390625-27.386719h35.800781c15.125 0 27.386719 12.257813 27.386719 27.386719v35.800781c0 15.125-12.261719 27.386719-27.386719 27.386719zm0 0"/><path d="m387.480469 342.09375h-35.800781c-15.125 0-27.386719-12.261719-27.386719-27.386719v-35.800781c0-15.125 12.261719-27.386719 27.386719-27.386719h35.800781c15.125 0 27.386719 12.257813 27.386719 27.386719v35.800781c0 15.125-12.261719 27.386719-27.386719 27.386719zm0 0"/><path d="m122.582031 470.460938h-35.804687c-15.125 0-27.386719-12.261719-27.386719-27.386719v-35.800781c0-15.125 12.261719-27.386719 27.386719-27.386719h35.804687c15.125 0 27.386719 12.261719 27.386719 27.386719v35.800781c0 15.125-12.261719 27.386719-27.386719 27.386719zm0 0"/></g><path d="m98.828125 268.882812c-.011719-5.960937.859375-11.792968 2.519531-17.363281h-14.566406c-15.128906 0-27.390625 12.261719-27.390625 27.386719v35.800781c0 15.125 12.261719 27.386719 27.390625 27.386719h11.988281c.066407-26.300781.105469-52.910156.058594-73.210938zm0 0" fill="#9ad880"/><path d="m59.390625 407.273438v35.800781c0 15.125 12.261719 27.386719 27.390625 27.386719h15.417969c-3.972657-14.738282-3.8125-27.046876-3.8125-27.046876s.140625-27.992187.265625-63.527343h-11.871094c-15.128906 0-27.390625 12.261719-27.390625 27.386719zm0 0" fill="#9ad880"/><path d="m255.03125 470.460938h-35.800781c-15.125 0-27.390625-12.261719-27.390625-27.386719v-35.800781c0-15.125 12.261718-27.386719 27.390625-27.386719h35.800781c15.125 0 27.386719 12.261719 27.386719 27.386719v35.800781c0 15.125-12.261719 27.386719-27.386719 27.386719zm0 0" fill="#b2e59c"/><path d="m387.480469 470.460938h-35.800781c-15.125 0-27.386719-12.261719-27.386719-27.386719v-35.800781c0-15.125 12.261719-27.386719 27.386719-27.386719h35.800781c15.125 0 27.386719 12.261719 27.386719 27.386719v35.800781c0 15.125-12.261719 27.386719-27.386719 27.386719zm0 0" fill="#b2e59c"/></svg>