<svg height="511pt" viewBox="1 -42 511.99897 511" width="511pt" xmlns="http://www.w3.org/2000/svg"><path d="m379.804688 221.90625h-247.609376c-27.382812 0-49.660156 22.277344-49.660156 49.660156v81.15625h30.902344v-81.15625c0-10.34375 8.414062-18.757812 18.757812-18.757812h247.609376c10.34375 0 18.757812 8.414062 18.757812 18.757812v81.15625h30.902344v-81.15625c0-27.382812-22.277344-49.660156-49.660156-49.660156zm0 0" fill="#ccf8ff"/><path d="m165.015625 428.230469h-134.058594c-17.097656 0-30.957031-13.859375-30.957031-30.957031v-39.242188c0-17.097656 13.859375-30.957031 30.957031-30.957031h134.058594c17.097656 0 30.957031 13.859375 30.957031 30.957031v39.242188c0 17.097656-13.859375 30.957031-30.957031 30.957031zm0 0" fill="#abebf4"/><path d="m60.027344 397.273438v-39.242188c0-17.097656 13.859375-30.957031 30.957031-30.957031h-60.027344c-17.097656 0-30.957031 13.859375-30.957031 30.957031v39.242188c0 17.097656 13.859375 30.957031 30.957031 30.957031h60.027344c-17.097656 0-30.957031-13.859375-30.957031-30.957031zm0 0" fill="#8ed7e8"/><path d="m481.042969 428.230469h-134.058594c-17.097656 0-30.957031-13.859375-30.957031-30.957031v-39.242188c0-17.097656 13.859375-30.957031 30.957031-30.957031h134.058594c17.097656 0 30.957031 13.859375 30.957031 30.957031v39.242188c0 17.097656-13.859375 30.957031-30.957031 30.957031zm0 0" fill="#abebf4"/><path d="m376.054688 397.273438v-39.242188c0-17.097656 13.859374-30.957031 30.953124-30.957031h-60.023437c-17.097656 0-30.957031 13.859375-30.957031 30.957031v39.242188c0 17.097656 13.859375 30.957031 30.957031 30.957031h60.023437c-17.09375 0-30.953124-13.859375-30.953124-30.957031zm0 0" fill="#8ed7e8"/><path d="m240.546875 87.234375h30.90625v136.667969h-30.90625zm0 0" fill="#ccf8ff"/><path d="m239.308594 289.933594-35.882813-35.886719c-9.21875-9.214844-9.21875-24.160156 0-33.378906l35.882813-35.882813c9.21875-9.21875 24.164062-9.21875 33.382812 0l35.882813 35.882813c9.21875 9.21875 9.21875 24.164062 0 33.378906l-35.882813 35.886719c-9.21875 9.214844-24.164062 9.214844-33.382812 0zm0 0" fill="#b2e59c"/><path d="m256.148438 254.046875c-9.21875-9.21875-9.21875-24.164063 0-33.378906l26.210937-26.214844-9.667969-9.667969c-9.21875-9.21875-24.164062-9.21875-33.382812 0l-35.882813 35.882813c-9.21875 9.21875-9.21875 24.164062 0 33.378906l35.882813 35.886719c9.21875 9.21875 24.164062 9.21875 33.382812 0l9.667969-9.671875zm0 0" fill="#9ad880"/><path d="m349.957031 126.742188h-187.914062c-17.097657 0-30.957031-13.859376-30.957031-30.957032v-64.328125c0-17.097656 13.859374-30.957031 30.957031-30.957031h187.914062c17.097657 0 30.957031 13.859375 30.957031 30.957031v64.328125c0 17.097656-13.859374 30.957032-30.957031 30.957032zm0 0" fill="#ffeb99"/><path d="m199.097656 95.785156v-64.328125c0-17.097656 13.863282-30.957031 30.957032-30.957031h-68.011719c-17.097657 0-30.957031 13.859375-30.957031 30.957031v64.328125c0 17.097656 13.859374 30.957032 30.957031 30.957032h68.011719c-17.09375 0-30.957032-13.859376-30.957032-30.957032zm0 0" fill="#ffde55"/></svg>