<svg height="512pt" viewBox="-45 0 512 512" width="512pt" xmlns="http://www.w3.org/2000/svg"><path d="m0 85.828125v340.34375c0 47.402344 38.425781 85.828125 85.828125 85.828125h251.039063c47.402343 0 85.832031-38.425781 85.832031-85.828125v-340.34375c0-47.402344-38.429688-85.828125-85.832031-85.828125h-251.039063c-47.402344 0-85.828125 38.425781-85.828125 85.828125zm0 0" fill="#eaeaea"/><path d="m195.730469 0h-109.902344c-47.402344 0-85.828125 38.425781-85.828125 85.828125v340.34375c0 47.402344 38.425781 85.828125 85.828125 85.828125h41.441406c-36.46875-32.089844-34.085937-90.199219-34.085937-90.199219s-.132813-66.132812-.175782-124.398437c-.035156-48.480469 16.054688-95.441406 45.054688-134.292969 50.3125-67.410156 56.90625-139.773437 57.667969-163.109375zm0 0" fill="#d8d7da"/><path d="m0 170.667969h422.699219v170.667969h-422.699219zm0 0" fill="#d8d7da"/><path d="m360.65625 85.332031c0 16.433594-13.320312 29.753907-29.753906 29.753907-16.429688 0-29.75-13.320313-29.75-29.753907 0-16.429687 13.320312-29.75 29.75-29.75 16.433594 0 29.753906 13.320313 29.753906 29.75zm0 0" fill="#abebf4"/><path d="m154.871094 105.3125h91.914062c10.992188 0 19.984375-8.988281 19.984375-19.980469 0-10.988281-8.992187-19.980469-19.984375-19.980469h-91.914062c-10.988282 0-19.980469 8.992188-19.980469 19.980469 0 10.992188 8.992187 19.980469 19.980469 19.980469zm0 0" fill="#d8d7da"/><path d="m360.65625 256c0 16.429688-13.320312 29.75-29.753906 29.75-16.429688 0-29.75-13.320312-29.75-29.75s13.320312-29.75 29.75-29.75c16.433594 0 29.753906 13.320312 29.753906 29.75zm0 0" fill="#9ad880"/><path d="m154.871094 275.980469h91.914062c10.992188 0 19.984375-8.992188 19.984375-19.980469s-8.992187-19.980469-19.984375-19.980469h-91.914062c-10.988282 0-19.980469 8.992188-19.980469 19.980469s8.992187 19.980469 19.980469 19.980469zm0 0" fill="#c6c5ca"/><path d="m360.65625 426.667969c0 16.429687-13.320312 29.75-29.753906 29.75-16.429688 0-29.75-13.320313-29.75-29.75 0-16.433594 13.320312-29.753907 29.75-29.753907 16.433594 0 29.753906 13.320313 29.753906 29.753907zm0 0" fill="#abebf4"/><path d="m154.871094 446.648438h91.914062c10.992188 0 19.984375-8.992188 19.984375-19.980469 0-10.992188-8.992187-19.980469-19.984375-19.980469h-91.914062c-10.988282 0-19.980469 8.988281-19.980469 19.980469 0 10.988281 8.992187 19.980469 19.980469 19.980469zm0 0" fill="#d8d7da"/><g fill="#c6c5ca"><path d="m154.871094 65.351562c-10.988282 0-19.980469 8.992188-19.980469 19.980469 0 10.992188 8.992187 19.980469 19.980469 19.980469h16.515625c6.027343-13.964844 10.570312-27.453125 13.996093-39.960938zm0 0"/><path d="m132.652344 170.667969h-132.652344v170.664062h93.054688c-.019532-14.367187-.035157-29.390625-.046876-43.929687-.03125-45.378906 14.058594-89.421875 39.644532-126.734375zm0 0"/></g></svg>