<svg height="512pt" viewBox="-60 0 512 512" width="512pt" xmlns="http://www.w3.org/2000/svg"><path d="m174.03125 315.3125c-17.160156 0-31.199219-14.042969-31.199219-31.199219v-153.566406c0-17.160156 14.039063-31.199219 31.199219-31.199219s31.199219 14.039063 31.199219 31.199219v153.5625c0 17.160156-14.039063 31.203125-31.199219 31.203125zm0 0" fill="#ffcfc2"/><path d="m163.101562 455.390625-100.488281-113.324219c-12.199219-13.296875-14.339843-31.0625-3.082031-44.011718 11.257812-12.953126 31.0625-14.339844 44.015625-3.082032l86.363281 75.058594zm0 0" fill="#ffcfc2"/><path d="m105.109375 389.992188 57.992187 65.398437 26.808594-85.359375-65.449218-56.882812c-6.128907 16.707031-15.589844 42.828124-19.351563 76.84375zm0 0" fill="#ffbfb0"/><path d="m236.429688 315.3125c-17.160157 0-31.199219-14.042969-31.199219-31.199219v-32.269531c0-17.160156 14.039062-31.199219 31.199219-31.199219 17.160156 0 31.199218 14.039063 31.199218 31.199219v32.269531c0 17.15625-14.039062 31.199219-31.199218 31.199219zm0 0" fill="#ffbfb0"/><path d="m298.828125 315.3125c-17.160156 0-31.199219-14.042969-31.199219-31.199219v-32.269531c0-17.160156 14.039063-31.199219 31.199219-31.199219s31.199219 14.039063 31.199219 31.199219v32.269531c0 17.15625-14.039063 31.199219-31.199219 31.199219zm0 0" fill="#ffcfc2"/><path d="m361.226562 315.3125c-17.160156 0-31.199218-14.042969-31.199218-31.199219v-32.269531c0-17.160156 14.039062-31.199219 31.199218-31.199219 17.15625 0 31.195313 14.039063 31.195313 31.199219v32.269531c0 17.15625-14.039063 31.199219-31.195313 31.199219zm0 0" fill="#ffbfb0"/><path d="m267.628906 512c-68.925781 0-124.796875-55.871094-124.796875-124.796875v-110.125h249.589844v110.125c0 68.925781-55.871094 124.796875-124.792969 124.796875zm0 0" fill="#ffe2d9"/><path d="m100.003906 99.679688c-6.945312 6.945312-18.308594 6.945312-25.253906 0l-44.742188-44.746094c-6.945312-6.945313-6.945312-18.308594 0-25.253906 6.945313-6.945313 18.308594-6.945313 25.253907 0l44.746093 44.746093c6.945313 6.945313 6.945313 18.308594-.003906 25.253907zm0 0" fill="#ffde55"/><path d="m70.441406 162.769531c0 9.820313-8.035156 17.855469-17.855468 17.855469h-34.726563c-9.824219 0-17.859375-8.035156-17.859375-17.855469 0-9.824219 8.035156-17.859375 17.859375-17.859375h34.726563c9.820312 0 17.855468 8.035156 17.855468 17.859375zm0 0" fill="#ffeb99"/><path d="m174.03125 70.441406c-9.824219 0-17.859375-8.035156-17.859375-17.859375v-34.722656c0-9.824219 8.035156-17.859375 17.859375-17.859375 9.820312 0 17.855469 8.035156 17.855469 17.859375v34.726563c.003906 9.820312-8.035157 17.855468-17.855469 17.855468zm0 0" fill="#ffeb99"/><path d="m248.054688 99.679688c6.945312 6.945312 18.3125 6.945312 25.257812 0l44.746094-44.746094c6.945312-6.945313 6.945312-18.308594 0-25.253906-6.945313-6.945313-18.3125-6.945313-25.257813 0l-44.746093 44.746093c-6.945313 6.945313-6.945313 18.308594 0 25.253907zm0 0" fill="#ffde55"/><path d="m277.621094 162.769531c0 9.820313 8.035156 17.855469 17.855468 17.855469h34.726563c9.824219 0 17.859375-8.035156 17.859375-17.855469 0-9.824219-8.035156-17.859375-17.859375-17.859375h-34.726563c-9.820312 0-17.855468 8.035156-17.855468 17.859375zm0 0" fill="#ffeb99"/></svg>