<svg height="511pt" viewBox="1 -106 511.99999 511" width="511pt" xmlns="http://www.w3.org/2000/svg"><path d="m114.457031 299.183594c97.570313 0 83.539063-32.949219 141.542969-32.949219s43.972656 32.949219 141.542969 32.949219v-228.910156c-55.886719 0-56-69.773438-141.542969-69.773438s-85.65625 69.773438-141.542969 69.773438zm0 0" fill="#4b5866"/><path d="m512 184.726562c0 63.214844-51.246094 114.457032-114.457031 114.457032-63.214844 0-114.457031-51.242188-114.457031-114.457032 0-63.210937 51.242187-114.457031 114.457031-114.457031 63.210937 0 114.457031 51.246094 114.457031 114.457031zm0 0" fill="#596673"/><path d="m474.039062 184.726562c0 42.25-34.25 76.496094-76.496093 76.496094-42.246094 0-76.496094-34.246094-76.496094-76.496094 0-42.246093 34.25-76.492187 76.496094-76.492187 42.246093 0 76.496093 34.246094 76.496093 76.492187zm0 0" fill="#5bb68d"/><path d="m418.144531 240.621094c-42.246093 0-76.492187-34.25-76.492187-76.496094 0-15.859375 4.824218-30.585938 13.085937-42.804688-20.328125 13.75-33.691406 37.019532-33.691406 63.40625 0 42.25 34.25 76.496094 76.496094 76.496094 26.390625 0 49.65625-13.363281 63.40625-33.691406-12.214844 8.261719-26.945313 13.089844-42.804688 13.089844zm0 0" fill="#51a27d"/><path d="m228.914062 184.726562c0 63.214844-51.242187 114.457032-114.457031 114.457032-63.210937 0-114.457031-51.242188-114.457031-114.457032 0-63.210937 51.246094-114.457031 114.457031-114.457031 63.214844 0 114.457031 51.246094 114.457031 114.457031zm0 0" fill="#596673"/><path d="m190.953125 184.726562c0 42.25-34.25 76.496094-76.496094 76.496094-42.246093 0-76.496093-34.246094-76.496093-76.496094 0-42.246093 34.25-76.492187 76.496093-76.492187 42.246094 0 76.496094 34.246094 76.496094 76.492187zm0 0" fill="#5bb68d"/><path d="m135.0625 240.621094c-42.25 0-76.496094-34.25-76.496094-76.496094 0-15.859375 4.824219-30.585938 13.085938-42.804688-20.328125 13.75-33.691406 37.019532-33.691406 63.40625 0 42.25 34.25 76.496094 76.496093 76.496094 26.390625 0 49.65625-13.363281 63.40625-33.691406-12.214843 8.261719-26.945312 13.089844-42.800781 13.089844zm0 0" fill="#51a27d"/><path d="m274.625 57.597656c0 10.285156-8.339844 18.625-18.625 18.625s-18.625-8.339844-18.625-18.625 8.339844-18.625 18.625-18.625 18.625 8.339844 18.625 18.625zm0 0" fill="#fb7073"/></svg>