<svg height="512pt" viewBox="-35 0 512 512" width="512pt" xmlns="http://www.w3.org/2000/svg"><g fill="#5c5766"><path d="m274.433594 27.222656c-2.128906-15.597656-15.449219-27.222656-31.1875-27.222656h-43.9375c-15.738282 0-29.058594 11.625-31.1875 27.222656l-6.046875 44.335938h118.40625zm0 0"/><path d="m27.152344 31.191406c-6.296875 5.503906-12.375 11.296875-18.222656 17.363282-13.320313 13.820312-11.484376 36.207031 3.8125 47.804687l.105468.078125 61.921875-58.875c-10.757812-15.960938-33.125-19.035156-47.617187-6.371094zm0 0"/><path d="m415.402344 31.191406c6.296875 5.503906 12.375 11.296875 18.222656 17.363282 13.320312 13.820312 11.484375 36.207031-3.8125 47.804687l-.105469.078125-61.921875-58.875c10.757813-15.960938 33.125-19.035156 47.617188-6.371094zm0 0"/></g><path d="m169.730469 20.71875c-.75 2.070312-1.300781 4.242188-1.609375 6.503906l-6.046875 44.339844h118.40625l-6.046875-44.339844c-.308594-2.261718-.859375-4.433594-1.609375-6.503906-16.8125-3.675781-34.035157-5.542969-51.546875-5.542969-17.507813 0-34.734375 1.867188-51.546875 5.542969zm0 0" fill="#514e5b"/><path d="m441.210938 255.714844c0-34.164063-7.789063-66.507813-21.691407-95.355469l13.808594-30.265625c5.035156-11.035156 3.710937-23.988281-3.621094-33.65625-17.355469-22.894531-38.097656-42.816406-61.921875-58.875-11.398437-7.6875-26.386718-7.445312-37.617187.488281l-22.011719 15.558594.007812.011719c-26.652343-11.472656-56.023437-17.84375-86.886718-17.84375-30.859375 0-60.230469 6.371094-86.886719 17.84375l.007813-.011719-22.011719-15.558594c-11.226563-7.9375-26.214844-8.175781-37.617188-.488281-23.824219 16.058594-44.566406 35.980469-61.921875 58.875-7.332031 9.667969-8.65625 22.621094-3.621094 33.65625l13.808594 30.265625c-13.902344 28.847656-21.691406 61.191406-21.691406 95.355469 0 103.722656 71.808594 190.664062 168.421875 213.851562v18.640625c0 13.140625 10.65625 23.792969 23.796875 23.792969h55.433594c13.140625 0 23.792968-10.652344 23.792968-23.792969v-18.640625c96.613282-23.1875 168.421876-110.128906 168.421876-213.851562zm0 0" fill="#f05e71"/><path d="m69.535156 73.445312-16.773437 16.769532c-4.023438 4.023437-1.175781 10.894531 4.511719 10.894531h16.773437c3.527344 0 6.382813-2.855469 6.382813-6.378906v-16.773438c0-5.6875-6.875-8.535156-10.894532-4.511719zm0 0" fill="#78da96"/><path d="m392.164062 255.714844c0 94.378906-76.507812 170.886718-170.886718 170.886718s-170.886719-76.507812-170.886719-170.886718 76.507813-170.886719 170.886719-170.886719 170.886718 76.507813 170.886718 170.886719zm0 0" fill="#5c5766"/><path d="m373.019531 73.445312 16.773438 16.773438c4.023437 4.019531 1.175781 10.894531-4.511719 10.894531h-16.773438c-3.523437 0-6.382812-2.859375-6.382812-6.382812v-16.773438c0-5.6875 6.875-8.535156 10.894531-4.511719zm0 0" fill="#78da96"/><path d="m318.160156 186.46875h-193.765625c-14.578125 0-26.398437 11.820312-26.398437 26.398438v85.695312c0 14.578125 11.820312 26.398438 26.398437 26.398438h193.765625c14.578125 0 26.398438-11.820313 26.398438-26.398438v-85.695312c0-14.578126-11.820313-26.398438-26.398438-26.398438zm0 0" fill="#78da96"/><path d="m128.898438 298.558594v-85.691406c0-14.582032 11.820312-26.402344 26.402343-26.402344h-30.90625c-14.578125 0-26.398437 11.820312-26.398437 26.402344v85.691406c0 14.582031 11.820312 26.402344 26.398437 26.402344h30.90625c-14.582031 0-26.402343-11.820313-26.402343-26.402344zm0 0" fill="#6ace85"/><path d="m154.175781 266.273438c-4.269531 0-7.726562-3.460938-7.726562-7.726563v-12.144531c0-4.269532 3.457031-7.726563 7.726562-7.726563 4.265625 0 7.726563 3.457031 7.726563 7.726563v12.144531c0 4.265625-3.460938 7.726563-7.726563 7.726563zm0 0" fill="#514e5b"/><path d="m288.378906 266.273438c-4.265625 0-7.726562-3.460938-7.726562-7.726563v-12.144531c0-4.269532 3.460937-7.726563 7.726562-7.726563s7.726563 3.457031 7.726563 7.726563v12.144531c0 4.265625-3.460938 7.726563-7.726563 7.726563zm0 0" fill="#514e5b"/><path d="m221.277344 272.753906c-8.683594 0-16.839844-3.632812-22.378906-9.96875-2.808594-3.214844-2.480469-8.09375.730468-10.902344 3.214844-2.808593 8.09375-2.480468 10.902344.730469 2.605469 2.980469 6.519531 4.6875 10.746094 4.6875 4.226562 0 8.140625-1.707031 10.746094-4.6875 2.808593-3.210937 7.6875-3.539062 10.902343-.730469 3.210938 2.808594 3.539063 7.691407.730469 10.902344-5.539062 6.335938-13.695312 9.96875-22.378906 9.96875zm0 0" fill="#514e5b"/><path d="m237.839844 485.542969h-33.125c-4.265625 0-7.726563-3.460938-7.726563-7.726563s3.460938-7.726562 7.726563-7.726562h33.125c4.265625 0 7.726562 3.460937 7.726562 7.726562s-3.460937 7.726563-7.726562 7.726563zm0 0" fill="#5c5766"/></svg>