<svg height="512pt" viewBox="0 -86 512 512" width="512pt" xmlns="http://www.w3.org/2000/svg"><path d="m256 44.535156c-147.023438-143.6875-390.5625 88.675782-7.222656 294.050782 4.507812 2.414062 9.9375 2.414062 14.445312 0 383.339844-205.375 139.800782-437.734376-7.222656-294.050782zm0 0" fill="#f05e71"/><path d="m169.5625.90625c-128.976562-15.472656-233.601562 170.085938 79.214844 337.679688 4.507812 2.414062 9.9375 2.414062 14.445312 0 2.625-1.40625 5.210938-2.8125 7.777344-4.222657-279.046875-153.167969-213.34375-319.765625-101.4375-333.457031zm0 0" fill="#e85066"/><path d="m256 289.824219c-.101562 0-.199219 0-.300781-.003907-3.058594-.125-5.734375-2.089843-6.761719-4.972656l-63.300781-177.21875-48.449219 110.039063c-1.210938 2.75-3.929688 4.550781-6.953125 4.476562-3.003906-.035156-5.695313-1.859375-6.84375-4.636719l-16.449219-39.808593h-99.441406c-4.140625 0-7.5-3.359375-7.5-7.5 0-4.144531 3.359375-7.5 7.5-7.5h104.457031c3.035157 0 5.773438 1.828125 6.933594 4.636719l11.648437 28.199218 48.957032-111.191406c1.238281-2.8125 4.074218-4.585938 7.132812-4.472656 3.070313.109375 5.761719 2.078125 6.796875 4.972656l63.378907 177.4375 61.996093-137.589844c1.175781-2.613281 3.738281-4.328125 6.601563-4.417968 2.847656-.117188 5.527344 1.460937 6.867187 3.992187l39.925781 75.503906 21.53125-33.617187c1.378907-2.152344 3.757813-3.457032 6.316407-3.457032h104.457031c4.140625 0 7.5 3.359376 7.5 7.5 0 4.144532-3.359375 7.5-7.5 7.5h-100.355469l-26.25 40.992188c-1.441406 2.25-3.964843 3.558594-6.628906 3.449219s-5.070313-1.628907-6.320313-3.988281l-38.769531-73.316407-63.335937 140.574219c-1.21875 2.699219-3.898438 4.417969-6.839844 4.417969zm0 0" fill="#78da96"/></svg>