<?xml version="1.0" encoding="iso-8859-1"?>
<!-- Generator: Adobe Illustrator 19.0.0, SVG Export Plug-In . SVG Version: 6.00 Build 0)  -->
<svg version="1.1" id="Capa_1" xmlns="http://www.w3.org/2000/svg" xmlns:xlink="http://www.w3.org/1999/xlink" x="0px" y="0px"
	 viewBox="0 0 512 512" style="enable-background:new 0 0 512 512;" xml:space="preserve">
<path style="fill:#E8E8E8;" d="M431.064,300.247c44.7,0,80.936-36.236,80.936-80.936s-36.236-80.936-80.936-80.936H194.538v161.873
	L431.064,300.247L431.064,300.247z"/>
<path style="opacity:0.1;enable-background:new    ;" d="M194.538,300.247h122.649c19.275-21.455,31.006-49.824,31.006-80.936
	s-11.732-59.481-31.006-80.936H194.538V300.247z"/>
<path style="fill:#90DCA3;" d="M11.053,349.428c-14.737,14.737-14.737,38.631,0,53.368c14.738,14.737,38.63,14.737,53.368,0
	l97.203-97.203c14.737-14.737,14.737-38.631,0-53.368c-14.738-14.736-38.63-14.736-53.368,0L11.053,349.428z"/>
<rect x="66.028" y="282.568" transform="matrix(-0.7071 0.7071 -0.7071 -0.7071 386.159 480.6527)" style="opacity:0.1;enable-background:new    ;" width="55.009" height="75.469"/>
<path style="fill:#FBE096;" d="M165.231,325.188l-76.569-76.569L68.099,269.18c-10.627,10.627-10.627,27.856,0,38.483l38.086,38.086
	c10.627,10.627,27.856,10.627,38.483,0L165.231,325.188z"/>
<circle style="fill:#404B58;" cx="194.54" cy="219.31" r="121.16"/>
<path style="opacity:0.1;enable-background:new    ;" d="M274.726,128.494c18.879,21.365,30.342,49.436,30.342,80.188
	c0,66.914-54.245,121.159-121.159,121.159c-30.752,0-58.823-11.463-80.188-30.342c22.2,25.123,54.655,40.971,90.817,40.971
	c66.914,0,121.159-54.245,121.159-121.159C315.697,183.149,299.849,150.694,274.726,128.494z"/>
<circle style="fill:#79C6E4;" cx="194.54" cy="219.311" r="78.58"/>
<path style="opacity:0.1;enable-background:new    ;" d="M194.538,140.734c-43.397,0-78.577,35.18-78.577,78.577
	c0,23.939,10.719,45.363,27.604,59.775c-11.714-13.724-18.802-31.516-18.802-50.973c0-43.397,35.18-78.577,78.577-78.577
	c19.458,0,37.25,7.088,50.974,18.802C239.901,151.453,218.477,140.734,194.538,140.734z"/>
<g>
</g>
<g>
</g>
<g>
</g>
<g>
</g>
<g>
</g>
<g>
</g>
<g>
</g>
<g>
</g>
<g>
</g>
<g>
</g>
<g>
</g>
<g>
</g>
<g>
</g>
<g>
</g>
<g>
</g>
</svg>
