<svg version="1.1" viewBox="0 0 32 32" xmlns="http://www.w3.org/2000/svg">
 <g transform="matrix(1.2022 0 0 1.2022 .52276 .58601)" fill="#81d9e7">
  <path d="m16.099 13.937c-0.06002 0.29228-0.25954 0.56507-0.62664 0.477-1.32-0.312-3.391-0.406-4.617-0.109-0.45 0.109-0.661-0.087-0.83-0.626-0.4213-1.337-1.0869-2.951-0.9435-5.0176 0.3203-4.6305 2.2325-5.9126 3.6725-5.8292 1.4403 0.083396 5.1417 2.3717 3.3452 11.105zm-5.925 2.763s-0.25798 0.80357-0.40295 2.1122c-0.24006 2.1644 0.22525 3.6663 2.339 3.9703 1.7833 0.2572 2.9282-1.0834 3.1667-3.2478 0.14419-1.3078 0.15666-2.1426 0.15666-2.1426l-5.2594-0.69211z" fill="#81d9e7"/>
 </g>
 <path d="m3.9062 22.188-0.8125 0.59375s0.4523 0.60274 1.0625 1.2812c0.6102 0.67851 1.3623 1.4296 2.0938 1.8438 0.71413 0.40433 1.7226 0.64314 2.5938 0.8125 0.87111 0.16936 1.5938 0.25 1.5938 0.25l0.124-0.97s-0.70135-0.08865-1.5312-0.25c-0.8294-0.161-1.799-0.415-2.2808-0.688-0.4992-0.282-1.2616-1.04-1.8438-1.687-0.58213-0.6473-1-1.1875-1-1.1875z" color="#000000" fill="#f9ee80" style="block-progression:tb;text-indent:0;text-transform:none"/>
 <path d="m4.2304 23.435 1.4022 0.184-2.9252-2.167 1.3392 3.385 0.1838-1.402z" fill="#29ce69" fill-rule="evenodd" stroke="#29ce69" stroke-width=".2pt"/>
 <path d="m28.094 22.188s-0.41787 0.5402-1 1.1875-1.3446 1.4049-1.8438 1.6875c-0.48184 0.27282-1.4514 0.52615-2.2812 0.6875-0.83 0.159-1.531 0.248-1.531 0.248l0.125 0.96875s0.72264-0.08064 1.5938-0.25c0.87111-0.16936 1.8796-0.40817 2.5938-0.8125 0.73147-0.41415 1.4835-1.1652 2.0938-1.8438 0.6102-0.67851 1.0625-1.2812 1.0625-1.2812l-0.8125-0.59375z" color="#000000" fill="#f9ee80" style="block-progression:tb;text-indent:0;text-transform:none"/>
 <path d="m27.77 23.435 0.18381 1.4022 1.3392-3.3848-2.9252 2.1664 1.4022-0.18381z" fill="#29ce69" fill-rule="evenodd" stroke="#29ce69" stroke-width=".2pt"/>
</svg>
