<svg version="1.1" viewBox="0 0 32 32" xmlns="http://www.w3.org/2000/svg">
 <path d="m15.5 15.969s-0.03999 1.1132-0.1875 2.4062-0.4392 2.7943-0.75 3.375c-0.63029 1.1777-1.6017 2.3056-2.75 2.7812-0.7471 0.30946-2.2292 0.34345-3.4688 0.25-1.239-0.093-2.2494-0.281-2.2494-0.281l-0.1875 1s1.0765 0.18336 2.375 0.28125 2.8056 0.14341 3.9062-0.3125c1.4649-0.60677 2.5457-1.9027 3.25-3.2188 0.4912-0.91782 0.72301-2.4177 0.875-3.75 0.151-1.331 0.187-2.468 0.187-2.468l-1-0.0625z" color="#000000" fill="#81d9e7" style="block-progression:tb;text-indent:0;text-transform:none"/>
 <path d="m23.75 16s-0.12965 1.9781 0 3.0312c0.17071 1.3867 0.51752 2.7582 1 4.0625 0.52069 1.4076 1.17 2.8243 2.0625 4.0625 1.1186 1.5519 2.4793 2.9127 4.0312 4.0312 1.2743 0.91846 4.0625 2.0312 4.0625 2.0312l0.1875-0.4375s-2.7931-1.1439-3.9375-1.9688c-1.5075-1.0865-2.8822-2.4613-3.9688-3.9688-0.85082-1.1804-1.4238-2.5488-1.9375-3.9375-0.47119-1.2737-0.83486-2.5961-1-3.9375-0.115-0.929 0-2.966 0-2.966h-0.5z" color="#000000" fill="#81d9e7" style="block-progression:tb;text-indent:0;text-transform:none"/>
 <path d="m20 2c-2.7496 0-5 2.2504-5 5v10h2v-10c0-1.6687 1.3313-3 3-3s3 1.3313 3 3v10h2v-10c0-2.7496-2.25-5-5-5z" color="#000000" fill="#73da8c" style="block-progression:tb;text-indent:0;text-transform:none"/>
 <path d="m26 12v-5h-12v5z" fill="#81d9e7"/>
 <path d="m2.1875 23.25-0.3437 1.969 4.0624 0.719 0.3438-1.969-4.0625-0.719z" color="#000000" fill="#f9ee80" style="block-progression:tb;text-indent:0;text-transform:none"/>
</svg>
