<svg version="1.1" viewBox="0 0 32 32" xmlns="http://www.w3.org/2000/svg">
 <path d="m54.31 11.023 0.75576-1.5116c1.7735-2.1969 3.906-4.8803 6.0463-6.8021 1.6229 0.78747 3.0841 2.5407 3.7789 4.5347l-4.5346 4.5347c-1.7281 0.21996-2.714-0.20542-4.5348 0.75578 0 0-0.27106-0.7422-0.53294-1.0041-0.24196-0.24198-0.97858-0.50749-0.97858-0.50749z"/>
 <path d="m14.197 11.559-0.936-2.0673c-2.265-3.04-4.9863-6.7514-7.7579-9.4414-2.2185 0.97209-4.2703 3.2484-5.3064 5.8876l5.8481 6.3204c2.3072 0.3851 3.6521-0.13431 6.0451 1.2502 0 0 0.40232-0.98171 0.76734-1.3195 0.33724-0.31207 1.3394-0.62996 1.3394-0.62996z" fill="#81d9e7"/>
 <path d="m13.812 13.125a0.50005 0.50005 0 0 0 -0.343 0.875l18 18a0.50823 0.50823 0 1 0 0.71875 -0.71875l-18-18a0.50005 0.50005 0 0 0 -0.376 -0.156z" fill="#81d9e7"/>
 <path d="m5.9736 23.598 1.7969-3.594c4.2164-5.223 9.2864-11.603 14.375-16.172 3.8586 1.8723 7.3327 6.0408 8.9847 10.782l-10.781 10.782c-4.1087 0.52298-6.4528-0.48841-10.782 1.7969 0 0-0.64447-1.7646-1.2671-2.3873-0.57528-0.57533-2.3267-1.2066-2.3267-1.2066z" fill="#73da8c"/>
 <path d="m5.0649 25.581a2.2002 2.2002 0 0 0 -1.3125 0.657l-6 6a2.2097 2.2097 0 1 0 3.125 3.125l6-6a2.2002 2.2002 0 0 0 -1.8125 -3.782z" fill="#8acba6"/>
 <path d="m5.9736 23.598 1.7969-3.594c4.2164-5.223 9.2864-11.603 14.375-16.172 3.8586 1.8723 5.0843 3.6879 7.0501 6.9127l-8.2712 5.7624c-2.7492 2.7191-4.2567 5.4724-8.5859 7.7577 0 0-3.4157 1.1635-4.0383 0.5408-0.57528-0.57533-2.3267-1.2066-2.3267-1.2066z" fill="#73c891"/>
 <path d="m14.197 11.559-7.6811-1.9104c-2.265-3.04-2.2673-4.0324-3.7318-7.3499-1.8002 1.2335-1.7605 2.3072-2.5874 3.6392l5.8481 6.3204c2.3072 0.3851 3.6521-0.13431 6.0451 1.2502 0 0 0.40232-0.98171 0.76734-1.3195 0.33724-0.31207 1.3394-0.62996 1.3394-0.62996z" fill="#bfd9e2" opacity=".551"/>
</svg>
