<?xml version="1.0" encoding="UTF-8" standalone="no"?>
<svg
   xmlns:dc="http://purl.org/dc/elements/1.1/"
   xmlns:cc="http://creativecommons.org/ns#"
   xmlns:rdf="http://www.w3.org/1999/02/22-rdf-syntax-ns#"
   xmlns:svg="http://www.w3.org/2000/svg"
   xmlns="http://www.w3.org/2000/svg"
   xmlns:sodipodi="http://sodipodi.sourceforge.net/DTD/sodipodi-0.dtd"
   xmlns:inkscape="http://www.inkscape.org/namespaces/inkscape"
   viewBox="0 0 32 32"
   version="1.1"
   id="svg10"
   sodipodi:docname="app-scull-oar.svg"
   inkscape:version="0.92.1 r15371">
  <metadata
     id="metadata16">
    <rdf:RDF>
      <cc:Work
         rdf:about="">
        <dc:format>image/svg+xml</dc:format>
        <dc:type
           rdf:resource="http://purl.org/dc/dcmitype/StillImage" />
        <dc:title></dc:title>
      </cc:Work>
    </rdf:RDF>
  </metadata>
  <defs
     id="defs14" />
  <sodipodi:namedview
     pagecolor="#ffffff"
     bordercolor="#666666"
     borderopacity="1"
     objecttolerance="10"
     gridtolerance="10"
     guidetolerance="10"
     inkscape:pageopacity="0"
     inkscape:pageshadow="2"
     inkscape:window-width="640"
     inkscape:window-height="480"
     id="namedview12"
     showgrid="false"
     inkscape:zoom="19.125"
     inkscape:cx="7.503268"
     inkscape:cy="16"
     inkscape:current-layer="svg10" />
  <path
     d="M17.976,11.621,18.912,9.5532c2.265-3.04,4.986-6.7514,7.758-9.4414,2.218,0.97207,4.27,3.2484,5.306,5.8876l-5.8481,6.3204c-2.3072,0.3851-3.6521-0.13431-6.0451,1.2502,0,0-0.40233-0.98171-0.76734-1.3195-0.33724-0.31207-1.3394-0.62996-1.3394-0.62996z"
     id="path2"
     style="fill:#29ce69;fill-opacity:1" />
  <path
     d="m18.188,13.188a0.50005,0.50005,0,0,0,-0.25,0.15625l-18,18a0.50823,0.50823,0,1,0,0.71875,0.71875l18-18a0.50005,0.50005,0,0,0,-0.46875,-0.875z"
     id="path4"
     style="fill:#29ce69;fill-opacity:1" />
  <path
     d="M14.197,11.559,13.261,9.4917c-2.265-3.04-4.9863-6.7514-7.7579-9.4414-2.2185,0.97209-4.2703,3.2484-5.3064,5.8876l5.8481,6.3204c2.3072,0.3851,3.6521-0.13431,6.0451,1.2502,0,0,0.40232-0.98171,0.76734-1.3195,0.33724-0.31207,1.3394-0.62996,1.3394-0.62996z"
     id="path6"
     style="fill:#81d9e7;fill-opacity:1" />
  <path
     d="M13.812,13.125a0.50005,0.50005,0,0,0,-0.343,0.875l18,18a0.50823,0.50823,0,1,0,0.71875,-0.71875l-18-18a0.50005,0.50005,0,0,0,-0.376,-0.156z"
     id="path8"
     style="fill:#81d9e7;fill-opacity:1" />
</svg>
