<?xml version="1.0" encoding="UTF-8" standalone="no"?>
<!-- Generator: Adobe Illustrator 19.0.0, SVG Export Plug-In . SVG Version: 6.00 Build 0)  -->

<svg
   xmlns:dc="http://purl.org/dc/elements/1.1/"
   xmlns:cc="http://creativecommons.org/ns#"
   xmlns:rdf="http://www.w3.org/1999/02/22-rdf-syntax-ns#"
   xmlns:svg="http://www.w3.org/2000/svg"
   xmlns="http://www.w3.org/2000/svg"
   xmlns:sodipodi="http://sodipodi.sourceforge.net/DTD/sodipodi-0.dtd"
   xmlns:inkscape="http://www.inkscape.org/namespaces/inkscape"
   version="1.1"
   id="Layer_1"
   x="0px"
   y="0px"
   viewBox="0 0 512 512"
   style="enable-background:new 0 0 512 512;"
   xml:space="preserve"
   sodipodi:docname="race.svg"
   inkscape:version="0.92.1 r15371"><metadata
     id="metadata153"><rdf:RDF><cc:Work
         rdf:about=""><dc:format>image/svg+xml</dc:format><dc:type
           rdf:resource="http://purl.org/dc/dcmitype/StillImage" /></cc:Work></rdf:RDF></metadata><defs
     id="defs151" /><sodipodi:namedview
     pagecolor="#ffffff"
     bordercolor="#666666"
     borderopacity="1"
     objecttolerance="10"
     gridtolerance="10"
     guidetolerance="10"
     inkscape:pageopacity="0"
     inkscape:pageshadow="2"
     inkscape:window-width="715"
     inkscape:window-height="480"
     id="namedview149"
     showgrid="false"
     inkscape:zoom="0.4609375"
     inkscape:cx="256"
     inkscape:cy="256"
     inkscape:window-x="0"
     inkscape:window-y="0"
     inkscape:window-maximized="0"
     inkscape:current-layer="Layer_1" /><circle
     style="fill:#bcdd73;fill-opacity:1"
     cx="256"
     cy="256"
     r="256"
     id="circle2" /><path
     style="fill:#a7c273;fill-opacity:1"
     d="M511.998,256c0-23.826-3.267-46.887-9.357-68.773l-75.974-75.974L170.955,234.087l-10.119,177.669  l100.18,100.18C400.084,509.262,511.998,395.709,511.998,256z"
     id="path4" /><path
     style="fill:#FFFFFF;"
     d="M426.667,258.655c-81.891-32.428-163.781,32.428-245.672,0c0-49.135,0-98.268,0-147.403  c81.891,32.428,163.781-32.428,245.672,0C426.667,160.385,426.667,209.52,426.667,258.655z"
     id="path6" /><path
     style="fill:#C4C4C4;"
     d="M302.833,111.449v147.403c41.277-8.171,82.556-16.543,123.833-0.198c0-49.135,0-98.268,0-147.403  C385.389,94.906,344.111,103.277,302.833,111.449z"
     id="path8" /><g
     id="g14"><path
       style="fill:#FFFFFF;"
       d="M303.831,258.655L303.831,258.655L303.831,258.655z"
       id="path10" /><path
       style="fill:#FFFFFF;"
       d="M426.667,258.655L426.667,258.655L426.667,258.655z"
       id="path12" /></g><g
     id="g22"><path
       style="fill:#3F3F3F;"
       d="M205.562,258.655h-24.567l0,0c8.189,3.243,16.379,5.499,24.567,6.99V258.655z"
       id="path16" /><path
       style="fill:#3F3F3F;"
       d="M230.129,258.655v9.333c8.189,0.129,16.379-0.322,24.567-1.165v-8.168H230.129z"
       id="path18" /><path
       style="fill:#3F3F3F;"
       d="M279.264,258.655v4.667c8.189-1.427,16.379-3.044,24.567-4.667l0,0H279.264z"
       id="path20" /></g><g
     id="g30"><path
       style="fill:#212121;"
       d="M328.397,106.586c-8.189,1.427-16.379,3.044-24.567,4.667h24.567V106.586z"
       id="path24" /><path
       style="fill:#212121;"
       d="M377.532,111.252v-9.333c-8.189-0.129-16.379,0.322-24.567,1.165v8.168H377.532z"
       id="path26" /><path
       style="fill:#212121;"
       d="M402.099,111.252h24.567c-8.189-3.243-16.379-5.499-24.567-6.99V111.252z"
       id="path28" /></g><g
     id="g38"><path
       style="fill:#3F3F3F;"
       d="M205.562,135.82v-17.577c-8.189-1.491-16.379-3.748-24.567-6.99c0,8.189,0,16.379,0,24.567   L205.562,135.82L205.562,135.82z"
       id="path32" /><path
       style="fill:#3F3F3F;"
       d="M254.697,119.418c-8.189,0.843-16.379,1.295-24.567,1.165v15.234h24.567V119.418z"
       id="path34" /><path
       style="fill:#3F3F3F;"
       d="M279.264,135.82h24.567v-24.567c-8.189,1.62-16.379,3.239-24.567,4.667V135.82z"
       id="path36" /></g><g
     id="g44"><rect
       x="328.404"
       y="111.244"
       style="fill:#212121;"
       width="24.567"
       height="24.567"
       id="rect40" /><rect
       x="377.535"
       y="111.244"
       style="fill:#212121;"
       width="24.567"
       height="24.567"
       id="rect42" /></g><g
     id="g50"><rect
       x="205.559"
       y="135.827"
       style="fill:#3F3F3F;"
       width="24.567"
       height="24.567"
       id="rect46" /><rect
       x="254.69"
       y="135.827"
       style="fill:#3F3F3F;"
       width="24.567"
       height="24.567"
       id="rect48" /></g><g
     id="g58"><rect
       x="303.838"
       y="135.827"
       style="fill:#212121;"
       width="24.567"
       height="24.567"
       id="rect52" /><rect
       x="352.97"
       y="135.827"
       style="fill:#212121;"
       width="24.567"
       height="24.567"
       id="rect54" /><path
       style="fill:#212121;"
       d="M402.099,160.385h24.567c0-8.189,0-16.379,0-24.567h-24.567V160.385z"
       id="path56" /></g><g
     id="g66"><path
       style="fill:#3F3F3F;"
       d="M205.562,160.385h-24.567c0,8.189,0,16.379,0,24.567h24.567V160.385z"
       id="path60" /><rect
       x="230.124"
       y="160.392"
       style="fill:#3F3F3F;"
       width="24.567"
       height="24.567"
       id="rect62" /><rect
       x="279.273"
       y="160.392"
       style="fill:#3F3F3F;"
       width="24.567"
       height="24.567"
       id="rect64" /></g><g
     id="g72"><rect
       x="328.404"
       y="160.392"
       style="fill:#212121;"
       width="24.567"
       height="24.567"
       id="rect68" /><rect
       x="377.535"
       y="160.392"
       style="fill:#212121;"
       width="24.567"
       height="24.567"
       id="rect70" /></g><g
     id="g78"><rect
       x="205.559"
       y="184.958"
       style="fill:#3F3F3F;"
       width="24.567"
       height="24.567"
       id="rect74" /><rect
       x="254.69"
       y="184.958"
       style="fill:#3F3F3F;"
       width="24.567"
       height="24.567"
       id="rect76" /></g><g
     id="g86"><rect
       x="303.838"
       y="184.958"
       style="fill:#212121;"
       width="24.567"
       height="24.567"
       id="rect80" /><rect
       x="352.97"
       y="184.958"
       style="fill:#212121;"
       width="24.567"
       height="24.567"
       id="rect82" /><path
       style="fill:#212121;"
       d="M402.099,209.52h24.567c0-8.189,0-16.379,0-24.567h-24.567V209.52z"
       id="path84" /></g><g
     id="g94"><path
       style="fill:#3F3F3F;"
       d="M205.562,209.52h-24.567c0,8.189,0,16.379,0,24.567h24.567V209.52z"
       id="path88" /><rect
       x="230.124"
       y="209.523"
       style="fill:#3F3F3F;"
       width="24.567"
       height="24.567"
       id="rect90" /><rect
       x="279.273"
       y="209.523"
       style="fill:#3F3F3F;"
       width="24.567"
       height="24.567"
       id="rect92" /></g><g
     id="g100"><rect
       x="328.404"
       y="209.523"
       style="fill:#212121;"
       width="24.567"
       height="24.567"
       id="rect96" /><rect
       x="377.535"
       y="209.523"
       style="fill:#212121;"
       width="24.567"
       height="24.567"
       id="rect98" /></g><g
     id="g106"><rect
       x="205.559"
       y="234.089"
       style="fill:#3F3F3F;"
       width="24.567"
       height="24.567"
       id="rect102" /><rect
       x="254.69"
       y="234.089"
       style="fill:#3F3F3F;"
       width="24.567"
       height="24.567"
       id="rect104" /></g><g
     id="g114"><path
       style="fill:#212121;"
       d="M328.397,234.087H303.83v24.567l0,0c8.189-1.622,16.377-3.239,24.567-4.667V234.087z"
       id="path108" /><path
       style="fill:#212121;"
       d="M352.965,250.487c8.189-0.843,16.379-1.295,24.567-1.165v-15.234h-24.567V250.487z"
       id="path110" /><path
       style="fill:#212121;"
       d="M402.099,251.664c8.189,1.491,16.377,3.748,24.567,6.99l0,0c0-8.189,0-16.379,0-24.567h-24.567   V251.664z"
       id="path112" /></g><path
     style="fill:#940030;"
     d="M168.712,414.618L168.712,414.618c6.784,0,12.283-5.499,12.283-12.283V107.529  c0-6.784-5.499-12.283-12.283-12.283l0,0c-6.784,0-12.283,5.499-12.283,12.283v294.805  C156.427,409.119,161.928,414.618,168.712,414.618z"
     id="path116" /><g
     id="g118" /><g
     id="g120" /><g
     id="g122" /><g
     id="g124" /><g
     id="g126" /><g
     id="g128" /><g
     id="g130" /><g
     id="g132" /><g
     id="g134" /><g
     id="g136" /><g
     id="g138" /><g
     id="g140" /><g
     id="g142" /><g
     id="g144" /><g
     id="g146" /></svg>