<svg version="1.1" viewBox="0 0 32 32" xmlns="http://www.w3.org/2000/svg">
 <path d="m5.6587 22.798 1.7969-3.594c4.2164-5.223 9.2864-11.603 14.375-16.172 3.8586 1.8723 7.3327 6.0408 8.9847 10.782l-10.781 10.782c-4.1087 0.52298-6.4528-0.48841-10.782 1.7969 0 0-0.64447-1.7646-1.2671-2.3873-0.57528-0.57533-2.3267-1.2066-2.3267-1.2066z" fill="#73da8c"/>
 <path d="m4.75 24.781a2.2002 2.2002 0 0 0 -1.3125 0.657l-6 6a2.2097 2.2097 0 1 0 3.125 3.125l6-6a2.2002 2.2002 0 0 0 -1.8125 -3.782z" fill="#8acba6"/>
 <path d="m5.6587 22.798 1.7969-3.594c4.2164-5.223 9.2864-11.603 14.375-16.172 3.8586 1.8723 5.0843 3.6879 7.0501 6.9127l-8.2712 5.7624c-2.7492 2.7191-4.2567 5.4724-8.5859 7.7577 0 0-3.4157 1.1635-4.0383 0.5408-0.57528-0.57533-2.3267-1.2066-2.3267-1.2066z" fill="#73c891"/>
</svg>
