<svg height="512pt" viewBox="0 -51 512.00103 512" width="512pt" xmlns="http://www.w3.org/2000/svg"><path d="m162.46875 36.527344h39.847656v86.339844h-39.847656zm0 0" fill="#546370"/><path d="m309.683594 36.527344h39.847656v86.339844h-39.847656zm0 0" fill="#546370"/><path d="m454.378906 409.214844h-396.757812c-31.824219 0-57.621094-25.796875-57.621094-57.621094v-185.578125c0-31.824219 25.796875-57.621094 57.621094-57.621094h396.761718c31.820313 0 57.617188 25.796875 57.617188 57.621094v185.578125c0 31.824219-25.796875 57.621094-57.621094 57.621094zm0 0" fill="#ffa93f"/><path d="m57.621094 108.394531c-31.824219 0-57.621094 25.796875-57.621094 57.621094v185.578125c0 31.824219 25.796875 57.621094 57.621094 57.621094h154.214844c-13.964844-16.320313-20.363282-39.59375-23-61.867188-4.019532-33.941406 15.933593-66.015625 47.910156-78.082031 18.207031-6.871094 30.535156-14.113281 30.535156-14.113281v-146.757813zm0 0" fill="#ff9000"/><path d="m0 317.757812v33.835938c0 31.824219 25.796875 57.621094 57.621094 57.621094h396.761718c31.820313 0 57.617188-25.796875 57.617188-57.621094v-33.835938zm0 0" fill="#6b7d8e"/><path d="m454.378906 108.394531h-396.757812c-31.824219 0-57.621094 25.796875-57.621094 57.621094v30.835937h512v-30.835937c0-31.824219-25.796875-57.621094-57.621094-57.621094zm0 0" fill="#ffbe73"/><path d="m80.734375 196.851562h74.980469v120.90625h-74.980469zm0 0" fill="#dfca00"/><path d="m356.285156 196.851562h74.980469v120.90625h-74.980469zm0 0" fill="#eedb00"/><path d="m292.089844 238.339844-24.808594 16.8125c-6.8125 4.617187-15.75 4.617187-22.5625 0l-24.808594-16.8125c-7.984375-5.410156-12.761718-14.425782-12.761718-24.066406v-37.421876c0-13.382812 10.847656-24.230468 24.226562-24.230468h49.25c13.382812 0 24.230469 10.847656 24.230469 24.230468v37.421876c-.003907 9.640624-4.78125 18.65625-12.765625 24.066406zm0 0" fill="#b0f0ef"/><path d="m346.210938 55.34375h-180.421876c-15.285156 0-27.671874-12.386719-27.671874-27.671875 0-15.28125 12.386718-27.671875 27.671874-27.671875h180.421876c15.28125 0 27.671874 12.390625 27.671874 27.671875 0 15.285156-12.386718 27.671875-27.671874 27.671875zm0 0" fill="#8697a6"/><path d="m207.148438 27.671875c0-15.28125 12.386718-27.671875 27.671874-27.671875h-69.03125c-15.285156 0-27.671874 12.390625-27.671874 27.671875 0 15.285156 12.386718 27.671875 27.671874 27.671875h69.03125c-15.285156 0-27.671874-12.386719-27.671874-27.671875zm0 0" fill="#6b7d8e"/><path d="m256 231.398438c-8.785156 0-15.902344-7.117188-15.902344-15.902344v-19.753906c0-8.785157 7.117188-15.902344 15.902344-15.902344s15.902344 7.117187 15.902344 15.902344v19.753906c0 8.78125-7.117188 15.902344-15.902344 15.902344zm0 0" fill="#6b7d8e"/><path d="m80.734375 108.394531h74.980469v88.457031h-74.980469zm0 0" fill="#f9ee80"/><path d="m356.285156 108.394531h74.980469v88.457031h-74.980469zm0 0" fill="#f9ee80"/><path d="m0 317.757812v33.835938c0 31.824219 25.796875 57.621094 57.621094 57.621094h154.214844c-13.964844-16.320313-20.363282-39.59375-23-61.867188-1.207032-10.199218-.253907-20.222656 2.542968-29.589844zm0 0" fill="#546370"/></svg>