<svg height="511pt" viewBox="1 -14 511.99998 511" width="511pt" xmlns="http://www.w3.org/2000/svg"><path d="m405.429688 149.929688c0 82.53125-66.902344 149.433593-149.429688 149.433593s-149.429688-66.902343-149.429688-149.433593c0-82.527344 66.902344-149.429688 149.429688-149.429688s149.429688 66.902344 149.429688 149.429688zm0 0" fill="#ff899f"/><path d="m298.863281 335.03125c0 82.527344-66.902343 149.429688-149.433593 149.429688-82.527344 0-149.429688-66.902344-149.429688-149.429688s66.902344-149.429688 149.429688-149.429688c82.53125 0 149.433593 66.902344 149.433593 149.429688zm0 0" fill="#a4e7ff"/><path d="m149.429688 185.601562c-12.890626 0-25.410157 1.632813-37.34375 4.703126 17.617187 62.914062 75.378906 109.054687 143.914062 109.054687 12.894531 0 25.402344-1.632813 37.335938-4.703125-17.613282-62.910156-75.367188-109.054688-143.90625-109.054688zm0 0" fill="#996acc"/><path d="m512 335.03125c0 82.527344-66.902344 149.429688-149.429688 149.429688-82.53125 0-149.433593-66.902344-149.433593-149.429688s66.902343-149.429688 149.433593-149.429688c82.527344 0 149.429688 66.902344 149.429688 149.429688zm0 0" fill="#73da8c"/><path d="m255.996094 230.277344c-26.503906 26.96875-42.859375 63.957031-42.859375 104.753906s16.359375 77.785156 42.863281 104.75c26.503906-26.964844 42.863281-63.953125 42.863281-104.75s-16.359375-77.785156-42.867187-104.753906zm0 0" fill="#00bfd7"/><path d="m399.914062 190.304688c-11.9375-3.070313-24.453124-4.703126-37.34375-4.703126-68.539062 0-126.300781 46.140626-143.914062 109.054688 11.933594 3.070312 24.453125 4.703125 37.34375 4.703125 68.539062.003906 126.296875-46.140625 143.914062-109.054687zm0 0" fill="#f4e74d"/><path d="m218.65625 294.65625c11.933594 3.070312 24.453125 4.703125 37.34375 4.703125 12.894531 0 25.402344-1.632813 37.335938-4.703125-6.886719-24.605469-19.921876-46.660156-37.339844-64.378906-17.414063 17.71875-30.449219 39.773437-37.339844 64.378906zm0 0" fill="#fff8e6"/><path d="m198.5 129.824219c0-9.351563-9.523438-16.933594-21.265625-16.933594s-21.265625 7.582031-21.265625 16.933594c0 9.351562 9.523438 16.933593 21.265625 16.933593s21.265625-7.582031 21.265625-16.933593zm0 0" fill="#ffdee4"/><path d="m356.03125 129.824219c0-9.351563-9.523438-16.933594-21.265625-16.933594s-21.265625 7.582031-21.265625 16.933594c0 9.351562 9.523438 16.933593 21.265625 16.933593s21.265625-7.582031 21.265625-16.933593zm0 0" fill="#ffdee4"/><g fill="#454545"><path d="m319.671875 120.929688c-4.269531 0-7.726563-3.460938-7.726563-7.726563v-12.828125c0-4.265625 3.457032-7.726562 7.726563-7.726562 4.265625 0 7.726563 3.460937 7.726563 7.726562v12.828125c0 4.265625-3.460938 7.726563-7.726563 7.726563zm0 0"/><path d="m192.328125 120.929688c-4.265625 0-7.726563-3.460938-7.726563-7.726563v-12.828125c0-4.265625 3.460938-7.726562 7.726563-7.726562 4.269531 0 7.726563 3.460937 7.726563 7.726562v12.828125c0 4.265625-3.460938 7.726563-7.726563 7.726563zm0 0"/><path d="m261.277344 105.484375c-1.730469 2.539063-4.253906 2.847656-5.277344 2.847656s-3.589844-.277343-5.277344-2.847656c-2.34375-3.566406-7.132812-4.558594-10.699218-2.214844-3.566407 2.339844-4.558594 7.132813-2.214844 10.699219 4.035156 6.144531 10.835937 9.816406 18.191406 9.816406s14.15625-3.671875 18.191406-9.816406c2.34375-3.566406 1.351563-8.359375-2.214844-10.699219-1.308593-.859375-7.089843-3.085937-10.699218 2.214844zm0 0"/></g></svg>