<svg height="512pt" viewBox="0 -36 512 512" width="512pt" xmlns="http://www.w3.org/2000/svg"><path d="m223.117188 111.222656c-31.796876-23.027344-88.761719-52.359375-179.898438-61.652344-23.128906-2.359374-43.21875 15.847657-43.21875 39.09375v244.351563c0 20.738281 15.828125 38.066406 36.484375 39.914063 84.910156 7.59375 141.035156 32.496093 175.265625 54.539062 26.964844 17.359375 61.535156 17.359375 88.5 0 34.230469-22.042969 90.355469-46.945312 175.265625-54.539062 20.65625-1.847657 36.484375-19.175782 36.484375-39.914063v-244.351563c0-23.25-20.089844-41.453124-43.21875-39.09375-91.136719 9.292969-148.101562 38.625-179.898438 61.652344-19.652343 14.234375-46.113281 14.234375-65.765624 0zm0 0" fill="#3ccbde"/><path d="m116.375 66.296875c0-1.207031.039062-2.417969.121094-3.601563-21.5-5.71875-45.820313-10.328124-73.277344-13.125-23.128906-2.359374-43.21875 15.847657-43.21875 39.09375v244.351563c0 20.738281 15.828125 38.066406 36.484375 39.914063 30.183594 2.699218 56.707031 7.582031 79.925781 13.746093-.015625-.496093-.035156-320.378906-.035156-320.378906zm0 0" fill="#00a8c3"/><path d="m223.117188 61.859375c-31.796876-23.027344-88.761719-52.359375-179.898438-61.652344-23.128906-2.359375-43.21875 15.847657-43.21875 39.09375v244.351563c0 20.738281 15.828125 38.066406 36.484375 39.914062 84.910156 7.59375 141.035156 32.496094 175.265625 54.539063 26.964844 17.363281 61.535156 17.363281 88.5 0 34.230469-22.042969 90.355469-46.945313 175.265625-54.539063 20.65625-1.84375 36.484375-19.171875 36.484375-39.914062v-244.351563c0-23.246093-20.089844-41.453125-43.21875-39.09375-91.136719 9.292969-148.101562 38.625-179.898438 61.652344-19.652343 14.234375-46.113281 14.234375-65.765624 0zm0 0" fill="#b5e9f1"/><g fill="#6a829a"><path d="m305.964844 254.984375c-2.1875-3.664063-.832032-8.425781 2.875-10.539063 43.972656-25.125 97.519531-41.054687 159.15625-47.335937 4.253906-.441406 8.039062 2.65625 8.472656 6.902344.433594 4.246093-2.660156 8.035156-6.902344 8.46875-59.476562 6.066406-111.046875 21.207031-153.058594 45.378906-3.8125 2.195313-8.332031.832031-10.542968-2.875zm0 0"/><path d="m305.964844 305.398438c-2.117188-3.707032-.832032-8.425782 2.875-10.542969 43.972656-25.125 97.519531-41.050781 159.15625-47.335938 4.253906-.4375 8.039062 2.65625 8.472656 6.902344s-2.660156 8.039063-6.902344 8.472656c-59.476562 6.0625-111.148437 21.023438-153.058594 45.378907-4.9375 2.867187-9.117187-.378907-10.542968-2.875zm0 0"/><path d="m396.253906 77.253906c-.917968-4.167968 1.714844-8.289062 5.882813-9.210937 17.933593-3.953125 36.90625-6.96875 56.394531-8.953125 4.257812-.433594 8.035156 2.660156 8.46875 6.902344.433594 4.246093-2.65625 8.039062-6.902344 8.472656-18.894531 1.925781-37.347656 4.542968-54.632812 8.671875-3.972656.945312-8.414063-2.277344-9.210938-5.882813zm0 0"/><path d="m396.253906 121.871094c-.917968-4.164063 1.714844-8.289063 5.882813-9.207032 17.929687-3.953124 36.902343-6.96875 56.394531-8.953124 4.257812-.441407 8.035156 2.65625 8.46875 6.902343.433594 4.246094-2.65625 8.035157-6.902344 8.46875-18.902344 1.929688-37.265625 4.921875-54.632812 8.671875-4.785156 1.03125-8.414063-2.273437-9.210938-5.882812zm0 0"/><path d="m396.253906 166.492188c-.917968-4.167969 1.714844-8.292969 5.882813-9.210938 17.933593-3.953125 36.90625-6.96875 56.394531-8.953125 4.257812-.433594 8.035156 2.65625 8.46875 6.902344.433594 4.246093-2.65625 8.039062-6.902344 8.46875-18.894531 1.929687-37.292968 4.78125-54.632812 8.671875-4.988282 1.121094-8.414063-2.273438-9.210938-5.878906zm0 0"/></g><path d="m355.984375 167.394531c-13.636719 5.269531-25.6875 10.894531-36.269531 16.5625-8.484375 4.539063-18.734375-1.671875-18.734375-11.292969v-42.71875c0-6.132812 3.207031-11.839843 8.492187-14.953124 11.308594-6.660157 24.613282-13.421876 40.085938-19.753907 8.40625-3.441406 17.625 2.738281 17.625 11.820313v44.082031c0 7.210937-4.46875 13.65625-11.199219 16.253906zm0 0" fill="#29ce69"/><path d="m256 72.535156c-11.527344 0-23.058594-3.558594-32.882812-10.675781-31.796876-23.027344-88.761719-52.359375-179.898438-61.652344-23.128906-2.359375-43.21875 15.847657-43.21875 39.09375v244.351563c0 20.738281 15.828125 38.066406 36.484375 39.914062 84.910156 7.59375 141.035156 32.496094 175.265625 54.539063 13.484375 8.679687 28.867188 13.019531 44.25 13.019531zm0 0" fill="#81d9e7"/><path d="m142.949219 21.351562c-27.347657-9.371093-60.347657-17.128906-99.730469-21.144531-23.128906-2.359375-43.21875 15.847657-43.21875 39.09375v244.351563c0 20.738281 15.828125 38.066406 36.484375 39.914062 30.167969 2.699219 56.703125 7.582032 79.910156 13.746094l-.019531-271.015625c0-19.488281 10.835938-36.253906 26.574219-44.945313zm0 0" fill="#3ccbde"/><path d="m204.132812 126.769531c-38.699218-24.066406-86.386718-40.25-141.738281-48.101562-4.222656-.597657-7.164062-4.507813-6.566406-8.734375.601563-4.226563 4.507813-7.164063 8.738281-6.5625 57.488282 8.152344 107.191406 25.070312 147.726563 50.277344 3.621093 2.253906 4.558593 6.914062 2.480469 10.640624-3.007813 5.394532-9.371094 3.269532-10.640626 2.480469zm0 0" fill="#6a829a"/><path d="m194.976562 232.632812c-26.914062-14.769531-63.75-29.476562-112.472656-38.378906-9.894531-1.808594-19.023437 5.800782-19.023437 15.859375v38.707031c0 12.277344 8.785156 22.746094 20.855469 25 42.046874 7.855469 75.15625 20.035157 100.601562 32.777344 10.695312 5.355469 23.277344-2.476562 23.277344-14.4375v-37.214844c-.003906-9.300781-5.082032-17.839843-13.238282-22.3125zm0 0" fill="#f9ee80"/><path d="m116.382812 201.804688c-10.585937-2.808594-21.875-5.355469-33.875-7.546876-9.898437-1.808593-19.027343 5.796876-19.027343 15.859376v38.707031c0 12.273437 8.789062 22.746093 20.855469 25 11.328124 2.113281 22 4.542969 32.054687 7.214843zm0 0" fill="#eedb00"/><path d="m177.882812 170.238281c-26.289062-12.730469-56.046874-22.507812-88.453124-29.050781-4.183594-.847656-6.886719-4.921875-6.042969-9.105469.84375-4.179687 4.917969-6.886719 9.105469-6.042969 33.675781 6.804688 64.671874 16.996094 92.125 30.289063 3.839843 1.863281 5.257812 6.394531 3.585937 10.324219-2.578125 6.066406-9.238281 4.109375-10.320313 3.585937zm0 0" fill="#6a829a"/></svg>