<svg height="512pt" viewBox="0 0 512.00019 512" width="512pt" xmlns="http://www.w3.org/2000/svg"><path d="m427.21875 14.644531-412.574219 412.574219c-31.285156 31.285156-9.125 84.78125 35.117188 84.78125h364.472656c53.996094 0 97.765625-43.769531 97.765625-97.765625v-364.472656c0-44.242188-53.492188-66.402344-84.78125-35.117188zm-24.859375 356.578125c0 17.195313-13.941406 31.136719-31.136719 31.136719h-137.449218c-14.46875 0-21.714844-17.492187-11.484376-27.722656l152.347657-152.347657c10.230469-10.230468 27.722656-2.984374 27.722656 11.484376zm0 0" fill="#73da8c"/><path d="m67.726562 453.636719 412.574219-412.574219c7.8125-7.8125 17.015625-12.289062 26.417969-13.925781-14.257812-28.109375-54.160156-37.828125-79.5-12.492188l-412.574219 412.574219c-31.285156 31.285156-9.125 84.78125 35.117188 84.78125h9.195312c-9.4375-17.949219-8.179687-41.414062 8.769531-58.363281zm0 0" fill="#29ce69"/><g fill="#6a829a"><path d="m461.152344 88.8125c0 8.535156 6.917968 15.453125 15.453125 15.453125h35.394531v-30.90625h-35.394531c-8.535157 0-15.453125 6.917969-15.453125 15.453125zm0 0"/><path d="m461.152344 185.613281c0 8.535157 6.917968 15.453125 15.453125 15.453125h35.394531v-30.902344h-35.394531c-8.535157 0-15.453125 6.917969-15.453125 15.449219zm0 0"/><path d="m461.152344 282.417969c0 8.535156 6.917968 15.453125 15.453125 15.453125h35.394531v-30.90625h-35.394531c-8.535157 0-15.453125 6.917968-15.453125 15.453125zm0 0"/><path d="m461.152344 379.222656c0 8.535156 6.917968 15.453125 15.453125 15.453125h35.394531v-30.90625h-35.394531c-8.535157 0-15.453125 6.917969-15.453125 15.453125zm0 0"/><path d="m385.753906 461.152344c-8.535156 0-15.453125 6.917968-15.453125 15.453125v35.394531h30.90625v-35.394531c0-8.535157-6.921875-15.453125-15.453125-15.453125zm0 0"/><path d="m288.949219 461.152344c-8.535157 0-15.453125 6.917968-15.453125 15.453125v35.394531h30.90625v-35.394531c0-8.535157-6.917969-15.453125-15.453125-15.453125zm0 0"/><path d="m192.144531 461.152344c-8.53125 0-15.453125 6.917968-15.453125 15.453125v35.394531h30.90625v-35.394531c0-8.535157-6.917968-15.453125-15.453125-15.453125zm0 0"/><path d="m95.34375 461.152344c-8.535156 0-15.453125 6.917968-15.453125 15.453125v35.394531h30.90625v-35.394531c0-8.535157-6.921875-15.453125-15.453125-15.453125zm0 0"/></g></svg>