<svg height="512pt" viewBox="0 0 512 511" width="512pt" xmlns="http://www.w3.org/2000/svg"><path d="m463.316406 88.050781-38.867187-38.867187 40.636719-40.632813c10.730468-10.734375 28.132812-10.734375 38.863281 0 10.734375 10.730469 10.734375 28.132813 0 38.863281zm0 0" fill="#29ce69"/><path d="m5.488281 506.710938c-7.316406-7.316407-7.316406-19.179688 0-26.5l37.984375-37.980469 26.5 26.5-37.984375 37.980469c-7.316406 7.320312-19.183593 7.320312-26.5 0zm0 0" fill="#516980"/><path d="m155.980469 433.808594-77.589844-77.589844s-48.21875 33.910156-50.644531 92.023438c-.847656 20.320312 15.894531 37.058593 36.210937 36.210937 58.113281-2.421875 92.023438-50.644531 92.023438-50.644531zm0 0" fill="#f9ee80"/><path d="m78.390625 356.21875s-48.21875 33.910156-50.644531 92.023438c-.6875 16.519531 10.253906 30.675781 25.285156 34.933593-1.640625-12.632812-.382812-23.25 2.003906-31.777343 3.726563-13.300782 19.648438-18.582032 30.84375-10.492188 13.492188 9.75 28.5625 17.042969 39.863282 21.785156 19.589843-13.738281 30.238281-28.882812 30.238281-28.882812zm0 0" fill="#eedb00"/><path d="m175.152344 225.992188c-18.796875-18.796876-18.796875-49.273438 0-68.070313l127.585937-127.585937c18.796875-18.800782 49.273438-18.800782 68.070313 0 18.796875 18.796874 18.796875 49.269531 0 68.066406l-127.589844 127.589844c-18.796875 18.796874-49.269531 18.796874-68.066406 0zm0 0" fill="#00c140"/><path d="m479.535156 56.613281-23.648437-23.648437c-14.976563-14.976563-39.261719-14.976563-54.242188 0l-177.082031 177.085937 77.886719 77.886719 177.082031-177.085938c14.980469-14.976562 14.980469-39.261718.003906-54.238281zm0 0" fill="#f9ee80"/><path d="m342.816406 247.570312c-4.835937-15.421874-11.40625-28.613281-17.691406-39.03125-10.195312-16.894531-7.648438-38.539062 6.304688-52.492187l91.304687-91.304687c27.710937-29.332032 52.671875-12.011719 56.289063-8.640626l-23.136719-23.136718c-14.976563-14.976563-39.261719-14.976563-54.242188 0l-177.082031 177.085937 77.886719 77.886719zm0 0" fill="#eedb00"/><path d="m119.589844 437.0625-44.152344-44.152344c-19.546875-19.546875-19.546875-51.242187 0-70.789062l120.28125-120.28125c19.546875-19.546875 51.242188-19.546875 70.789062 0l44.152344 44.152344c19.546875 19.546874 19.546875 51.238281 0 70.789062l-120.28125 120.28125c-19.546875 19.546875-51.242187 19.546875-70.789062 0zm0 0" fill="#81d9e7"/><path d="m114.382812 361.066406 120.277344-120.28125c19.550782-19.546875 52.109375-18.699218 70.789063 0l-38.941407-38.945312c-19.546874-19.546875-51.242187-19.546875-70.789062 0l-120.28125 120.28125c-19.546875 19.546875-19.546875 51.242187 0 70.789062l38.945312 38.945313c-19.546874-19.550781-19.546874-51.242188 0-70.789063zm0 0" fill="#3ccbde"/><path d="m132.570312 370.304688c-8.300781 8.296874-9.667968 20.382812-3.0625 26.992187 6.609376 6.609375 18.695313 5.238281 26.996094-3.0625 8.296875-8.296875 9.667969-20.382813 3.058594-26.992187-6.609375-6.609376-18.695312-5.238282-26.992188 3.0625zm0 0" fill="#ffdee4"/><path d="m243.898438 258.976562c-8.300782 8.300782-9.671876 20.386719-3.0625 26.996094 6.609374 6.609375 18.695312 5.238282 26.992187-3.0625 8.300781-8.296875 9.671875-20.382812 3.0625-26.992187s-18.695313-5.238281-26.992187 3.058593zm0 0" fill="#ffdee4"/><g fill="#454545"><path d="m238.910156 275.320312c-3.015625 3.015626-7.902344 3.015626-10.917968 0l-9.066407-9.0625c-3.015625-3.015624-3.015625-7.90625 0-10.921874 3.015625-3.015626 7.90625-3.015626 10.921875 0l9.0625 9.0625c3.015625 3.015624 3.015625 7.90625 0 10.921874zm0 0"/><path d="m148.917969 365.3125c-3.015625 3.015625-7.90625 3.015625-10.921875 0l-9.0625-9.0625c-3.015625-3.015625-3.015625-7.90625 0-10.921875s7.90625-3.015625 10.921875 0l9.0625 9.0625c3.015625 3.015625 3.015625 7.90625 0 10.921875zm0 0"/><path d="m186.730469 305.671875c.570312 3.019531-.996094 5.019531-1.71875 5.742187-.722657.722657-2.730469 2.339844-5.742188 1.71875-4.175781-.863281-8.261719 1.820313-9.125 5.996094-.867187 4.175782 1.816407 8.261719 5.992188 9.125 7.199219 1.492188 14.597656-.722656 19.796875-5.917968 5.195312-5.199219 7.410156-12.597657 5.917968-19.792969-.863281-4.175781-4.953124-6.859375-9.128906-5.996094-1.527344.316406-7.1875 2.828125-5.992187 9.125zm0 0"/></g></svg>