<svg height="512pt" viewBox="0 -54 512.00049 512" width="512pt" xmlns="http://www.w3.org/2000/svg"><path d="m246.4375 0h-80.269531v25.121094c-51.210938 34.433594-85.898438 100.785156-85.898438 176.996094 0 76.214843 34.6875 142.5625 85.898438 177v25.117187h80.269531c91.773438 0 166.171875-90.488281 166.171875-202.117187 0-111.625-74.398437-202.117188-166.171875-202.117188zm33.097656 275.644531c-5.933594 7.21875-18.121094 19.324219-33.097656 19.324219-14.972656 0-27.160156-12.105469-33.09375-19.324219-15.132812-18.402343-23.808594-45.199219-23.808594-73.527343 0-28.324219 8.679688-55.125 23.808594-73.527344 5.933594-7.214844 18.121094-19.324219 33.09375-19.324219s27.164062 12.109375 33.097656 19.324219c15.128906 18.402344 23.808594 45.203125 23.808594 73.527344 0 28.324218-8.679688 55.125-23.808594 73.527343zm0 0" fill="#eedb00"/><path d="m166.167969 379.117188v25.117187h80.269531c91.773438 0 166.171875-90.488281 166.171875-202.117187 0-71.671876-30.667969-134.628907-76.917969-170.515626-21.722656 11.25-49.675781 31.761719-74.90625 68.839844-.617187-1.144531-83.027344-1.039062-157.640625-.707031-14.539062 30.027344-22.871093 65.015625-22.871093 102.386719-.003907 76.210937 34.683593 142.558594 85.894531 176.996094zm47.175781-250.527344c5.933594-7.21875 18.121094-19.324219 33.09375-19.324219s27.164062 12.105469 33.097656 19.324219c15.128906 18.402344 23.808594 45.203125 23.808594 73.527344 0 28.324218-8.679688 55.125-23.808594 73.527343-5.933594 7.21875-18.121094 19.324219-33.097656 19.324219-14.972656 0-27.160156-12.105469-33.09375-19.324219-15.132812-18.402343-23.808594-45.203125-23.808594-73.527343 0-28.324219 8.679688-55.125 23.808594-73.527344zm0 0" fill="#dfca00"/><path d="m332.335938 202.117188s0-128.652344 73.613281-181.699219c12.507812-9.011719 27.640625-13.652344 43.058593-13.652344h46.289063c15.484375 0 22.5625 19.164063 10.902344 29.34375-32.875 28.699219-71.972657 80.753906-71.972657 166.007813-.820312.820312 15.019532 202.117187-187.785156 202.117187h-80.273437zm0 0" fill="#eedb00"/><path d="m166.167969 0c-91.769531 0-166.167969 90.492188-166.167969 202.117188s74.398438 202.117187 166.167969 202.117187c91.773437 0 166.167969-90.488281 166.167969-202.117187 0-111.625-74.394532-202.117188-166.167969-202.117188zm33.097656 275.644531c-5.933594 7.21875-18.125 19.324219-33.097656 19.324219-14.972657 0-27.164063-12.105469-33.09375-19.324219-15.132813-18.402343-23.808594-45.199219-23.808594-73.527343 0-28.324219 8.675781-55.125 23.808594-73.527344 5.929687-7.214844 18.121093-19.324219 33.09375-19.324219 14.972656 0 27.164062 12.109375 33.097656 19.324219 15.128906 18.402344 23.804687 45.203125 23.804687 73.527344 0 28.324218-8.675781 55.125-23.804687 73.527343zm0 0" fill="#f9ee80"/><g fill="#6b7d8e"><path d="m419.652344 84.109375c0 9.019531 7.3125 16.332031 16.332031 16.332031h20.632813c6.023437-12.242187 12.878906-23.097656 20.089843-32.664062h-40.722656c-9.019531-.003906-16.332031 7.3125-16.332031 16.332031zm0 0"/><path d="m392.257812 147.804688c0 9.019531 7.3125 16.332031 16.335938 16.332031h28.382812c1.742188-11.636719 4.253907-22.515625 7.367188-32.664063h-35.753906c-9.019532 0-16.332032 7.308594-16.332032 16.332032zm0 0"/><path d="m380.152344 211.5c0 9.019531 7.3125 16.332031 16.332031 16.332031h37.089844c1.105469-15.5.46875-25.53125.652343-25.714843 0-2.34375.027344-4.652344.085938-6.949219h-37.828125c-9.019531-.003907-16.332031 7.308593-16.332031 16.332031zm0 0"/><path d="m368.394531 275.195312c0 9.019532 7.3125 16.332032 16.332031 16.332032h35.996094c3.976563-11.277344 6.792969-22.351563 8.785156-32.664063h-44.78125c-9.019531 0-16.332031 7.3125-16.332031 16.332031zm0 0"/></g></svg>