<svg height="512pt" viewBox="0 -5 512.00196 512" width="512pt" xmlns="http://www.w3.org/2000/svg"><path d="m78.890625 242.234375s-67.179687-37.527344-78.5625-100.054687c-2.621094-14.402344 10.949219-26.464844 24.925781-22.113282l118.941406 37zm0 0" fill="#8697a6"/><path d="m40.617188 212.503906c19.421874 19.199219 38.273437 29.730469 38.273437 29.730469l65.304687-85.167969-77.40625-24.082031c-.476562 16.59375-5.34375 44.0625-26.171874 79.519531zm0 0" fill="#6b7d8e"/><path d="m154.4375 4.0625c-46.652344-12.347656-90.195312 5.746094-119.074219 23.652344-15.988281 9.910156-13.019531 33.972656 4.945313 39.546875l44.113281 13.6875c19.242187 5.96875 30.355469 26.054687 25.1875 45.53125l-30.71875 115.753906s46.96875 31.710937 99.714844 14.941406c12.757812-4.054687 26.679687.785157 34.308593 11.785157 60.417969 87.101562 155.011719 193.855468 172.929688 211.773437 28.859375 28.859375 75.652344 28.859375 104.511719 0 28.863281-28.859375 28.863281-75.652344 0-104.511719-18.066407-18.070312-126.476563-114.109375-213.96875-174.445312-11.101563-7.65625-16.019531-21.726563-11.796875-34.535156 24.3125-73.761719-36.808594-143.765626-110.152344-163.179688zm0 0" fill="#a5b1bd"/><path d="m459.25 421.167969c0 15.535156-12.59375 28.128906-28.128906 28.128906-15.539063 0-28.132813-12.59375-28.132813-28.128906 0-15.539063 12.59375-28.132813 28.132813-28.132813 15.535156 0 28.128906 12.59375 28.128906 28.132813zm0 0" fill="#6b7d8e"/><path d="m382.128906 372.175781c-9.835937 9.835938-25.78125 9.835938-35.613281 0l-59.042969-59.042969c-9.835937-9.835937-9.835937-25.78125 0-35.613281 9.835938-9.835937 25.78125-9.835937 35.617188 0l59.039062 59.039063c9.835938 9.835937 9.835938 25.78125 0 35.617187zm0 0" fill="#8697a6"/><path d="m287.472656 277.519531c-9.835937 9.832031-9.835937 25.777344 0 35.613281l29.097656 29.101563c-9.832031-9.835937-9.832031-25.78125 0-35.617187 9.835938-9.835938 25.78125-9.835938 35.617188 0l-29.097656-29.097657c-9.835938-9.835937-25.78125-9.835937-35.617188 0zm0 0" fill="#6b7d8e"/><path d="m191.210938 186.261719c-2.300782 8.992187-11.457032 14.417969-20.449219 12.117187l-24.113281-6.175781c-8.992188-2.300781-14.414063-11.457031-12.113282-20.449219 2.304688-8.992187 11.457032-14.414062 20.449219-12.113281l24.113281 6.171875c8.992188 2.300781 14.414063 11.457031 12.113282 20.449219zm0 0" fill="#546370"/><path d="m205.496094 130.464844c-2.300782 8.996094-11.457032 14.417968-20.449219 12.117187l-24.113281-6.175781c-8.992188-2.300781-14.414063-11.457031-12.113282-20.449219 2.304688-8.992187 11.457032-14.414062 20.449219-12.113281l24.113281 6.171875c8.992188 2.300781 14.414063 11.457031 12.113282 20.449219zm0 0" fill="#546370"/><path d="m198.355469 158.363281c-2.304688 8.996094-11.460938 14.417969-20.453125 12.117188l-24.109375-6.175781c-8.992188-2.300782-14.417969-11.457032-12.113281-20.449219 2.300781-8.992188 11.457031-14.414063 20.449218-12.113281l24.109375 6.171874c8.992188 2.300782 14.417969 11.457032 12.117188 20.449219zm0 0" fill="#6b7d8e"/></svg>