<svg height="511pt" viewBox="-6 1 511 511.99895" width="511pt" xmlns="http://www.w3.org/2000/svg"><path d="m80.277344 150.046875h-61.257813c-10.226562 0-18.519531 8.292969-18.519531 18.523437v324.90625c0 10.230469 8.292969 18.523438 18.519531 18.523438h61.257813c10.226562 0 18.519531-8.292969 18.519531-18.523438v-324.90625c0-10.230468-8.292969-18.523437-18.519531-18.523437zm0 0" fill="#b1e2fd"/><path d="m31.40625 493.480469v-324.910157c0-10.230468 8.289062-18.523437 18.519531-18.523437h-30.90625c-10.226562 0-18.519531 8.292969-18.519531 18.523437v324.90625c0 10.230469 8.292969 18.523438 18.519531 18.523438h30.90625c-10.230469 0-18.519531-8.292969-18.519531-18.519531zm0 0" fill="#80c4e6"/><path d="m213.570312 213.027344h-61.257812c-10.226562 0-18.519531 8.292968-18.519531 18.519531v261.929687c0 10.230469 8.292969 18.523438 18.519531 18.523438h61.257812c10.226563 0 18.519532-8.292969 18.519532-18.523438v-261.929687c0-10.226563-8.292969-18.519531-18.519532-18.519531zm0 0" fill="#f5e277"/><path d="m164.699219 493.480469v-261.933594c0-10.226563 8.289062-18.519531 18.519531-18.519531h-30.90625c-10.226562 0-18.519531 8.292968-18.519531 18.519531v261.929687c0 10.230469 8.292969 18.523438 18.519531 18.523438h30.90625c-10.230469 0-18.519531-8.292969-18.519531-18.519531zm0 0" fill="#fab659"/><path d="m346.859375 276.007812h-61.253906c-10.230469 0-18.519531 8.292969-18.519531 18.519532v198.949218c0 10.230469 8.289062 18.523438 18.519531 18.523438h61.253906c10.230469 0 18.523437-8.292969 18.523437-18.523438v-198.949218c0-10.226563-8.292968-18.519532-18.523437-18.519532zm0 0" fill="#76e6d5"/><path d="m297.988281 493.480469v-198.953125c0-10.226563 8.292969-18.519532 18.523438-18.519532h-30.90625c-10.230469 0-18.519531 8.292969-18.519531 18.519532v198.949218c0 10.230469 8.289062 18.523438 18.519531 18.523438h30.90625c-10.230469 0-18.523438-8.292969-18.523438-18.519531zm0 0" fill="#00ccac"/><path d="m480.152344 338.988281h-61.253906c-10.230469 0-18.519532 8.292969-18.519532 18.519531v135.96875c0 10.230469 8.289063 18.523438 18.519532 18.523438h61.253906c10.230468 0 18.523437-8.292969 18.523437-18.523438v-135.96875c0-10.226562-8.292969-18.519531-18.523437-18.519531zm0 0" fill="#fd99c8"/><g fill="#e8738b"><path d="m431.28125 493.480469v-135.972657c0-10.226562 8.292969-18.519531 18.523438-18.519531h-30.90625c-10.230469 0-18.519532 8.292969-18.519532 18.519531v135.96875c0 10.230469 8.289063 18.523438 18.519532 18.523438h30.90625c-10.230469 0-18.523438-8.292969-18.523438-18.519531zm0 0"/><path d="m483.632812 178.109375-37.222656-88.597656c-2.050781-4.878907-7.671875-7.171875-12.550781-5.121094l-23.3125 9.792969c-4.878906 2.050781-7.171875 7.671875-5.125 12.550781l16.410156 39.054687-354.179687-145.015624c-5.292969-2.164063-11.339844.367187-13.503906 5.660156l-9 21.980468c-2.167969 5.289063.367187 11.335938 5.660156 13.503907l354.3125 145.066406-39.1875 16.464844c-4.882813 2.050781-7.175782 7.667969-5.125 12.546875l9.796875 23.316406c2.050781 4.878906 7.667969 7.171875 12.546875 5.121094l88.597656-37.21875c5.433594-2.285156 9.742188-6.632813 11.96875-12.089844 2.230469-5.460938 2.195312-11.578125-.085938-17.015625zm0 0"/></g></svg>